%TF.GenerationSoftware,KiCad,Pcbnew,9.0.0*%
%TF.CreationDate,2025-12-13T14:21:09+02:00*%
%TF.ProjectId,mixed_signal_hw_pcb,6d697865-645f-4736-9967-6e616c5f6877,rev?*%
%TF.SameCoordinates,Original*%
%TF.FileFunction,Legend,Top*%
%TF.FilePolarity,Positive*%
%FSLAX46Y46*%
G04 Gerber Fmt 4.6, Leading zero omitted, Abs format (unit mm)*
G04 Created by KiCad (PCBNEW 9.0.0) date 2025-12-13 14:21:09*
%MOMM*%
%LPD*%
G01*
G04 APERTURE LIST*
%ADD10C,0.200000*%
%ADD11C,0.000000*%
%ADD12C,0.120000*%
%ADD13C,0.100000*%
%ADD14C,0.152400*%
%ADD15C,0.254000*%
G04 APERTURE END LIST*
D10*
X102830000Y-76765000D02*
X124190000Y-76765000D01*
X88740000Y-76870000D02*
X98370000Y-76870000D01*
X80470000Y-76970000D02*
X62360000Y-76970000D01*
X125486028Y-106531279D02*
X123986028Y-106531279D01*
X125486028Y-105888422D02*
X124700314Y-105888422D01*
X124700314Y-105888422D02*
X124557457Y-105959850D01*
X124557457Y-105959850D02*
X124486028Y-106102707D01*
X124486028Y-106102707D02*
X124486028Y-106316993D01*
X124486028Y-106316993D02*
X124557457Y-106459850D01*
X124557457Y-106459850D02*
X124628885Y-106531279D01*
X124486028Y-105388421D02*
X124486028Y-104816993D01*
X123986028Y-105174136D02*
X125271742Y-105174136D01*
X125271742Y-105174136D02*
X125414600Y-105102707D01*
X125414600Y-105102707D02*
X125486028Y-104959850D01*
X125486028Y-104959850D02*
X125486028Y-104816993D01*
X124486028Y-104531278D02*
X124486028Y-103959850D01*
X123986028Y-104316993D02*
X125271742Y-104316993D01*
X125271742Y-104316993D02*
X125414600Y-104245564D01*
X125414600Y-104245564D02*
X125486028Y-104102707D01*
X125486028Y-104102707D02*
X125486028Y-103959850D01*
X124486028Y-103459850D02*
X125986028Y-103459850D01*
X124557457Y-103459850D02*
X124486028Y-103316993D01*
X124486028Y-103316993D02*
X124486028Y-103031278D01*
X124486028Y-103031278D02*
X124557457Y-102888421D01*
X124557457Y-102888421D02*
X124628885Y-102816993D01*
X124628885Y-102816993D02*
X124771742Y-102745564D01*
X124771742Y-102745564D02*
X125200314Y-102745564D01*
X125200314Y-102745564D02*
X125343171Y-102816993D01*
X125343171Y-102816993D02*
X125414600Y-102888421D01*
X125414600Y-102888421D02*
X125486028Y-103031278D01*
X125486028Y-103031278D02*
X125486028Y-103316993D01*
X125486028Y-103316993D02*
X125414600Y-103459850D01*
X125414600Y-102174135D02*
X125486028Y-102031278D01*
X125486028Y-102031278D02*
X125486028Y-101745564D01*
X125486028Y-101745564D02*
X125414600Y-101602707D01*
X125414600Y-101602707D02*
X125271742Y-101531278D01*
X125271742Y-101531278D02*
X125200314Y-101531278D01*
X125200314Y-101531278D02*
X125057457Y-101602707D01*
X125057457Y-101602707D02*
X124986028Y-101745564D01*
X124986028Y-101745564D02*
X124986028Y-101959850D01*
X124986028Y-101959850D02*
X124914600Y-102102707D01*
X124914600Y-102102707D02*
X124771742Y-102174135D01*
X124771742Y-102174135D02*
X124700314Y-102174135D01*
X124700314Y-102174135D02*
X124557457Y-102102707D01*
X124557457Y-102102707D02*
X124486028Y-101959850D01*
X124486028Y-101959850D02*
X124486028Y-101745564D01*
X124486028Y-101745564D02*
X124557457Y-101602707D01*
X125343171Y-100888421D02*
X125414600Y-100816992D01*
X125414600Y-100816992D02*
X125486028Y-100888421D01*
X125486028Y-100888421D02*
X125414600Y-100959849D01*
X125414600Y-100959849D02*
X125343171Y-100888421D01*
X125343171Y-100888421D02*
X125486028Y-100888421D01*
X124557457Y-100888421D02*
X124628885Y-100816992D01*
X124628885Y-100816992D02*
X124700314Y-100888421D01*
X124700314Y-100888421D02*
X124628885Y-100959849D01*
X124628885Y-100959849D02*
X124557457Y-100888421D01*
X124557457Y-100888421D02*
X124700314Y-100888421D01*
X123914600Y-99102706D02*
X125843171Y-100388420D01*
X123914600Y-97531277D02*
X125843171Y-98816991D01*
X124486028Y-96388420D02*
X125700314Y-96388420D01*
X125700314Y-96388420D02*
X125843171Y-96459848D01*
X125843171Y-96459848D02*
X125914600Y-96531277D01*
X125914600Y-96531277D02*
X125986028Y-96674134D01*
X125986028Y-96674134D02*
X125986028Y-96888420D01*
X125986028Y-96888420D02*
X125914600Y-97031277D01*
X125414600Y-96388420D02*
X125486028Y-96531277D01*
X125486028Y-96531277D02*
X125486028Y-96816991D01*
X125486028Y-96816991D02*
X125414600Y-96959848D01*
X125414600Y-96959848D02*
X125343171Y-97031277D01*
X125343171Y-97031277D02*
X125200314Y-97102705D01*
X125200314Y-97102705D02*
X124771742Y-97102705D01*
X124771742Y-97102705D02*
X124628885Y-97031277D01*
X124628885Y-97031277D02*
X124557457Y-96959848D01*
X124557457Y-96959848D02*
X124486028Y-96816991D01*
X124486028Y-96816991D02*
X124486028Y-96531277D01*
X124486028Y-96531277D02*
X124557457Y-96388420D01*
X125486028Y-95674134D02*
X124486028Y-95674134D01*
X123986028Y-95674134D02*
X124057457Y-95745562D01*
X124057457Y-95745562D02*
X124128885Y-95674134D01*
X124128885Y-95674134D02*
X124057457Y-95602705D01*
X124057457Y-95602705D02*
X123986028Y-95674134D01*
X123986028Y-95674134D02*
X124128885Y-95674134D01*
X124486028Y-95174133D02*
X124486028Y-94602705D01*
X123986028Y-94959848D02*
X125271742Y-94959848D01*
X125271742Y-94959848D02*
X125414600Y-94888419D01*
X125414600Y-94888419D02*
X125486028Y-94745562D01*
X125486028Y-94745562D02*
X125486028Y-94602705D01*
X125486028Y-94102705D02*
X123986028Y-94102705D01*
X125486028Y-93459848D02*
X124700314Y-93459848D01*
X124700314Y-93459848D02*
X124557457Y-93531276D01*
X124557457Y-93531276D02*
X124486028Y-93674133D01*
X124486028Y-93674133D02*
X124486028Y-93888419D01*
X124486028Y-93888419D02*
X124557457Y-94031276D01*
X124557457Y-94031276D02*
X124628885Y-94102705D01*
X124486028Y-92102705D02*
X125486028Y-92102705D01*
X124486028Y-92745562D02*
X125271742Y-92745562D01*
X125271742Y-92745562D02*
X125414600Y-92674133D01*
X125414600Y-92674133D02*
X125486028Y-92531276D01*
X125486028Y-92531276D02*
X125486028Y-92316990D01*
X125486028Y-92316990D02*
X125414600Y-92174133D01*
X125414600Y-92174133D02*
X125343171Y-92102705D01*
X125486028Y-91388419D02*
X123986028Y-91388419D01*
X124557457Y-91388419D02*
X124486028Y-91245562D01*
X124486028Y-91245562D02*
X124486028Y-90959847D01*
X124486028Y-90959847D02*
X124557457Y-90816990D01*
X124557457Y-90816990D02*
X124628885Y-90745562D01*
X124628885Y-90745562D02*
X124771742Y-90674133D01*
X124771742Y-90674133D02*
X125200314Y-90674133D01*
X125200314Y-90674133D02*
X125343171Y-90745562D01*
X125343171Y-90745562D02*
X125414600Y-90816990D01*
X125414600Y-90816990D02*
X125486028Y-90959847D01*
X125486028Y-90959847D02*
X125486028Y-91245562D01*
X125486028Y-91245562D02*
X125414600Y-91388419D01*
X125343171Y-90031276D02*
X125414600Y-89959847D01*
X125414600Y-89959847D02*
X125486028Y-90031276D01*
X125486028Y-90031276D02*
X125414600Y-90102704D01*
X125414600Y-90102704D02*
X125343171Y-90031276D01*
X125343171Y-90031276D02*
X125486028Y-90031276D01*
X125414600Y-88674133D02*
X125486028Y-88816990D01*
X125486028Y-88816990D02*
X125486028Y-89102704D01*
X125486028Y-89102704D02*
X125414600Y-89245561D01*
X125414600Y-89245561D02*
X125343171Y-89316990D01*
X125343171Y-89316990D02*
X125200314Y-89388418D01*
X125200314Y-89388418D02*
X124771742Y-89388418D01*
X124771742Y-89388418D02*
X124628885Y-89316990D01*
X124628885Y-89316990D02*
X124557457Y-89245561D01*
X124557457Y-89245561D02*
X124486028Y-89102704D01*
X124486028Y-89102704D02*
X124486028Y-88816990D01*
X124486028Y-88816990D02*
X124557457Y-88674133D01*
X125486028Y-87816990D02*
X125414600Y-87959847D01*
X125414600Y-87959847D02*
X125343171Y-88031276D01*
X125343171Y-88031276D02*
X125200314Y-88102704D01*
X125200314Y-88102704D02*
X124771742Y-88102704D01*
X124771742Y-88102704D02*
X124628885Y-88031276D01*
X124628885Y-88031276D02*
X124557457Y-87959847D01*
X124557457Y-87959847D02*
X124486028Y-87816990D01*
X124486028Y-87816990D02*
X124486028Y-87602704D01*
X124486028Y-87602704D02*
X124557457Y-87459847D01*
X124557457Y-87459847D02*
X124628885Y-87388419D01*
X124628885Y-87388419D02*
X124771742Y-87316990D01*
X124771742Y-87316990D02*
X125200314Y-87316990D01*
X125200314Y-87316990D02*
X125343171Y-87388419D01*
X125343171Y-87388419D02*
X125414600Y-87459847D01*
X125414600Y-87459847D02*
X125486028Y-87602704D01*
X125486028Y-87602704D02*
X125486028Y-87816990D01*
X125486028Y-86674133D02*
X124486028Y-86674133D01*
X124628885Y-86674133D02*
X124557457Y-86602704D01*
X124557457Y-86602704D02*
X124486028Y-86459847D01*
X124486028Y-86459847D02*
X124486028Y-86245561D01*
X124486028Y-86245561D02*
X124557457Y-86102704D01*
X124557457Y-86102704D02*
X124700314Y-86031276D01*
X124700314Y-86031276D02*
X125486028Y-86031276D01*
X124700314Y-86031276D02*
X124557457Y-85959847D01*
X124557457Y-85959847D02*
X124486028Y-85816990D01*
X124486028Y-85816990D02*
X124486028Y-85602704D01*
X124486028Y-85602704D02*
X124557457Y-85459847D01*
X124557457Y-85459847D02*
X124700314Y-85388418D01*
X124700314Y-85388418D02*
X125486028Y-85388418D01*
X123914600Y-83602704D02*
X125843171Y-84888418D01*
X124486028Y-83316989D02*
X124486028Y-82745561D01*
X123986028Y-83102704D02*
X125271742Y-83102704D01*
X125271742Y-83102704D02*
X125414600Y-83031275D01*
X125414600Y-83031275D02*
X125486028Y-82888418D01*
X125486028Y-82888418D02*
X125486028Y-82745561D01*
X125414600Y-82316989D02*
X125486028Y-82174132D01*
X125486028Y-82174132D02*
X125486028Y-81888418D01*
X125486028Y-81888418D02*
X125414600Y-81745561D01*
X125414600Y-81745561D02*
X125271742Y-81674132D01*
X125271742Y-81674132D02*
X125200314Y-81674132D01*
X125200314Y-81674132D02*
X125057457Y-81745561D01*
X125057457Y-81745561D02*
X124986028Y-81888418D01*
X124986028Y-81888418D02*
X124986028Y-82102704D01*
X124986028Y-82102704D02*
X124914600Y-82245561D01*
X124914600Y-82245561D02*
X124771742Y-82316989D01*
X124771742Y-82316989D02*
X124700314Y-82316989D01*
X124700314Y-82316989D02*
X124557457Y-82245561D01*
X124557457Y-82245561D02*
X124486028Y-82102704D01*
X124486028Y-82102704D02*
X124486028Y-81888418D01*
X124486028Y-81888418D02*
X124557457Y-81745561D01*
X125486028Y-80816989D02*
X125414600Y-80959846D01*
X125414600Y-80959846D02*
X125343171Y-81031275D01*
X125343171Y-81031275D02*
X125200314Y-81102703D01*
X125200314Y-81102703D02*
X124771742Y-81102703D01*
X124771742Y-81102703D02*
X124628885Y-81031275D01*
X124628885Y-81031275D02*
X124557457Y-80959846D01*
X124557457Y-80959846D02*
X124486028Y-80816989D01*
X124486028Y-80816989D02*
X124486028Y-80602703D01*
X124486028Y-80602703D02*
X124557457Y-80459846D01*
X124557457Y-80459846D02*
X124628885Y-80388418D01*
X124628885Y-80388418D02*
X124771742Y-80316989D01*
X124771742Y-80316989D02*
X125200314Y-80316989D01*
X125200314Y-80316989D02*
X125343171Y-80388418D01*
X125343171Y-80388418D02*
X125414600Y-80459846D01*
X125414600Y-80459846D02*
X125486028Y-80602703D01*
X125486028Y-80602703D02*
X125486028Y-80816989D01*
X125486028Y-79674132D02*
X123986028Y-79674132D01*
X124914600Y-79531275D02*
X125486028Y-79102703D01*
X124486028Y-79102703D02*
X125057457Y-79674132D01*
X125486028Y-78245560D02*
X125414600Y-78388417D01*
X125414600Y-78388417D02*
X125343171Y-78459846D01*
X125343171Y-78459846D02*
X125200314Y-78531274D01*
X125200314Y-78531274D02*
X124771742Y-78531274D01*
X124771742Y-78531274D02*
X124628885Y-78459846D01*
X124628885Y-78459846D02*
X124557457Y-78388417D01*
X124557457Y-78388417D02*
X124486028Y-78245560D01*
X124486028Y-78245560D02*
X124486028Y-78031274D01*
X124486028Y-78031274D02*
X124557457Y-77888417D01*
X124557457Y-77888417D02*
X124628885Y-77816989D01*
X124628885Y-77816989D02*
X124771742Y-77745560D01*
X124771742Y-77745560D02*
X125200314Y-77745560D01*
X125200314Y-77745560D02*
X125343171Y-77816989D01*
X125343171Y-77816989D02*
X125414600Y-77888417D01*
X125414600Y-77888417D02*
X125486028Y-78031274D01*
X125486028Y-78031274D02*
X125486028Y-78245560D01*
X125486028Y-77102703D02*
X124486028Y-77102703D01*
X124628885Y-77102703D02*
X124557457Y-77031274D01*
X124557457Y-77031274D02*
X124486028Y-76888417D01*
X124486028Y-76888417D02*
X124486028Y-76674131D01*
X124486028Y-76674131D02*
X124557457Y-76531274D01*
X124557457Y-76531274D02*
X124700314Y-76459846D01*
X124700314Y-76459846D02*
X125486028Y-76459846D01*
X124700314Y-76459846D02*
X124557457Y-76388417D01*
X124557457Y-76388417D02*
X124486028Y-76245560D01*
X124486028Y-76245560D02*
X124486028Y-76031274D01*
X124486028Y-76031274D02*
X124557457Y-75888417D01*
X124557457Y-75888417D02*
X124700314Y-75816988D01*
X124700314Y-75816988D02*
X125486028Y-75816988D01*
X125486028Y-74459846D02*
X124700314Y-74459846D01*
X124700314Y-74459846D02*
X124557457Y-74531274D01*
X124557457Y-74531274D02*
X124486028Y-74674131D01*
X124486028Y-74674131D02*
X124486028Y-74959846D01*
X124486028Y-74959846D02*
X124557457Y-75102703D01*
X125414600Y-74459846D02*
X125486028Y-74602703D01*
X125486028Y-74602703D02*
X125486028Y-74959846D01*
X125486028Y-74959846D02*
X125414600Y-75102703D01*
X125414600Y-75102703D02*
X125271742Y-75174131D01*
X125271742Y-75174131D02*
X125128885Y-75174131D01*
X125128885Y-75174131D02*
X124986028Y-75102703D01*
X124986028Y-75102703D02*
X124914600Y-74959846D01*
X124914600Y-74959846D02*
X124914600Y-74602703D01*
X124914600Y-74602703D02*
X124843171Y-74459846D01*
X125486028Y-73531274D02*
X125414600Y-73674131D01*
X125414600Y-73674131D02*
X125271742Y-73745560D01*
X125271742Y-73745560D02*
X123986028Y-73745560D01*
X124486028Y-72316989D02*
X125486028Y-72316989D01*
X124486028Y-72959846D02*
X125271742Y-72959846D01*
X125271742Y-72959846D02*
X125414600Y-72888417D01*
X125414600Y-72888417D02*
X125486028Y-72745560D01*
X125486028Y-72745560D02*
X125486028Y-72531274D01*
X125486028Y-72531274D02*
X125414600Y-72388417D01*
X125414600Y-72388417D02*
X125343171Y-72316989D01*
X125414600Y-71674131D02*
X125486028Y-71531274D01*
X125486028Y-71531274D02*
X125486028Y-71245560D01*
X125486028Y-71245560D02*
X125414600Y-71102703D01*
X125414600Y-71102703D02*
X125271742Y-71031274D01*
X125271742Y-71031274D02*
X125200314Y-71031274D01*
X125200314Y-71031274D02*
X125057457Y-71102703D01*
X125057457Y-71102703D02*
X124986028Y-71245560D01*
X124986028Y-71245560D02*
X124986028Y-71459846D01*
X124986028Y-71459846D02*
X124914600Y-71602703D01*
X124914600Y-71602703D02*
X124771742Y-71674131D01*
X124771742Y-71674131D02*
X124700314Y-71674131D01*
X124700314Y-71674131D02*
X124557457Y-71602703D01*
X124557457Y-71602703D02*
X124486028Y-71459846D01*
X124486028Y-71459846D02*
X124486028Y-71245560D01*
X124486028Y-71245560D02*
X124557457Y-71102703D01*
X125486028Y-70388417D02*
X124486028Y-70388417D01*
X123986028Y-70388417D02*
X124057457Y-70459845D01*
X124057457Y-70459845D02*
X124128885Y-70388417D01*
X124128885Y-70388417D02*
X124057457Y-70316988D01*
X124057457Y-70316988D02*
X123986028Y-70388417D01*
X123986028Y-70388417D02*
X124128885Y-70388417D01*
X66135863Y-95021112D02*
X65635863Y-94306826D01*
X65278720Y-95021112D02*
X65278720Y-93521112D01*
X65278720Y-93521112D02*
X65850149Y-93521112D01*
X65850149Y-93521112D02*
X65993006Y-93592541D01*
X65993006Y-93592541D02*
X66064435Y-93663969D01*
X66064435Y-93663969D02*
X66135863Y-93806826D01*
X66135863Y-93806826D02*
X66135863Y-94021112D01*
X66135863Y-94021112D02*
X66064435Y-94163969D01*
X66064435Y-94163969D02*
X65993006Y-94235398D01*
X65993006Y-94235398D02*
X65850149Y-94306826D01*
X65850149Y-94306826D02*
X65278720Y-94306826D01*
X66778720Y-94235398D02*
X67278720Y-94235398D01*
X67493006Y-95021112D02*
X66778720Y-95021112D01*
X66778720Y-95021112D02*
X66778720Y-93521112D01*
X66778720Y-93521112D02*
X67493006Y-93521112D01*
X67921578Y-93521112D02*
X68421578Y-95021112D01*
X68421578Y-95021112D02*
X68921578Y-93521112D01*
X71350149Y-95021112D02*
X70493006Y-95021112D01*
X70921577Y-95021112D02*
X70921577Y-93521112D01*
X70921577Y-93521112D02*
X70778720Y-93735398D01*
X70778720Y-93735398D02*
X70635863Y-93878255D01*
X70635863Y-93878255D02*
X70493006Y-93949684D01*
X71993005Y-94878255D02*
X72064434Y-94949684D01*
X72064434Y-94949684D02*
X71993005Y-95021112D01*
X71993005Y-95021112D02*
X71921577Y-94949684D01*
X71921577Y-94949684D02*
X71993005Y-94878255D01*
X71993005Y-94878255D02*
X71993005Y-95021112D01*
X72993006Y-93521112D02*
X73135863Y-93521112D01*
X73135863Y-93521112D02*
X73278720Y-93592541D01*
X73278720Y-93592541D02*
X73350149Y-93663969D01*
X73350149Y-93663969D02*
X73421577Y-93806826D01*
X73421577Y-93806826D02*
X73493006Y-94092541D01*
X73493006Y-94092541D02*
X73493006Y-94449684D01*
X73493006Y-94449684D02*
X73421577Y-94735398D01*
X73421577Y-94735398D02*
X73350149Y-94878255D01*
X73350149Y-94878255D02*
X73278720Y-94949684D01*
X73278720Y-94949684D02*
X73135863Y-95021112D01*
X73135863Y-95021112D02*
X72993006Y-95021112D01*
X72993006Y-95021112D02*
X72850149Y-94949684D01*
X72850149Y-94949684D02*
X72778720Y-94878255D01*
X72778720Y-94878255D02*
X72707291Y-94735398D01*
X72707291Y-94735398D02*
X72635863Y-94449684D01*
X72635863Y-94449684D02*
X72635863Y-94092541D01*
X72635863Y-94092541D02*
X72707291Y-93806826D01*
X72707291Y-93806826D02*
X72778720Y-93663969D01*
X72778720Y-93663969D02*
X72850149Y-93592541D01*
X72850149Y-93592541D02*
X72993006Y-93521112D01*
X66064435Y-97436028D02*
X65207292Y-97436028D01*
X65635863Y-97436028D02*
X65635863Y-95936028D01*
X65635863Y-95936028D02*
X65493006Y-96150314D01*
X65493006Y-96150314D02*
X65350149Y-96293171D01*
X65350149Y-96293171D02*
X65207292Y-96364600D01*
X66635863Y-96078885D02*
X66707291Y-96007457D01*
X66707291Y-96007457D02*
X66850149Y-95936028D01*
X66850149Y-95936028D02*
X67207291Y-95936028D01*
X67207291Y-95936028D02*
X67350149Y-96007457D01*
X67350149Y-96007457D02*
X67421577Y-96078885D01*
X67421577Y-96078885D02*
X67493006Y-96221742D01*
X67493006Y-96221742D02*
X67493006Y-96364600D01*
X67493006Y-96364600D02*
X67421577Y-96578885D01*
X67421577Y-96578885D02*
X66564434Y-97436028D01*
X66564434Y-97436028D02*
X67493006Y-97436028D01*
X69207291Y-95864600D02*
X67921577Y-97793171D01*
X69635863Y-96078885D02*
X69707291Y-96007457D01*
X69707291Y-96007457D02*
X69850149Y-95936028D01*
X69850149Y-95936028D02*
X70207291Y-95936028D01*
X70207291Y-95936028D02*
X70350149Y-96007457D01*
X70350149Y-96007457D02*
X70421577Y-96078885D01*
X70421577Y-96078885D02*
X70493006Y-96221742D01*
X70493006Y-96221742D02*
X70493006Y-96364600D01*
X70493006Y-96364600D02*
X70421577Y-96578885D01*
X70421577Y-96578885D02*
X69564434Y-97436028D01*
X69564434Y-97436028D02*
X70493006Y-97436028D01*
X71421577Y-95936028D02*
X71564434Y-95936028D01*
X71564434Y-95936028D02*
X71707291Y-96007457D01*
X71707291Y-96007457D02*
X71778720Y-96078885D01*
X71778720Y-96078885D02*
X71850148Y-96221742D01*
X71850148Y-96221742D02*
X71921577Y-96507457D01*
X71921577Y-96507457D02*
X71921577Y-96864600D01*
X71921577Y-96864600D02*
X71850148Y-97150314D01*
X71850148Y-97150314D02*
X71778720Y-97293171D01*
X71778720Y-97293171D02*
X71707291Y-97364600D01*
X71707291Y-97364600D02*
X71564434Y-97436028D01*
X71564434Y-97436028D02*
X71421577Y-97436028D01*
X71421577Y-97436028D02*
X71278720Y-97364600D01*
X71278720Y-97364600D02*
X71207291Y-97293171D01*
X71207291Y-97293171D02*
X71135862Y-97150314D01*
X71135862Y-97150314D02*
X71064434Y-96864600D01*
X71064434Y-96864600D02*
X71064434Y-96507457D01*
X71064434Y-96507457D02*
X71135862Y-96221742D01*
X71135862Y-96221742D02*
X71207291Y-96078885D01*
X71207291Y-96078885D02*
X71278720Y-96007457D01*
X71278720Y-96007457D02*
X71421577Y-95936028D01*
X72493005Y-96078885D02*
X72564433Y-96007457D01*
X72564433Y-96007457D02*
X72707291Y-95936028D01*
X72707291Y-95936028D02*
X73064433Y-95936028D01*
X73064433Y-95936028D02*
X73207291Y-96007457D01*
X73207291Y-96007457D02*
X73278719Y-96078885D01*
X73278719Y-96078885D02*
X73350148Y-96221742D01*
X73350148Y-96221742D02*
X73350148Y-96364600D01*
X73350148Y-96364600D02*
X73278719Y-96578885D01*
X73278719Y-96578885D02*
X72421576Y-97436028D01*
X72421576Y-97436028D02*
X73350148Y-97436028D01*
X74707290Y-95936028D02*
X73993004Y-95936028D01*
X73993004Y-95936028D02*
X73921576Y-96650314D01*
X73921576Y-96650314D02*
X73993004Y-96578885D01*
X73993004Y-96578885D02*
X74135862Y-96507457D01*
X74135862Y-96507457D02*
X74493004Y-96507457D01*
X74493004Y-96507457D02*
X74635862Y-96578885D01*
X74635862Y-96578885D02*
X74707290Y-96650314D01*
X74707290Y-96650314D02*
X74778719Y-96793171D01*
X74778719Y-96793171D02*
X74778719Y-97150314D01*
X74778719Y-97150314D02*
X74707290Y-97293171D01*
X74707290Y-97293171D02*
X74635862Y-97364600D01*
X74635862Y-97364600D02*
X74493004Y-97436028D01*
X74493004Y-97436028D02*
X74135862Y-97436028D01*
X74135862Y-97436028D02*
X73993004Y-97364600D01*
X73993004Y-97364600D02*
X73921576Y-97293171D01*
X61766028Y-97381279D02*
X60266028Y-97381279D01*
X60266028Y-97381279D02*
X61337457Y-96881279D01*
X61337457Y-96881279D02*
X60266028Y-96381279D01*
X60266028Y-96381279D02*
X61766028Y-96381279D01*
X61766028Y-95666993D02*
X60766028Y-95666993D01*
X60266028Y-95666993D02*
X60337457Y-95738421D01*
X60337457Y-95738421D02*
X60408885Y-95666993D01*
X60408885Y-95666993D02*
X60337457Y-95595564D01*
X60337457Y-95595564D02*
X60266028Y-95666993D01*
X60266028Y-95666993D02*
X60408885Y-95666993D01*
X61766028Y-95095564D02*
X60766028Y-94309850D01*
X60766028Y-95095564D02*
X61766028Y-94309850D01*
X61694600Y-93166992D02*
X61766028Y-93309849D01*
X61766028Y-93309849D02*
X61766028Y-93595564D01*
X61766028Y-93595564D02*
X61694600Y-93738421D01*
X61694600Y-93738421D02*
X61551742Y-93809849D01*
X61551742Y-93809849D02*
X60980314Y-93809849D01*
X60980314Y-93809849D02*
X60837457Y-93738421D01*
X60837457Y-93738421D02*
X60766028Y-93595564D01*
X60766028Y-93595564D02*
X60766028Y-93309849D01*
X60766028Y-93309849D02*
X60837457Y-93166992D01*
X60837457Y-93166992D02*
X60980314Y-93095564D01*
X60980314Y-93095564D02*
X61123171Y-93095564D01*
X61123171Y-93095564D02*
X61266028Y-93809849D01*
X61766028Y-91809850D02*
X60266028Y-91809850D01*
X61694600Y-91809850D02*
X61766028Y-91952707D01*
X61766028Y-91952707D02*
X61766028Y-92238421D01*
X61766028Y-92238421D02*
X61694600Y-92381278D01*
X61694600Y-92381278D02*
X61623171Y-92452707D01*
X61623171Y-92452707D02*
X61480314Y-92524135D01*
X61480314Y-92524135D02*
X61051742Y-92524135D01*
X61051742Y-92524135D02*
X60908885Y-92452707D01*
X60908885Y-92452707D02*
X60837457Y-92381278D01*
X60837457Y-92381278D02*
X60766028Y-92238421D01*
X60766028Y-92238421D02*
X60766028Y-91952707D01*
X60766028Y-91952707D02*
X60837457Y-91809850D01*
X61194600Y-91095564D02*
X61194600Y-89952707D01*
X61694600Y-89309849D02*
X61766028Y-89095564D01*
X61766028Y-89095564D02*
X61766028Y-88738421D01*
X61766028Y-88738421D02*
X61694600Y-88595564D01*
X61694600Y-88595564D02*
X61623171Y-88524135D01*
X61623171Y-88524135D02*
X61480314Y-88452706D01*
X61480314Y-88452706D02*
X61337457Y-88452706D01*
X61337457Y-88452706D02*
X61194600Y-88524135D01*
X61194600Y-88524135D02*
X61123171Y-88595564D01*
X61123171Y-88595564D02*
X61051742Y-88738421D01*
X61051742Y-88738421D02*
X60980314Y-89024135D01*
X60980314Y-89024135D02*
X60908885Y-89166992D01*
X60908885Y-89166992D02*
X60837457Y-89238421D01*
X60837457Y-89238421D02*
X60694600Y-89309849D01*
X60694600Y-89309849D02*
X60551742Y-89309849D01*
X60551742Y-89309849D02*
X60408885Y-89238421D01*
X60408885Y-89238421D02*
X60337457Y-89166992D01*
X60337457Y-89166992D02*
X60266028Y-89024135D01*
X60266028Y-89024135D02*
X60266028Y-88666992D01*
X60266028Y-88666992D02*
X60337457Y-88452706D01*
X61766028Y-87809850D02*
X60766028Y-87809850D01*
X60266028Y-87809850D02*
X60337457Y-87881278D01*
X60337457Y-87881278D02*
X60408885Y-87809850D01*
X60408885Y-87809850D02*
X60337457Y-87738421D01*
X60337457Y-87738421D02*
X60266028Y-87809850D01*
X60266028Y-87809850D02*
X60408885Y-87809850D01*
X60766028Y-86452707D02*
X61980314Y-86452707D01*
X61980314Y-86452707D02*
X62123171Y-86524135D01*
X62123171Y-86524135D02*
X62194600Y-86595564D01*
X62194600Y-86595564D02*
X62266028Y-86738421D01*
X62266028Y-86738421D02*
X62266028Y-86952707D01*
X62266028Y-86952707D02*
X62194600Y-87095564D01*
X61694600Y-86452707D02*
X61766028Y-86595564D01*
X61766028Y-86595564D02*
X61766028Y-86881278D01*
X61766028Y-86881278D02*
X61694600Y-87024135D01*
X61694600Y-87024135D02*
X61623171Y-87095564D01*
X61623171Y-87095564D02*
X61480314Y-87166992D01*
X61480314Y-87166992D02*
X61051742Y-87166992D01*
X61051742Y-87166992D02*
X60908885Y-87095564D01*
X60908885Y-87095564D02*
X60837457Y-87024135D01*
X60837457Y-87024135D02*
X60766028Y-86881278D01*
X60766028Y-86881278D02*
X60766028Y-86595564D01*
X60766028Y-86595564D02*
X60837457Y-86452707D01*
X60766028Y-85738421D02*
X61766028Y-85738421D01*
X60908885Y-85738421D02*
X60837457Y-85666992D01*
X60837457Y-85666992D02*
X60766028Y-85524135D01*
X60766028Y-85524135D02*
X60766028Y-85309849D01*
X60766028Y-85309849D02*
X60837457Y-85166992D01*
X60837457Y-85166992D02*
X60980314Y-85095564D01*
X60980314Y-85095564D02*
X61766028Y-85095564D01*
X61766028Y-83738421D02*
X60980314Y-83738421D01*
X60980314Y-83738421D02*
X60837457Y-83809849D01*
X60837457Y-83809849D02*
X60766028Y-83952706D01*
X60766028Y-83952706D02*
X60766028Y-84238421D01*
X60766028Y-84238421D02*
X60837457Y-84381278D01*
X61694600Y-83738421D02*
X61766028Y-83881278D01*
X61766028Y-83881278D02*
X61766028Y-84238421D01*
X61766028Y-84238421D02*
X61694600Y-84381278D01*
X61694600Y-84381278D02*
X61551742Y-84452706D01*
X61551742Y-84452706D02*
X61408885Y-84452706D01*
X61408885Y-84452706D02*
X61266028Y-84381278D01*
X61266028Y-84381278D02*
X61194600Y-84238421D01*
X61194600Y-84238421D02*
X61194600Y-83881278D01*
X61194600Y-83881278D02*
X61123171Y-83738421D01*
X61766028Y-82809849D02*
X61694600Y-82952706D01*
X61694600Y-82952706D02*
X61551742Y-83024135D01*
X61551742Y-83024135D02*
X60266028Y-83024135D01*
X61766028Y-81095564D02*
X60266028Y-81095564D01*
X60266028Y-81095564D02*
X60266028Y-80738421D01*
X60266028Y-80738421D02*
X60337457Y-80524135D01*
X60337457Y-80524135D02*
X60480314Y-80381278D01*
X60480314Y-80381278D02*
X60623171Y-80309849D01*
X60623171Y-80309849D02*
X60908885Y-80238421D01*
X60908885Y-80238421D02*
X61123171Y-80238421D01*
X61123171Y-80238421D02*
X61408885Y-80309849D01*
X61408885Y-80309849D02*
X61551742Y-80381278D01*
X61551742Y-80381278D02*
X61694600Y-80524135D01*
X61694600Y-80524135D02*
X61766028Y-80738421D01*
X61766028Y-80738421D02*
X61766028Y-81095564D01*
X61694600Y-79024135D02*
X61766028Y-79166992D01*
X61766028Y-79166992D02*
X61766028Y-79452707D01*
X61766028Y-79452707D02*
X61694600Y-79595564D01*
X61694600Y-79595564D02*
X61551742Y-79666992D01*
X61551742Y-79666992D02*
X60980314Y-79666992D01*
X60980314Y-79666992D02*
X60837457Y-79595564D01*
X60837457Y-79595564D02*
X60766028Y-79452707D01*
X60766028Y-79452707D02*
X60766028Y-79166992D01*
X60766028Y-79166992D02*
X60837457Y-79024135D01*
X60837457Y-79024135D02*
X60980314Y-78952707D01*
X60980314Y-78952707D02*
X61123171Y-78952707D01*
X61123171Y-78952707D02*
X61266028Y-79666992D01*
X61766028Y-78309850D02*
X60766028Y-78309850D01*
X60908885Y-78309850D02*
X60837457Y-78238421D01*
X60837457Y-78238421D02*
X60766028Y-78095564D01*
X60766028Y-78095564D02*
X60766028Y-77881278D01*
X60766028Y-77881278D02*
X60837457Y-77738421D01*
X60837457Y-77738421D02*
X60980314Y-77666993D01*
X60980314Y-77666993D02*
X61766028Y-77666993D01*
X60980314Y-77666993D02*
X60837457Y-77595564D01*
X60837457Y-77595564D02*
X60766028Y-77452707D01*
X60766028Y-77452707D02*
X60766028Y-77238421D01*
X60766028Y-77238421D02*
X60837457Y-77095564D01*
X60837457Y-77095564D02*
X60980314Y-77024135D01*
X60980314Y-77024135D02*
X61766028Y-77024135D01*
X61766028Y-76095564D02*
X61694600Y-76238421D01*
X61694600Y-76238421D02*
X61623171Y-76309850D01*
X61623171Y-76309850D02*
X61480314Y-76381278D01*
X61480314Y-76381278D02*
X61051742Y-76381278D01*
X61051742Y-76381278D02*
X60908885Y-76309850D01*
X60908885Y-76309850D02*
X60837457Y-76238421D01*
X60837457Y-76238421D02*
X60766028Y-76095564D01*
X60766028Y-76095564D02*
X60766028Y-75881278D01*
X60766028Y-75881278D02*
X60837457Y-75738421D01*
X60837457Y-75738421D02*
X60908885Y-75666993D01*
X60908885Y-75666993D02*
X61051742Y-75595564D01*
X61051742Y-75595564D02*
X61480314Y-75595564D01*
X61480314Y-75595564D02*
X61623171Y-75666993D01*
X61623171Y-75666993D02*
X61694600Y-75738421D01*
X61694600Y-75738421D02*
X61766028Y-75881278D01*
X61766028Y-75881278D02*
X61766028Y-76095564D01*
X60980314Y-73309850D02*
X61051742Y-73095564D01*
X61051742Y-73095564D02*
X61123171Y-73024135D01*
X61123171Y-73024135D02*
X61266028Y-72952707D01*
X61266028Y-72952707D02*
X61480314Y-72952707D01*
X61480314Y-72952707D02*
X61623171Y-73024135D01*
X61623171Y-73024135D02*
X61694600Y-73095564D01*
X61694600Y-73095564D02*
X61766028Y-73238421D01*
X61766028Y-73238421D02*
X61766028Y-73809850D01*
X61766028Y-73809850D02*
X60266028Y-73809850D01*
X60266028Y-73809850D02*
X60266028Y-73309850D01*
X60266028Y-73309850D02*
X60337457Y-73166993D01*
X60337457Y-73166993D02*
X60408885Y-73095564D01*
X60408885Y-73095564D02*
X60551742Y-73024135D01*
X60551742Y-73024135D02*
X60694600Y-73024135D01*
X60694600Y-73024135D02*
X60837457Y-73095564D01*
X60837457Y-73095564D02*
X60908885Y-73166993D01*
X60908885Y-73166993D02*
X60980314Y-73309850D01*
X60980314Y-73309850D02*
X60980314Y-73809850D01*
X61766028Y-72095564D02*
X61694600Y-72238421D01*
X61694600Y-72238421D02*
X61623171Y-72309850D01*
X61623171Y-72309850D02*
X61480314Y-72381278D01*
X61480314Y-72381278D02*
X61051742Y-72381278D01*
X61051742Y-72381278D02*
X60908885Y-72309850D01*
X60908885Y-72309850D02*
X60837457Y-72238421D01*
X60837457Y-72238421D02*
X60766028Y-72095564D01*
X60766028Y-72095564D02*
X60766028Y-71881278D01*
X60766028Y-71881278D02*
X60837457Y-71738421D01*
X60837457Y-71738421D02*
X60908885Y-71666993D01*
X60908885Y-71666993D02*
X61051742Y-71595564D01*
X61051742Y-71595564D02*
X61480314Y-71595564D01*
X61480314Y-71595564D02*
X61623171Y-71666993D01*
X61623171Y-71666993D02*
X61694600Y-71738421D01*
X61694600Y-71738421D02*
X61766028Y-71881278D01*
X61766028Y-71881278D02*
X61766028Y-72095564D01*
X61766028Y-70309850D02*
X60980314Y-70309850D01*
X60980314Y-70309850D02*
X60837457Y-70381278D01*
X60837457Y-70381278D02*
X60766028Y-70524135D01*
X60766028Y-70524135D02*
X60766028Y-70809850D01*
X60766028Y-70809850D02*
X60837457Y-70952707D01*
X61694600Y-70309850D02*
X61766028Y-70452707D01*
X61766028Y-70452707D02*
X61766028Y-70809850D01*
X61766028Y-70809850D02*
X61694600Y-70952707D01*
X61694600Y-70952707D02*
X61551742Y-71024135D01*
X61551742Y-71024135D02*
X61408885Y-71024135D01*
X61408885Y-71024135D02*
X61266028Y-70952707D01*
X61266028Y-70952707D02*
X61194600Y-70809850D01*
X61194600Y-70809850D02*
X61194600Y-70452707D01*
X61194600Y-70452707D02*
X61123171Y-70309850D01*
X61766028Y-69595564D02*
X60766028Y-69595564D01*
X61051742Y-69595564D02*
X60908885Y-69524135D01*
X60908885Y-69524135D02*
X60837457Y-69452707D01*
X60837457Y-69452707D02*
X60766028Y-69309849D01*
X60766028Y-69309849D02*
X60766028Y-69166992D01*
X61766028Y-68024136D02*
X60266028Y-68024136D01*
X61694600Y-68024136D02*
X61766028Y-68166993D01*
X61766028Y-68166993D02*
X61766028Y-68452707D01*
X61766028Y-68452707D02*
X61694600Y-68595564D01*
X61694600Y-68595564D02*
X61623171Y-68666993D01*
X61623171Y-68666993D02*
X61480314Y-68738421D01*
X61480314Y-68738421D02*
X61051742Y-68738421D01*
X61051742Y-68738421D02*
X60908885Y-68666993D01*
X60908885Y-68666993D02*
X60837457Y-68595564D01*
X60837457Y-68595564D02*
X60766028Y-68452707D01*
X60766028Y-68452707D02*
X60766028Y-68166993D01*
X60766028Y-68166993D02*
X60837457Y-68024136D01*
X86722054Y-103312457D02*
X86769673Y-103264838D01*
X86769673Y-103264838D02*
X86864911Y-103217219D01*
X86864911Y-103217219D02*
X87103006Y-103217219D01*
X87103006Y-103217219D02*
X87198244Y-103264838D01*
X87198244Y-103264838D02*
X87245863Y-103312457D01*
X87245863Y-103312457D02*
X87293482Y-103407695D01*
X87293482Y-103407695D02*
X87293482Y-103502933D01*
X87293482Y-103502933D02*
X87245863Y-103645790D01*
X87245863Y-103645790D02*
X86674435Y-104217219D01*
X86674435Y-104217219D02*
X87293482Y-104217219D01*
X87912530Y-103217219D02*
X88103006Y-103217219D01*
X88103006Y-103217219D02*
X88198244Y-103264838D01*
X88198244Y-103264838D02*
X88293482Y-103360076D01*
X88293482Y-103360076D02*
X88341101Y-103550552D01*
X88341101Y-103550552D02*
X88341101Y-103883885D01*
X88341101Y-103883885D02*
X88293482Y-104074361D01*
X88293482Y-104074361D02*
X88198244Y-104169600D01*
X88198244Y-104169600D02*
X88103006Y-104217219D01*
X88103006Y-104217219D02*
X87912530Y-104217219D01*
X87912530Y-104217219D02*
X87817292Y-104169600D01*
X87817292Y-104169600D02*
X87722054Y-104074361D01*
X87722054Y-104074361D02*
X87674435Y-103883885D01*
X87674435Y-103883885D02*
X87674435Y-103550552D01*
X87674435Y-103550552D02*
X87722054Y-103360076D01*
X87722054Y-103360076D02*
X87817292Y-103264838D01*
X87817292Y-103264838D02*
X87912530Y-103217219D01*
X89531578Y-104217219D02*
X89531578Y-103217219D01*
X89531578Y-103693409D02*
X90103006Y-103693409D01*
X90103006Y-104217219D02*
X90103006Y-103217219D01*
X90483959Y-103217219D02*
X91150625Y-103217219D01*
X91150625Y-103217219D02*
X90483959Y-104217219D01*
X90483959Y-104217219D02*
X91150625Y-104217219D01*
X93055388Y-103550552D02*
X92293483Y-103836266D01*
X92293483Y-103836266D02*
X93055388Y-104121980D01*
X94626816Y-103693409D02*
X94769673Y-103741028D01*
X94769673Y-103741028D02*
X94817292Y-103788647D01*
X94817292Y-103788647D02*
X94864911Y-103883885D01*
X94864911Y-103883885D02*
X94864911Y-104026742D01*
X94864911Y-104026742D02*
X94817292Y-104121980D01*
X94817292Y-104121980D02*
X94769673Y-104169600D01*
X94769673Y-104169600D02*
X94674435Y-104217219D01*
X94674435Y-104217219D02*
X94293483Y-104217219D01*
X94293483Y-104217219D02*
X94293483Y-103217219D01*
X94293483Y-103217219D02*
X94626816Y-103217219D01*
X94626816Y-103217219D02*
X94722054Y-103264838D01*
X94722054Y-103264838D02*
X94769673Y-103312457D01*
X94769673Y-103312457D02*
X94817292Y-103407695D01*
X94817292Y-103407695D02*
X94817292Y-103502933D01*
X94817292Y-103502933D02*
X94769673Y-103598171D01*
X94769673Y-103598171D02*
X94722054Y-103645790D01*
X94722054Y-103645790D02*
X94626816Y-103693409D01*
X94626816Y-103693409D02*
X94293483Y-103693409D01*
X95198245Y-103217219D02*
X95436340Y-104217219D01*
X95436340Y-104217219D02*
X95626816Y-103502933D01*
X95626816Y-103502933D02*
X95817292Y-104217219D01*
X95817292Y-104217219D02*
X96055388Y-103217219D01*
X97960150Y-103550552D02*
X97198245Y-103836266D01*
X97198245Y-103836266D02*
X97960150Y-104121980D01*
X99150626Y-103312457D02*
X99198245Y-103264838D01*
X99198245Y-103264838D02*
X99293483Y-103217219D01*
X99293483Y-103217219D02*
X99531578Y-103217219D01*
X99531578Y-103217219D02*
X99626816Y-103264838D01*
X99626816Y-103264838D02*
X99674435Y-103312457D01*
X99674435Y-103312457D02*
X99722054Y-103407695D01*
X99722054Y-103407695D02*
X99722054Y-103502933D01*
X99722054Y-103502933D02*
X99674435Y-103645790D01*
X99674435Y-103645790D02*
X99103007Y-104217219D01*
X99103007Y-104217219D02*
X99722054Y-104217219D01*
X100341102Y-103217219D02*
X100436340Y-103217219D01*
X100436340Y-103217219D02*
X100531578Y-103264838D01*
X100531578Y-103264838D02*
X100579197Y-103312457D01*
X100579197Y-103312457D02*
X100626816Y-103407695D01*
X100626816Y-103407695D02*
X100674435Y-103598171D01*
X100674435Y-103598171D02*
X100674435Y-103836266D01*
X100674435Y-103836266D02*
X100626816Y-104026742D01*
X100626816Y-104026742D02*
X100579197Y-104121980D01*
X100579197Y-104121980D02*
X100531578Y-104169600D01*
X100531578Y-104169600D02*
X100436340Y-104217219D01*
X100436340Y-104217219D02*
X100341102Y-104217219D01*
X100341102Y-104217219D02*
X100245864Y-104169600D01*
X100245864Y-104169600D02*
X100198245Y-104121980D01*
X100198245Y-104121980D02*
X100150626Y-104026742D01*
X100150626Y-104026742D02*
X100103007Y-103836266D01*
X100103007Y-103836266D02*
X100103007Y-103598171D01*
X100103007Y-103598171D02*
X100150626Y-103407695D01*
X100150626Y-103407695D02*
X100198245Y-103312457D01*
X100198245Y-103312457D02*
X100245864Y-103264838D01*
X100245864Y-103264838D02*
X100341102Y-103217219D01*
X101864912Y-104217219D02*
X101864912Y-103217219D01*
X101960150Y-103836266D02*
X102245864Y-104217219D01*
X102245864Y-103550552D02*
X101864912Y-103931504D01*
X102674436Y-104217219D02*
X102674436Y-103217219D01*
X103245864Y-104217219D02*
X102817293Y-103645790D01*
X103245864Y-103217219D02*
X102674436Y-103788647D01*
X103674436Y-104217219D02*
X103674436Y-103217219D01*
X103674436Y-103693409D02*
X104245864Y-103693409D01*
X104245864Y-104217219D02*
X104245864Y-103217219D01*
X104626817Y-103550552D02*
X105150626Y-103550552D01*
X105150626Y-103550552D02*
X104626817Y-104217219D01*
X104626817Y-104217219D02*
X105150626Y-104217219D01*
G36*
X123633770Y-42479642D02*
G01*
X123745566Y-42591438D01*
X123807292Y-42838337D01*
X123807292Y-43313718D01*
X123745566Y-43560617D01*
X123633770Y-43672413D01*
X123526542Y-43726028D01*
X123288042Y-43726028D01*
X123180813Y-43672413D01*
X123069016Y-43560616D01*
X123007292Y-43313719D01*
X123007292Y-42838336D01*
X123069016Y-42591438D01*
X123180812Y-42479643D01*
X123288042Y-42426028D01*
X123526541Y-42426028D01*
X123633770Y-42479642D01*
G37*
G36*
X125673959Y-44092695D02*
G01*
X122640625Y-44092695D01*
X122640625Y-42826028D01*
X122807292Y-42826028D01*
X122807292Y-43326028D01*
X122807627Y-43329430D01*
X122807410Y-43330889D01*
X122808489Y-43338185D01*
X122809213Y-43345537D01*
X122809778Y-43346901D01*
X122810278Y-43350281D01*
X122881706Y-43635995D01*
X122888301Y-43654456D01*
X122892727Y-43660430D01*
X122895573Y-43667299D01*
X122908009Y-43682453D01*
X123050868Y-43825311D01*
X123058535Y-43831604D01*
X123060267Y-43833600D01*
X123063275Y-43835493D01*
X123066021Y-43837747D01*
X123068460Y-43838757D01*
X123076857Y-43844043D01*
X123219714Y-43915471D01*
X123238023Y-43922477D01*
X123241605Y-43922731D01*
X123244926Y-43924107D01*
X123264435Y-43926028D01*
X123550149Y-43926028D01*
X123569658Y-43924107D01*
X123572978Y-43922731D01*
X123576562Y-43922477D01*
X123594870Y-43915471D01*
X123737727Y-43844043D01*
X123746123Y-43838757D01*
X123748564Y-43837747D01*
X123751309Y-43835493D01*
X123754318Y-43833600D01*
X123756050Y-43831602D01*
X123763717Y-43825310D01*
X123906574Y-43682452D01*
X123919010Y-43667299D01*
X123921855Y-43660430D01*
X123926282Y-43654456D01*
X123932877Y-43635996D01*
X124004306Y-43350282D01*
X124004806Y-43346900D01*
X124005371Y-43345537D01*
X124006094Y-43338188D01*
X124007174Y-43330890D01*
X124006956Y-43329431D01*
X124007292Y-43326028D01*
X124007292Y-42826028D01*
X124006956Y-42822624D01*
X124007174Y-42821166D01*
X124006094Y-42813867D01*
X124005371Y-42806519D01*
X124004806Y-42805155D01*
X124004306Y-42801774D01*
X123932877Y-42516060D01*
X123926282Y-42497600D01*
X123921855Y-42491625D01*
X123919010Y-42484756D01*
X123906573Y-42469603D01*
X123763717Y-42326746D01*
X123762842Y-42326028D01*
X124450149Y-42326028D01*
X124450149Y-43826028D01*
X124452070Y-43845537D01*
X124467002Y-43881585D01*
X124494592Y-43909175D01*
X124530640Y-43924107D01*
X124569658Y-43924107D01*
X124605706Y-43909175D01*
X124633296Y-43881585D01*
X124648228Y-43845537D01*
X124650149Y-43826028D01*
X124650149Y-42702583D01*
X125320468Y-43875642D01*
X125323386Y-43879753D01*
X125324145Y-43881585D01*
X125326010Y-43883450D01*
X125331815Y-43891628D01*
X125342334Y-43899774D01*
X125351735Y-43909175D01*
X125357622Y-43911613D01*
X125362664Y-43915518D01*
X125375496Y-43919017D01*
X125387783Y-43924107D01*
X125394159Y-43924107D01*
X125400308Y-43925784D01*
X125413501Y-43924107D01*
X125426801Y-43924107D01*
X125432689Y-43921667D01*
X125439014Y-43920864D01*
X125450565Y-43914263D01*
X125462849Y-43909175D01*
X125467354Y-43904669D01*
X125472892Y-43901505D01*
X125481038Y-43890985D01*
X125490439Y-43881585D01*
X125492877Y-43875697D01*
X125496782Y-43870656D01*
X125500281Y-43857823D01*
X125505371Y-43845537D01*
X125506353Y-43835559D01*
X125507048Y-43833013D01*
X125506797Y-43831045D01*
X125507292Y-43826028D01*
X125507292Y-42326028D01*
X125505371Y-42306519D01*
X125490439Y-42270471D01*
X125462849Y-42242881D01*
X125426801Y-42227949D01*
X125387783Y-42227949D01*
X125351735Y-42242881D01*
X125324145Y-42270471D01*
X125309213Y-42306519D01*
X125307292Y-42326028D01*
X125307292Y-43449472D01*
X124636973Y-42276414D01*
X124634054Y-42272303D01*
X124633296Y-42270471D01*
X124631429Y-42268604D01*
X124625626Y-42260429D01*
X124615111Y-42252286D01*
X124605706Y-42242881D01*
X124599815Y-42240441D01*
X124594777Y-42236539D01*
X124581948Y-42233040D01*
X124569658Y-42227949D01*
X124563283Y-42227949D01*
X124557134Y-42226272D01*
X124543941Y-42227949D01*
X124530640Y-42227949D01*
X124524751Y-42230388D01*
X124518427Y-42231192D01*
X124506877Y-42237792D01*
X124494592Y-42242881D01*
X124490084Y-42247388D01*
X124484550Y-42250551D01*
X124476407Y-42261065D01*
X124467002Y-42270471D01*
X124464562Y-42276361D01*
X124460660Y-42281400D01*
X124457161Y-42294228D01*
X124452070Y-42306519D01*
X124451087Y-42316496D01*
X124450393Y-42319043D01*
X124450643Y-42321010D01*
X124450149Y-42326028D01*
X123762842Y-42326028D01*
X123756050Y-42320454D01*
X123754318Y-42318457D01*
X123751306Y-42316561D01*
X123748563Y-42314310D01*
X123746125Y-42313300D01*
X123737727Y-42308014D01*
X123594871Y-42236585D01*
X123576562Y-42229579D01*
X123572978Y-42229324D01*
X123569658Y-42227949D01*
X123550149Y-42226028D01*
X123264435Y-42226028D01*
X123244926Y-42227949D01*
X123241605Y-42229324D01*
X123238022Y-42229579D01*
X123219713Y-42236585D01*
X123076856Y-42308014D01*
X123068457Y-42313300D01*
X123066021Y-42314310D01*
X123063278Y-42316560D01*
X123060266Y-42318457D01*
X123058532Y-42320455D01*
X123050868Y-42326746D01*
X122908010Y-42469603D01*
X122895573Y-42484756D01*
X122892727Y-42491625D01*
X122888301Y-42497600D01*
X122881706Y-42516061D01*
X122810278Y-42801775D01*
X122809778Y-42805154D01*
X122809213Y-42806519D01*
X122808489Y-42813870D01*
X122807410Y-42821167D01*
X122807627Y-42822625D01*
X122807292Y-42826028D01*
X122640625Y-42826028D01*
X122640625Y-42059361D01*
X125673959Y-42059361D01*
X125673959Y-44092695D01*
G37*
G36*
X116133770Y-110979642D02*
G01*
X116245566Y-111091438D01*
X116307292Y-111338337D01*
X116307292Y-111813718D01*
X116245566Y-112060617D01*
X116133770Y-112172413D01*
X116026542Y-112226028D01*
X115788042Y-112226028D01*
X115680813Y-112172413D01*
X115569016Y-112060616D01*
X115507292Y-111813719D01*
X115507292Y-111338336D01*
X115569016Y-111091438D01*
X115680812Y-110979643D01*
X115788042Y-110926028D01*
X116026541Y-110926028D01*
X116133770Y-110979642D01*
G37*
G36*
X119529182Y-112592695D02*
G01*
X115140625Y-112592695D01*
X115140625Y-111326028D01*
X115307292Y-111326028D01*
X115307292Y-111826028D01*
X115307627Y-111829430D01*
X115307410Y-111830889D01*
X115308489Y-111838185D01*
X115309213Y-111845537D01*
X115309778Y-111846901D01*
X115310278Y-111850281D01*
X115381706Y-112135995D01*
X115388301Y-112154456D01*
X115392727Y-112160430D01*
X115395573Y-112167299D01*
X115408009Y-112182453D01*
X115550868Y-112325311D01*
X115558535Y-112331604D01*
X115560267Y-112333600D01*
X115563275Y-112335493D01*
X115566021Y-112337747D01*
X115568460Y-112338757D01*
X115576857Y-112344043D01*
X115719714Y-112415471D01*
X115738023Y-112422477D01*
X115741605Y-112422731D01*
X115744926Y-112424107D01*
X115764435Y-112426028D01*
X116050149Y-112426028D01*
X116069658Y-112424107D01*
X116072978Y-112422731D01*
X116076562Y-112422477D01*
X116094870Y-112415471D01*
X116237727Y-112344043D01*
X116246123Y-112338757D01*
X116248564Y-112337747D01*
X116251309Y-112335493D01*
X116254318Y-112333600D01*
X116256050Y-112331602D01*
X116263717Y-112325310D01*
X116406574Y-112182452D01*
X116419010Y-112167299D01*
X116421855Y-112160430D01*
X116426282Y-112154456D01*
X116432877Y-112135996D01*
X116504306Y-111850282D01*
X116504806Y-111846900D01*
X116505371Y-111845537D01*
X116506094Y-111838188D01*
X116507174Y-111830890D01*
X116506956Y-111829431D01*
X116507292Y-111826028D01*
X116507292Y-111326028D01*
X116506956Y-111322624D01*
X116507174Y-111321166D01*
X116506094Y-111313867D01*
X116505371Y-111306519D01*
X116504806Y-111305155D01*
X116504306Y-111301774D01*
X116432877Y-111016060D01*
X116426282Y-110997600D01*
X116421855Y-110991625D01*
X116419010Y-110984756D01*
X116406573Y-110969603D01*
X116263717Y-110826746D01*
X116262842Y-110826028D01*
X116950149Y-110826028D01*
X116950149Y-112040314D01*
X116952070Y-112059823D01*
X116953445Y-112063143D01*
X116953700Y-112066727D01*
X116960706Y-112085036D01*
X117032135Y-112227892D01*
X117037421Y-112236290D01*
X117038431Y-112238728D01*
X117040682Y-112241471D01*
X117042578Y-112244483D01*
X117044575Y-112246215D01*
X117050867Y-112253882D01*
X117122296Y-112325311D01*
X117129966Y-112331605D01*
X117131696Y-112333600D01*
X117134703Y-112335493D01*
X117137450Y-112337747D01*
X117139889Y-112338757D01*
X117148286Y-112344043D01*
X117291143Y-112415471D01*
X117309452Y-112422477D01*
X117313034Y-112422731D01*
X117316355Y-112424107D01*
X117335864Y-112426028D01*
X117621578Y-112426028D01*
X117641087Y-112424107D01*
X117644407Y-112422731D01*
X117647991Y-112422477D01*
X117666299Y-112415471D01*
X117809156Y-112344043D01*
X117817554Y-112338756D01*
X117819992Y-112337747D01*
X117822735Y-112335495D01*
X117825747Y-112333600D01*
X117827479Y-112331602D01*
X117835146Y-112325311D01*
X117906575Y-112253882D01*
X117912869Y-112246211D01*
X117914864Y-112244482D01*
X117916757Y-112241474D01*
X117919011Y-112238728D01*
X117920021Y-112236288D01*
X117925307Y-112227892D01*
X117996735Y-112085035D01*
X118003741Y-112066726D01*
X118003995Y-112063143D01*
X118005371Y-112059823D01*
X118007292Y-112040314D01*
X118007292Y-110826028D01*
X118005371Y-110806519D01*
X118309214Y-110806519D01*
X118309214Y-110845537D01*
X118324146Y-110881585D01*
X118351736Y-110909175D01*
X118387784Y-110924107D01*
X118407293Y-110926028D01*
X118735864Y-110926028D01*
X118735864Y-112326028D01*
X118737785Y-112345537D01*
X118752717Y-112381585D01*
X118780307Y-112409175D01*
X118816355Y-112424107D01*
X118855373Y-112424107D01*
X118891421Y-112409175D01*
X118919011Y-112381585D01*
X118933943Y-112345537D01*
X118935864Y-112326028D01*
X118935864Y-110926028D01*
X119264436Y-110926028D01*
X119283945Y-110924107D01*
X119319993Y-110909175D01*
X119347583Y-110881585D01*
X119362515Y-110845537D01*
X119362515Y-110806519D01*
X119347583Y-110770471D01*
X119319993Y-110742881D01*
X119283945Y-110727949D01*
X119264436Y-110726028D01*
X118407293Y-110726028D01*
X118387784Y-110727949D01*
X118351736Y-110742881D01*
X118324146Y-110770471D01*
X118309214Y-110806519D01*
X118005371Y-110806519D01*
X117990439Y-110770471D01*
X117962849Y-110742881D01*
X117926801Y-110727949D01*
X117887783Y-110727949D01*
X117851735Y-110742881D01*
X117824145Y-110770471D01*
X117809213Y-110806519D01*
X117807292Y-110826028D01*
X117807292Y-112016707D01*
X117753678Y-112123934D01*
X117705198Y-112172414D01*
X117597971Y-112226028D01*
X117359471Y-112226028D01*
X117252243Y-112172414D01*
X117203763Y-112123934D01*
X117150149Y-112016705D01*
X117150149Y-110826028D01*
X117148228Y-110806519D01*
X117133296Y-110770471D01*
X117105706Y-110742881D01*
X117069658Y-110727949D01*
X117030640Y-110727949D01*
X116994592Y-110742881D01*
X116967002Y-110770471D01*
X116952070Y-110806519D01*
X116950149Y-110826028D01*
X116262842Y-110826028D01*
X116256050Y-110820454D01*
X116254318Y-110818457D01*
X116251306Y-110816561D01*
X116248563Y-110814310D01*
X116246125Y-110813300D01*
X116237727Y-110808014D01*
X116094871Y-110736585D01*
X116076562Y-110729579D01*
X116072978Y-110729324D01*
X116069658Y-110727949D01*
X116050149Y-110726028D01*
X115764435Y-110726028D01*
X115744926Y-110727949D01*
X115741605Y-110729324D01*
X115738022Y-110729579D01*
X115719713Y-110736585D01*
X115576856Y-110808014D01*
X115568457Y-110813300D01*
X115566021Y-110814310D01*
X115563278Y-110816560D01*
X115560266Y-110818457D01*
X115558532Y-110820455D01*
X115550868Y-110826746D01*
X115408010Y-110969603D01*
X115395573Y-110984756D01*
X115392727Y-110991625D01*
X115388301Y-110997600D01*
X115381706Y-111016061D01*
X115310278Y-111301775D01*
X115309778Y-111305154D01*
X115309213Y-111306519D01*
X115308489Y-111313870D01*
X115307410Y-111321167D01*
X115307627Y-111322625D01*
X115307292Y-111326028D01*
X115140625Y-111326028D01*
X115140625Y-110559361D01*
X119529182Y-110559361D01*
X119529182Y-112592695D01*
G37*
G36*
X72316816Y-112092451D02*
G01*
X70212053Y-112092451D01*
X70212053Y-110326028D01*
X70378720Y-110326028D01*
X70378720Y-111826028D01*
X70380641Y-111845537D01*
X70395573Y-111881585D01*
X70423163Y-111909175D01*
X70459211Y-111924107D01*
X70498229Y-111924107D01*
X70534277Y-111909175D01*
X70561867Y-111881585D01*
X70576799Y-111845537D01*
X70578720Y-111826028D01*
X70578720Y-110326028D01*
X71093006Y-110326028D01*
X71093006Y-111826028D01*
X71094927Y-111845537D01*
X71109859Y-111881585D01*
X71137449Y-111909175D01*
X71173497Y-111924107D01*
X71212515Y-111924107D01*
X71248563Y-111909175D01*
X71276153Y-111881585D01*
X71291085Y-111845537D01*
X71293006Y-111826028D01*
X71293006Y-110702583D01*
X71963325Y-111875642D01*
X71966243Y-111879753D01*
X71967002Y-111881585D01*
X71968867Y-111883450D01*
X71974672Y-111891628D01*
X71985191Y-111899774D01*
X71994592Y-111909175D01*
X72000479Y-111911613D01*
X72005521Y-111915518D01*
X72018353Y-111919017D01*
X72030640Y-111924107D01*
X72037016Y-111924107D01*
X72043165Y-111925784D01*
X72056358Y-111924107D01*
X72069658Y-111924107D01*
X72075546Y-111921667D01*
X72081871Y-111920864D01*
X72093422Y-111914263D01*
X72105706Y-111909175D01*
X72110211Y-111904669D01*
X72115749Y-111901505D01*
X72123895Y-111890985D01*
X72133296Y-111881585D01*
X72135734Y-111875697D01*
X72139639Y-111870656D01*
X72143138Y-111857823D01*
X72148228Y-111845537D01*
X72149210Y-111835559D01*
X72149905Y-111833013D01*
X72149654Y-111831045D01*
X72150149Y-111826028D01*
X72150149Y-110326028D01*
X72148228Y-110306519D01*
X72133296Y-110270471D01*
X72105706Y-110242881D01*
X72069658Y-110227949D01*
X72030640Y-110227949D01*
X71994592Y-110242881D01*
X71967002Y-110270471D01*
X71952070Y-110306519D01*
X71950149Y-110326028D01*
X71950149Y-111449472D01*
X71279830Y-110276414D01*
X71276911Y-110272303D01*
X71276153Y-110270471D01*
X71274286Y-110268604D01*
X71268483Y-110260429D01*
X71257968Y-110252286D01*
X71248563Y-110242881D01*
X71242672Y-110240441D01*
X71237634Y-110236539D01*
X71224805Y-110233040D01*
X71212515Y-110227949D01*
X71206140Y-110227949D01*
X71199991Y-110226272D01*
X71186798Y-110227949D01*
X71173497Y-110227949D01*
X71167608Y-110230388D01*
X71161284Y-110231192D01*
X71149734Y-110237792D01*
X71137449Y-110242881D01*
X71132941Y-110247388D01*
X71127407Y-110250551D01*
X71119264Y-110261065D01*
X71109859Y-110270471D01*
X71107419Y-110276361D01*
X71103517Y-110281400D01*
X71100018Y-110294228D01*
X71094927Y-110306519D01*
X71093944Y-110316496D01*
X71093250Y-110319043D01*
X71093500Y-110321010D01*
X71093006Y-110326028D01*
X70578720Y-110326028D01*
X70576799Y-110306519D01*
X70561867Y-110270471D01*
X70534277Y-110242881D01*
X70498229Y-110227949D01*
X70459211Y-110227949D01*
X70423163Y-110242881D01*
X70395573Y-110270471D01*
X70380641Y-110306519D01*
X70378720Y-110326028D01*
X70212053Y-110326028D01*
X70212053Y-110059605D01*
X72316816Y-110059605D01*
X72316816Y-112092451D01*
G37*
G36*
X127138986Y-64199144D02*
G01*
X127182249Y-64242407D01*
X127235863Y-64349634D01*
X127235863Y-64516707D01*
X127182249Y-64623934D01*
X127133769Y-64672414D01*
X127026542Y-64726028D01*
X126578720Y-64726028D01*
X126578720Y-64140314D01*
X126962493Y-64140314D01*
X127138986Y-64199144D01*
G37*
G36*
X127062341Y-63479642D02*
G01*
X127110819Y-63528119D01*
X127164435Y-63635349D01*
X127164435Y-63730992D01*
X127110819Y-63838222D01*
X127062341Y-63886699D01*
X126955113Y-63940314D01*
X126578720Y-63940314D01*
X126578720Y-63426028D01*
X126955113Y-63426028D01*
X127062341Y-63479642D01*
G37*
G36*
X127602530Y-65092695D02*
G01*
X123212053Y-65092695D01*
X123212053Y-63326028D01*
X123378720Y-63326028D01*
X123378720Y-64540314D01*
X123380641Y-64559823D01*
X123382016Y-64563143D01*
X123382271Y-64566727D01*
X123389277Y-64585036D01*
X123460706Y-64727892D01*
X123465992Y-64736290D01*
X123467002Y-64738728D01*
X123469253Y-64741471D01*
X123471149Y-64744483D01*
X123473146Y-64746215D01*
X123479438Y-64753882D01*
X123550867Y-64825311D01*
X123558537Y-64831605D01*
X123560267Y-64833600D01*
X123563274Y-64835493D01*
X123566021Y-64837747D01*
X123568460Y-64838757D01*
X123576857Y-64844043D01*
X123719714Y-64915471D01*
X123738023Y-64922477D01*
X123741605Y-64922731D01*
X123744926Y-64924107D01*
X123764435Y-64926028D01*
X124050149Y-64926028D01*
X124069658Y-64924107D01*
X124072978Y-64922731D01*
X124076562Y-64922477D01*
X124094870Y-64915471D01*
X124237727Y-64844043D01*
X124246125Y-64838756D01*
X124248563Y-64837747D01*
X124251306Y-64835495D01*
X124254318Y-64833600D01*
X124256050Y-64831602D01*
X124263717Y-64825311D01*
X124335146Y-64753882D01*
X124341440Y-64746211D01*
X124343435Y-64744482D01*
X124345328Y-64741474D01*
X124347582Y-64738728D01*
X124348592Y-64736288D01*
X124353878Y-64727892D01*
X124425306Y-64585035D01*
X124432312Y-64566726D01*
X124432566Y-64563143D01*
X124433942Y-64559823D01*
X124435863Y-64540314D01*
X124435863Y-63611742D01*
X124878721Y-63611742D01*
X124878721Y-63754600D01*
X124880642Y-63774109D01*
X124882017Y-63777429D01*
X124882272Y-63781013D01*
X124889278Y-63799321D01*
X124960706Y-63942178D01*
X124965991Y-63950574D01*
X124967002Y-63953015D01*
X124969255Y-63955760D01*
X124971149Y-63958769D01*
X124973146Y-63960501D01*
X124979439Y-63968168D01*
X125050868Y-64039596D01*
X125058534Y-64045888D01*
X125060266Y-64047885D01*
X125063274Y-64049778D01*
X125066021Y-64052033D01*
X125068461Y-64053043D01*
X125076856Y-64058328D01*
X125219713Y-64129757D01*
X125221141Y-64130303D01*
X125221721Y-64130733D01*
X125229881Y-64133648D01*
X125238022Y-64136763D01*
X125238744Y-64136814D01*
X125240182Y-64137328D01*
X125515245Y-64206093D01*
X125633771Y-64265356D01*
X125682248Y-64313833D01*
X125735864Y-64421064D01*
X125735864Y-64516706D01*
X125682248Y-64623937D01*
X125633771Y-64672413D01*
X125526542Y-64726028D01*
X125209233Y-64726028D01*
X125010344Y-64659732D01*
X124991228Y-64655385D01*
X124952308Y-64658151D01*
X124917409Y-64675601D01*
X124891844Y-64705077D01*
X124879506Y-64742093D01*
X124882272Y-64781013D01*
X124899722Y-64815912D01*
X124929198Y-64841477D01*
X124947098Y-64849468D01*
X125161384Y-64920896D01*
X125171055Y-64923095D01*
X125173498Y-64924107D01*
X125177036Y-64924455D01*
X125180500Y-64925243D01*
X125183133Y-64925055D01*
X125193007Y-64926028D01*
X125550149Y-64926028D01*
X125569658Y-64924107D01*
X125572978Y-64922731D01*
X125576561Y-64922477D01*
X125594870Y-64915471D01*
X125737728Y-64844043D01*
X125746124Y-64838757D01*
X125748565Y-64837747D01*
X125751310Y-64835493D01*
X125754319Y-64833600D01*
X125756051Y-64831602D01*
X125763718Y-64825310D01*
X125835146Y-64753881D01*
X125841438Y-64746214D01*
X125843435Y-64744483D01*
X125845328Y-64741474D01*
X125847583Y-64738728D01*
X125848593Y-64736287D01*
X125853878Y-64727893D01*
X125925307Y-64585036D01*
X125932313Y-64566727D01*
X125932567Y-64563143D01*
X125933943Y-64559823D01*
X125935864Y-64540314D01*
X125935864Y-64397457D01*
X125933943Y-64377948D01*
X125932567Y-64374627D01*
X125932313Y-64371044D01*
X125925307Y-64352735D01*
X125853878Y-64209878D01*
X125848593Y-64201483D01*
X125847583Y-64199043D01*
X125845328Y-64196296D01*
X125843435Y-64193288D01*
X125841438Y-64191556D01*
X125835146Y-64183890D01*
X125763718Y-64112461D01*
X125756051Y-64106168D01*
X125754319Y-64104171D01*
X125751310Y-64102277D01*
X125748565Y-64100024D01*
X125746124Y-64099013D01*
X125737728Y-64093728D01*
X125594870Y-64022299D01*
X125593443Y-64021753D01*
X125592863Y-64021323D01*
X125584686Y-64018401D01*
X125576562Y-64015293D01*
X125575839Y-64015241D01*
X125574402Y-64014728D01*
X125299340Y-63945963D01*
X125180811Y-63886698D01*
X125132334Y-63838221D01*
X125078721Y-63730993D01*
X125078721Y-63635348D01*
X125132334Y-63528120D01*
X125180811Y-63479643D01*
X125288042Y-63426028D01*
X125605351Y-63426028D01*
X125804241Y-63492325D01*
X125823356Y-63496672D01*
X125862276Y-63493906D01*
X125897175Y-63476456D01*
X125922740Y-63446980D01*
X125935079Y-63409964D01*
X125932313Y-63371044D01*
X125914863Y-63336145D01*
X125903198Y-63326028D01*
X126378720Y-63326028D01*
X126378720Y-64826028D01*
X126380641Y-64845537D01*
X126395573Y-64881585D01*
X126423163Y-64909175D01*
X126459211Y-64924107D01*
X126478720Y-64926028D01*
X127050149Y-64926028D01*
X127069658Y-64924107D01*
X127072978Y-64922731D01*
X127076562Y-64922477D01*
X127094870Y-64915471D01*
X127237727Y-64844043D01*
X127246125Y-64838756D01*
X127248563Y-64837747D01*
X127251306Y-64835495D01*
X127254318Y-64833600D01*
X127256050Y-64831602D01*
X127263717Y-64825311D01*
X127335146Y-64753882D01*
X127341440Y-64746211D01*
X127343435Y-64744482D01*
X127345328Y-64741474D01*
X127347582Y-64738728D01*
X127348592Y-64736288D01*
X127353878Y-64727892D01*
X127425306Y-64585035D01*
X127432312Y-64566726D01*
X127432566Y-64563143D01*
X127433942Y-64559823D01*
X127435863Y-64540314D01*
X127435863Y-64326028D01*
X127433942Y-64306519D01*
X127432566Y-64303198D01*
X127432312Y-64299616D01*
X127425306Y-64281307D01*
X127353878Y-64138450D01*
X127348592Y-64130053D01*
X127347582Y-64127614D01*
X127345328Y-64124867D01*
X127343435Y-64121860D01*
X127341440Y-64120130D01*
X127335146Y-64112460D01*
X127263717Y-64041031D01*
X127248563Y-64028595D01*
X127245244Y-64027220D01*
X127242529Y-64024865D01*
X127224628Y-64016874D01*
X127217414Y-64014469D01*
X127263716Y-63968168D01*
X127270008Y-63960501D01*
X127272006Y-63958769D01*
X127273900Y-63955759D01*
X127276153Y-63953015D01*
X127277163Y-63950576D01*
X127282449Y-63942179D01*
X127353878Y-63799322D01*
X127360884Y-63781013D01*
X127361138Y-63777429D01*
X127362514Y-63774109D01*
X127364435Y-63754600D01*
X127364435Y-63611742D01*
X127362514Y-63592233D01*
X127361138Y-63588912D01*
X127360884Y-63585329D01*
X127353878Y-63567020D01*
X127282449Y-63424163D01*
X127277163Y-63415765D01*
X127276153Y-63413327D01*
X127273900Y-63410582D01*
X127272006Y-63407573D01*
X127270008Y-63405840D01*
X127263716Y-63398174D01*
X127192289Y-63326746D01*
X127184622Y-63320454D01*
X127182890Y-63318457D01*
X127179878Y-63316561D01*
X127177135Y-63314310D01*
X127174697Y-63313300D01*
X127166299Y-63308014D01*
X127023441Y-63236585D01*
X127005133Y-63229579D01*
X127001549Y-63229324D01*
X126998229Y-63227949D01*
X126978720Y-63226028D01*
X126478720Y-63226028D01*
X126459211Y-63227949D01*
X126423163Y-63242881D01*
X126395573Y-63270471D01*
X126380641Y-63306519D01*
X126378720Y-63326028D01*
X125903198Y-63326028D01*
X125885387Y-63310580D01*
X125867487Y-63302589D01*
X125653201Y-63231160D01*
X125643528Y-63228960D01*
X125641087Y-63227949D01*
X125637549Y-63227600D01*
X125634086Y-63226813D01*
X125631451Y-63227000D01*
X125621578Y-63226028D01*
X125264435Y-63226028D01*
X125244926Y-63227949D01*
X125241605Y-63229324D01*
X125238022Y-63229579D01*
X125219713Y-63236585D01*
X125076856Y-63308014D01*
X125068461Y-63313298D01*
X125066021Y-63314309D01*
X125063274Y-63316563D01*
X125060266Y-63318457D01*
X125058534Y-63320453D01*
X125050868Y-63326746D01*
X124979439Y-63398174D01*
X124973146Y-63405840D01*
X124971149Y-63407573D01*
X124969255Y-63410581D01*
X124967002Y-63413327D01*
X124965991Y-63415767D01*
X124960706Y-63424164D01*
X124889278Y-63567021D01*
X124882272Y-63585329D01*
X124882017Y-63588912D01*
X124880642Y-63592233D01*
X124878721Y-63611742D01*
X124435863Y-63611742D01*
X124435863Y-63326028D01*
X124433942Y-63306519D01*
X124419010Y-63270471D01*
X124391420Y-63242881D01*
X124355372Y-63227949D01*
X124316354Y-63227949D01*
X124280306Y-63242881D01*
X124252716Y-63270471D01*
X124237784Y-63306519D01*
X124235863Y-63326028D01*
X124235863Y-64516707D01*
X124182249Y-64623934D01*
X124133769Y-64672414D01*
X124026542Y-64726028D01*
X123788042Y-64726028D01*
X123680814Y-64672414D01*
X123632334Y-64623934D01*
X123578720Y-64516705D01*
X123578720Y-63326028D01*
X123576799Y-63306519D01*
X123561867Y-63270471D01*
X123534277Y-63242881D01*
X123498229Y-63227949D01*
X123459211Y-63227949D01*
X123423163Y-63242881D01*
X123395573Y-63270471D01*
X123380641Y-63306519D01*
X123378720Y-63326028D01*
X123212053Y-63326028D01*
X123212053Y-63059361D01*
X127602530Y-63059361D01*
X127602530Y-65092695D01*
G37*
G36*
X98138986Y-30709859D02*
G01*
X98253676Y-30824548D01*
X98312941Y-30943076D01*
X98378720Y-31206193D01*
X98378720Y-31395862D01*
X98312941Y-31658979D01*
X98253676Y-31777507D01*
X98138987Y-31892196D01*
X97962493Y-31951028D01*
X97721577Y-31951028D01*
X97721577Y-30651028D01*
X97962493Y-30651028D01*
X98138986Y-30709859D01*
G37*
G36*
X98745387Y-32317695D02*
G01*
X94140625Y-32317695D01*
X94140625Y-30836742D01*
X94307292Y-30836742D01*
X94307292Y-30979600D01*
X94309213Y-30999109D01*
X94310588Y-31002429D01*
X94310843Y-31006013D01*
X94317849Y-31024321D01*
X94389277Y-31167178D01*
X94394562Y-31175574D01*
X94395573Y-31178015D01*
X94397826Y-31180760D01*
X94399720Y-31183769D01*
X94401717Y-31185501D01*
X94408010Y-31193168D01*
X94479439Y-31264596D01*
X94487105Y-31270888D01*
X94488837Y-31272885D01*
X94491845Y-31274778D01*
X94494592Y-31277033D01*
X94497032Y-31278043D01*
X94505427Y-31283328D01*
X94648284Y-31354757D01*
X94649712Y-31355303D01*
X94650292Y-31355733D01*
X94658452Y-31358648D01*
X94666593Y-31361763D01*
X94667315Y-31361814D01*
X94668753Y-31362328D01*
X94943816Y-31431093D01*
X95062342Y-31490356D01*
X95110819Y-31538833D01*
X95164435Y-31646064D01*
X95164435Y-31741706D01*
X95110819Y-31848937D01*
X95062342Y-31897413D01*
X94955113Y-31951028D01*
X94637804Y-31951028D01*
X94438915Y-31884732D01*
X94419799Y-31880385D01*
X94380879Y-31883151D01*
X94345980Y-31900601D01*
X94320415Y-31930077D01*
X94308077Y-31967093D01*
X94310843Y-32006013D01*
X94328293Y-32040912D01*
X94357769Y-32066477D01*
X94375669Y-32074468D01*
X94589955Y-32145896D01*
X94599626Y-32148095D01*
X94602069Y-32149107D01*
X94605607Y-32149455D01*
X94609071Y-32150243D01*
X94611704Y-32150055D01*
X94621578Y-32151028D01*
X94978720Y-32151028D01*
X94998229Y-32149107D01*
X95001549Y-32147731D01*
X95005132Y-32147477D01*
X95023441Y-32140471D01*
X95166299Y-32069043D01*
X95174695Y-32063757D01*
X95177136Y-32062747D01*
X95179881Y-32060493D01*
X95182890Y-32058600D01*
X95184622Y-32056602D01*
X95192289Y-32050310D01*
X95263717Y-31978881D01*
X95270009Y-31971214D01*
X95272006Y-31969483D01*
X95273899Y-31966474D01*
X95276154Y-31963728D01*
X95277164Y-31961287D01*
X95282449Y-31952893D01*
X95353878Y-31810036D01*
X95360884Y-31791727D01*
X95361138Y-31788143D01*
X95362514Y-31784823D01*
X95364435Y-31765314D01*
X95364435Y-31622457D01*
X95362514Y-31602948D01*
X95361138Y-31599627D01*
X95360884Y-31596044D01*
X95353878Y-31577735D01*
X95282449Y-31434878D01*
X95277164Y-31426483D01*
X95276154Y-31424043D01*
X95273899Y-31421296D01*
X95272006Y-31418288D01*
X95270009Y-31416556D01*
X95263717Y-31408890D01*
X95192289Y-31337461D01*
X95184622Y-31331168D01*
X95182890Y-31329171D01*
X95179881Y-31327277D01*
X95177136Y-31325024D01*
X95174695Y-31324013D01*
X95166299Y-31318728D01*
X95023441Y-31247299D01*
X95022014Y-31246753D01*
X95021434Y-31246323D01*
X95013257Y-31243401D01*
X95005133Y-31240293D01*
X95004410Y-31240241D01*
X95002973Y-31239728D01*
X94727911Y-31170963D01*
X94609382Y-31111698D01*
X94560905Y-31063221D01*
X94507292Y-30955993D01*
X94507292Y-30860348D01*
X94560905Y-30753120D01*
X94609382Y-30704643D01*
X94716613Y-30651028D01*
X95033922Y-30651028D01*
X95232812Y-30717325D01*
X95251927Y-30721672D01*
X95290847Y-30718906D01*
X95325746Y-30701456D01*
X95351311Y-30671980D01*
X95363650Y-30634964D01*
X95360884Y-30596044D01*
X95343434Y-30561145D01*
X95336080Y-30554767D01*
X95664503Y-30554767D01*
X95667153Y-30574190D01*
X96024296Y-32074190D01*
X96026604Y-32080887D01*
X96026923Y-32083285D01*
X96028177Y-32085452D01*
X96030684Y-32092724D01*
X96039199Y-32104490D01*
X96046472Y-32117053D01*
X96050549Y-32120173D01*
X96053559Y-32124333D01*
X96065921Y-32131940D01*
X96077455Y-32140769D01*
X96082418Y-32142092D01*
X96086789Y-32144782D01*
X96101123Y-32147080D01*
X96115156Y-32150822D01*
X96120244Y-32150145D01*
X96125316Y-32150959D01*
X96139450Y-32147593D01*
X96153834Y-32145682D01*
X96158274Y-32143111D01*
X96163273Y-32141921D01*
X96175039Y-32133405D01*
X96187602Y-32126133D01*
X96190722Y-32122055D01*
X96194882Y-32119046D01*
X96202489Y-32106683D01*
X96211318Y-32095150D01*
X96214016Y-32087951D01*
X96215331Y-32085816D01*
X96215714Y-32083422D01*
X96218200Y-32076794D01*
X96407291Y-31367702D01*
X96596382Y-32076794D01*
X96598868Y-32083425D01*
X96599252Y-32085816D01*
X96600565Y-32087950D01*
X96603265Y-32095149D01*
X96612091Y-32106680D01*
X96619701Y-32119046D01*
X96623860Y-32122056D01*
X96626981Y-32126133D01*
X96639543Y-32133405D01*
X96651310Y-32141921D01*
X96656308Y-32143111D01*
X96660749Y-32145682D01*
X96675132Y-32147593D01*
X96689267Y-32150959D01*
X96694338Y-32150145D01*
X96699427Y-32150822D01*
X96713455Y-32147080D01*
X96727794Y-32144782D01*
X96732166Y-32142091D01*
X96737128Y-32140768D01*
X96748655Y-32131944D01*
X96761024Y-32124333D01*
X96764035Y-32120171D01*
X96768111Y-32117052D01*
X96775381Y-32104493D01*
X96783899Y-32092724D01*
X96786405Y-32085452D01*
X96787660Y-32083285D01*
X96787978Y-32080887D01*
X96790287Y-32074190D01*
X97147430Y-30574190D01*
X97150080Y-30554767D01*
X97149481Y-30551028D01*
X97521577Y-30551028D01*
X97521577Y-32051028D01*
X97523498Y-32070537D01*
X97538430Y-32106585D01*
X97566020Y-32134175D01*
X97602068Y-32149107D01*
X97621577Y-32151028D01*
X97978720Y-32151028D01*
X97988593Y-32150055D01*
X97991227Y-32150243D01*
X97994690Y-32149455D01*
X97998229Y-32149107D01*
X98000671Y-32148095D01*
X98010343Y-32145896D01*
X98224628Y-32074468D01*
X98242529Y-32066477D01*
X98245244Y-32064121D01*
X98248564Y-32062747D01*
X98263717Y-32050310D01*
X98406574Y-31907452D01*
X98412864Y-31899787D01*
X98414863Y-31898054D01*
X98416759Y-31895041D01*
X98419010Y-31892299D01*
X98420019Y-31889862D01*
X98425306Y-31881464D01*
X98496735Y-31738607D01*
X98497281Y-31737178D01*
X98497711Y-31736599D01*
X98500629Y-31728428D01*
X98503741Y-31720298D01*
X98503792Y-31719575D01*
X98504306Y-31718138D01*
X98575734Y-31432425D01*
X98576234Y-31429043D01*
X98576799Y-31427680D01*
X98577522Y-31420329D01*
X98578602Y-31413032D01*
X98578384Y-31411573D01*
X98578720Y-31408171D01*
X98578720Y-31193885D01*
X98578384Y-31190482D01*
X98578602Y-31189024D01*
X98577522Y-31181726D01*
X98576799Y-31174376D01*
X98576234Y-31173012D01*
X98575734Y-31169631D01*
X98504306Y-30883918D01*
X98503792Y-30882480D01*
X98503741Y-30881758D01*
X98500629Y-30873627D01*
X98497711Y-30865457D01*
X98497281Y-30864877D01*
X98496735Y-30863449D01*
X98425306Y-30720592D01*
X98420020Y-30712194D01*
X98419010Y-30709756D01*
X98416757Y-30707011D01*
X98414863Y-30704002D01*
X98412865Y-30702269D01*
X98406573Y-30694603D01*
X98263717Y-30551746D01*
X98248563Y-30539310D01*
X98245244Y-30537935D01*
X98242529Y-30535580D01*
X98224629Y-30527589D01*
X98010343Y-30456160D01*
X98000670Y-30453960D01*
X97998229Y-30452949D01*
X97994691Y-30452600D01*
X97991228Y-30451813D01*
X97988593Y-30452000D01*
X97978720Y-30451028D01*
X97621577Y-30451028D01*
X97602068Y-30452949D01*
X97566020Y-30467881D01*
X97538430Y-30495471D01*
X97523498Y-30531519D01*
X97521577Y-30551028D01*
X97149481Y-30551028D01*
X97143903Y-30516240D01*
X97123454Y-30483010D01*
X97091845Y-30460135D01*
X97053888Y-30451097D01*
X97015361Y-30457274D01*
X96982131Y-30477723D01*
X96959256Y-30509332D01*
X96952868Y-30527866D01*
X96687516Y-31642341D01*
X96503914Y-30953834D01*
X96502200Y-30949262D01*
X96501945Y-30947343D01*
X96500626Y-30945065D01*
X96497032Y-30935478D01*
X96489005Y-30924992D01*
X96482396Y-30913575D01*
X96477252Y-30909638D01*
X96473316Y-30904495D01*
X96461896Y-30897883D01*
X96451413Y-30889859D01*
X96445152Y-30888189D01*
X96439548Y-30884945D01*
X96426465Y-30883206D01*
X96413712Y-30879806D01*
X96407291Y-30880659D01*
X96400870Y-30879806D01*
X96388116Y-30883206D01*
X96375034Y-30884945D01*
X96369429Y-30888189D01*
X96363169Y-30889859D01*
X96352685Y-30897883D01*
X96341266Y-30904495D01*
X96337329Y-30909638D01*
X96332186Y-30913575D01*
X96325574Y-30924994D01*
X96317550Y-30935478D01*
X96313957Y-30945061D01*
X96312636Y-30947343D01*
X96312380Y-30949266D01*
X96310668Y-30953834D01*
X96127066Y-31642340D01*
X95861715Y-30527866D01*
X95855327Y-30509332D01*
X95832452Y-30477723D01*
X95799222Y-30457274D01*
X95760695Y-30451097D01*
X95722738Y-30460135D01*
X95691129Y-30483010D01*
X95670680Y-30516240D01*
X95664503Y-30554767D01*
X95336080Y-30554767D01*
X95313958Y-30535580D01*
X95296058Y-30527589D01*
X95081772Y-30456160D01*
X95072099Y-30453960D01*
X95069658Y-30452949D01*
X95066120Y-30452600D01*
X95062657Y-30451813D01*
X95060022Y-30452000D01*
X95050149Y-30451028D01*
X94693006Y-30451028D01*
X94673497Y-30452949D01*
X94670176Y-30454324D01*
X94666593Y-30454579D01*
X94648284Y-30461585D01*
X94505427Y-30533014D01*
X94497032Y-30538298D01*
X94494592Y-30539309D01*
X94491845Y-30541563D01*
X94488837Y-30543457D01*
X94487105Y-30545453D01*
X94479439Y-30551746D01*
X94408010Y-30623174D01*
X94401717Y-30630840D01*
X94399720Y-30632573D01*
X94397826Y-30635581D01*
X94395573Y-30638327D01*
X94394562Y-30640767D01*
X94389277Y-30649164D01*
X94317849Y-30792021D01*
X94310843Y-30810329D01*
X94310588Y-30813912D01*
X94309213Y-30817233D01*
X94307292Y-30836742D01*
X94140625Y-30836742D01*
X94140625Y-30284361D01*
X98745387Y-30284361D01*
X98745387Y-32317695D01*
G37*
D11*
%TO.C,G\u002A\u002A\u002A*%
G36*
X68180785Y-45921223D02*
G01*
X68149271Y-45952737D01*
X68117757Y-45921223D01*
X68149271Y-45889710D01*
X68180785Y-45921223D01*
G37*
G36*
X64210065Y-45921223D02*
G01*
X64178551Y-45952737D01*
X64147038Y-45921223D01*
X64178551Y-45889710D01*
X64210065Y-45921223D01*
G37*
G36*
X66920239Y-51679511D02*
G01*
X66872343Y-51765758D01*
X66752993Y-51885929D01*
X66598695Y-52008876D01*
X66445956Y-52103453D01*
X66398810Y-52124395D01*
X66277323Y-52189596D01*
X66251061Y-52284934D01*
X66265689Y-52364757D01*
X66344463Y-52575604D01*
X66461905Y-52679478D01*
X66565549Y-52697623D01*
X66653096Y-52707717D01*
X66625165Y-52746235D01*
X66605102Y-52759685D01*
X66491462Y-52794054D01*
X66302106Y-52816217D01*
X66163911Y-52820782D01*
X65952419Y-52810126D01*
X65784385Y-52782797D01*
X65722720Y-52759685D01*
X65671328Y-52713049D01*
X65733288Y-52698173D01*
X65762273Y-52697623D01*
X65912805Y-52653923D01*
X66014841Y-52514162D01*
X66062133Y-52364757D01*
X66074346Y-52232654D01*
X66006523Y-52158113D01*
X65929012Y-52124395D01*
X65785657Y-52047467D01*
X65627728Y-51931062D01*
X65491730Y-51806328D01*
X65414170Y-51704413D01*
X65407584Y-51679511D01*
X65458303Y-51674423D01*
X65587295Y-51715626D01*
X65675450Y-51752946D01*
X66032341Y-51859843D01*
X66380120Y-51845124D01*
X66652373Y-51752946D01*
X66808743Y-51691084D01*
X66905247Y-51670468D01*
X66920239Y-51679511D01*
G37*
G36*
X69094122Y-45609881D02*
G01*
X69417947Y-45689536D01*
X69754633Y-45830919D01*
X70058769Y-46011042D01*
X70284944Y-46206915D01*
X70293860Y-46217264D01*
X70421562Y-46395126D01*
X70558613Y-46626058D01*
X70633166Y-46772092D01*
X70698828Y-46920450D01*
X70744112Y-47056898D01*
X70772764Y-47209648D01*
X70788532Y-47406911D01*
X70795164Y-47676898D01*
X70796417Y-48001124D01*
X70795019Y-48356850D01*
X70788060Y-48615589D01*
X70771391Y-48806402D01*
X70740866Y-48958350D01*
X70692337Y-49100493D01*
X70621656Y-49261891D01*
X70614151Y-49278170D01*
X70382865Y-49668882D01*
X70100065Y-49962836D01*
X69777772Y-50151826D01*
X69428012Y-50227648D01*
X69235283Y-50219100D01*
X68953938Y-50134087D01*
X68765921Y-49965397D01*
X68668939Y-49710263D01*
X68653489Y-49516969D01*
X68654574Y-49503941D01*
X68780913Y-49503941D01*
X68830559Y-49730844D01*
X68957816Y-49898632D01*
X69171036Y-50020189D01*
X69417589Y-50037072D01*
X69714770Y-49949690D01*
X69785259Y-49918118D01*
X69994739Y-49789596D01*
X70182058Y-49626313D01*
X70228666Y-49571868D01*
X70367093Y-49363558D01*
X70494209Y-49126792D01*
X70590417Y-48902800D01*
X70636121Y-48732809D01*
X70637465Y-48711800D01*
X70583442Y-48604244D01*
X70448240Y-48507342D01*
X70276184Y-48443490D01*
X70111602Y-48435084D01*
X70096329Y-48438387D01*
X69968656Y-48497029D01*
X69964145Y-48581002D01*
X70040090Y-48662911D01*
X70128191Y-48803550D01*
X70112899Y-48958336D01*
X70001098Y-49080347D01*
X69977062Y-49092634D01*
X69861035Y-49168394D01*
X69819494Y-49234832D01*
X69785473Y-49329540D01*
X69702037Y-49469719D01*
X69686664Y-49491781D01*
X69566687Y-49622115D01*
X69432333Y-49662360D01*
X69355771Y-49659079D01*
X69211985Y-49625123D01*
X69150357Y-49535938D01*
X69137131Y-49459945D01*
X69145661Y-49397493D01*
X69252249Y-49397493D01*
X69296826Y-49468830D01*
X69398433Y-49476465D01*
X69508883Y-49426117D01*
X69565167Y-49360354D01*
X69625580Y-49200300D01*
X69600137Y-49114955D01*
X69556591Y-49104102D01*
X69440966Y-49150923D01*
X69323096Y-49257782D01*
X69255272Y-49374270D01*
X69252249Y-49397493D01*
X69145661Y-49397493D01*
X69166470Y-49245142D01*
X69299988Y-49086437D01*
X69523929Y-48995421D01*
X69709048Y-48978047D01*
X69894694Y-48971080D01*
X69982238Y-48943230D01*
X69999196Y-48884076D01*
X69996828Y-48869052D01*
X69916097Y-48751713D01*
X69749387Y-48688057D01*
X69528122Y-48685874D01*
X69383323Y-48716988D01*
X69131823Y-48842166D01*
X68941171Y-49032872D01*
X68820992Y-49262374D01*
X68780913Y-49503941D01*
X68654574Y-49503941D01*
X68676058Y-49246093D01*
X68751442Y-49049074D01*
X68785469Y-48998426D01*
X68948100Y-48833416D01*
X69163129Y-48683258D01*
X69384427Y-48575609D01*
X69553606Y-48537893D01*
X69692869Y-48489605D01*
X69746868Y-48364267D01*
X69710551Y-48201711D01*
X69644008Y-48052704D01*
X69560638Y-47862459D01*
X69545422Y-47827368D01*
X69381001Y-47577122D01*
X69158458Y-47415750D01*
X68904396Y-47350350D01*
X68645414Y-47388019D01*
X68418131Y-47526572D01*
X68212298Y-47713806D01*
X68434258Y-47715654D01*
X68584913Y-47731475D01*
X68798466Y-47771107D01*
X69037920Y-47825467D01*
X69266278Y-47885475D01*
X69446543Y-47942050D01*
X69541717Y-47986112D01*
X69543732Y-47987975D01*
X69539837Y-48062883D01*
X69467266Y-48186090D01*
X69351873Y-48322508D01*
X69219516Y-48437050D01*
X69206174Y-48446060D01*
X69045313Y-48517597D01*
X68826091Y-48575540D01*
X68722301Y-48592251D01*
X68401799Y-48631397D01*
X68421151Y-48855857D01*
X68410442Y-49023847D01*
X68344521Y-49230249D01*
X68213690Y-49504137D01*
X68189836Y-49549157D01*
X67966216Y-50016164D01*
X67824645Y-50440992D01*
X67753582Y-50865899D01*
X67739593Y-51197466D01*
X67730874Y-51485458D01*
X67696636Y-51723770D01*
X67624760Y-51947871D01*
X67503123Y-52193229D01*
X67319607Y-52495311D01*
X67269385Y-52573430D01*
X67090945Y-52829011D01*
X66935824Y-52998191D01*
X66775918Y-53109659D01*
X66714383Y-53140001D01*
X66331714Y-53246181D01*
X65927645Y-53232309D01*
X65691206Y-53169177D01*
X65524094Y-53094770D01*
X65377245Y-52987625D01*
X65231346Y-52826902D01*
X65067084Y-52591760D01*
X64892134Y-52306942D01*
X64795175Y-52139376D01*
X65165525Y-52139376D01*
X65187866Y-52301030D01*
X65255205Y-52449134D01*
X65311905Y-52539089D01*
X65557524Y-52825908D01*
X65837204Y-53008702D01*
X66134164Y-53082474D01*
X66431622Y-53042224D01*
X66642938Y-52935584D01*
X66806517Y-52792908D01*
X66969884Y-52604455D01*
X67014400Y-52541663D01*
X67110651Y-52377575D01*
X67155382Y-52229778D01*
X67160637Y-52042692D01*
X67151554Y-51908816D01*
X67119885Y-51695676D01*
X67057451Y-51403278D01*
X66973607Y-51071866D01*
X66887827Y-50774325D01*
X66715353Y-50197635D01*
X66672154Y-50038978D01*
X67055478Y-50038978D01*
X67058697Y-50321158D01*
X67078859Y-50638745D01*
X67112936Y-50947473D01*
X67157898Y-51203078D01*
X67168749Y-51247030D01*
X67224204Y-51457435D01*
X67285913Y-51693594D01*
X67296797Y-51735491D01*
X67358959Y-51925084D01*
X67420342Y-51993280D01*
X67489209Y-51944414D01*
X67537139Y-51861546D01*
X67564735Y-51747636D01*
X67590226Y-51535836D01*
X67611097Y-51254311D01*
X67624831Y-50931227D01*
X67626574Y-50860692D01*
X67645052Y-50001650D01*
X67912919Y-49490172D01*
X68054377Y-49214150D01*
X68138678Y-49030046D01*
X68170862Y-48920139D01*
X68155972Y-48866707D01*
X68099050Y-48852028D01*
X68094490Y-48851993D01*
X68026047Y-48909165D01*
X67975287Y-49057273D01*
X67970932Y-49081626D01*
X67877791Y-49353343D01*
X67704549Y-49529185D01*
X67455478Y-49605314D01*
X67384813Y-49608320D01*
X67214326Y-49615376D01*
X67128814Y-49656501D01*
X67087265Y-49761629D01*
X67072231Y-49836471D01*
X67055478Y-50038978D01*
X66672154Y-50038978D01*
X66583972Y-49715113D01*
X66489918Y-49303126D01*
X66429428Y-48938038D01*
X66398735Y-48596217D01*
X66394074Y-48254026D01*
X66408110Y-47962076D01*
X66578640Y-47962076D01*
X66583887Y-48264855D01*
X66601001Y-48608272D01*
X66627360Y-48952159D01*
X66660344Y-49256349D01*
X66697329Y-49480677D01*
X66703057Y-49504942D01*
X66756027Y-49628897D01*
X66815562Y-49670246D01*
X66853921Y-49616597D01*
X66857211Y-49573805D01*
X66899376Y-49482152D01*
X66937730Y-49431602D01*
X67235375Y-49431602D01*
X67284045Y-49478020D01*
X67401389Y-49471570D01*
X67544406Y-49417856D01*
X67599515Y-49384151D01*
X67680768Y-49287876D01*
X67732899Y-49158330D01*
X67745286Y-49040540D01*
X67707306Y-48979533D01*
X67695324Y-48978047D01*
X67622785Y-49019916D01*
X67504521Y-49121850D01*
X67376537Y-49248343D01*
X67274843Y-49363886D01*
X67235375Y-49431602D01*
X66937730Y-49431602D01*
X67009771Y-49336654D01*
X67160129Y-49173345D01*
X67381300Y-48976592D01*
X67588076Y-48856579D01*
X67792494Y-48791395D01*
X67988295Y-48735045D01*
X68080772Y-48679300D01*
X68091876Y-48610751D01*
X68091329Y-48608852D01*
X68053525Y-48469243D01*
X68019791Y-48333669D01*
X67961775Y-48207810D01*
X67897618Y-48172640D01*
X68197687Y-48172640D01*
X68239709Y-48305469D01*
X68298408Y-48413628D01*
X68393375Y-48462307D01*
X68568651Y-48473730D01*
X68573145Y-48473731D01*
X68806170Y-48446075D01*
X69031091Y-48378170D01*
X69062982Y-48363433D01*
X69244993Y-48244720D01*
X69303245Y-48135662D01*
X69237726Y-48041069D01*
X69063813Y-47969785D01*
X68829467Y-47929592D01*
X68570117Y-47916666D01*
X68508943Y-47919022D01*
X68299817Y-47952260D01*
X68200594Y-48030298D01*
X68197687Y-48172640D01*
X67897618Y-48172640D01*
X67839136Y-48140581D01*
X67748932Y-48120185D01*
X67390340Y-48013673D01*
X67063561Y-47841015D01*
X66813756Y-47626438D01*
X66801488Y-47611895D01*
X66623409Y-47395854D01*
X66587880Y-47740100D01*
X66578640Y-47962076D01*
X66408110Y-47962076D01*
X66411679Y-47887834D01*
X66416871Y-47818204D01*
X66440011Y-47515989D01*
X66459176Y-47256652D01*
X66472376Y-47067780D01*
X66477617Y-46976959D01*
X66477617Y-46976931D01*
X66418747Y-46923068D01*
X66238870Y-46899402D01*
X66163911Y-46898146D01*
X65948730Y-46913108D01*
X65854886Y-46958185D01*
X65850205Y-46976931D01*
X65855438Y-47067655D01*
X65868632Y-47256454D01*
X65887793Y-47515741D01*
X65910929Y-47817931D01*
X65910951Y-47818204D01*
X65932132Y-48191160D01*
X65931717Y-48535899D01*
X65905943Y-48876055D01*
X65851042Y-49235262D01*
X65763250Y-49637154D01*
X65638801Y-50105365D01*
X65473931Y-50663530D01*
X65439995Y-50774325D01*
X65344901Y-51106486D01*
X65262823Y-51435748D01*
X65203114Y-51721868D01*
X65176268Y-51908816D01*
X65165525Y-52139376D01*
X64795175Y-52139376D01*
X64774030Y-52102833D01*
X64695063Y-51940493D01*
X64645227Y-51782851D01*
X64614519Y-51592842D01*
X64592936Y-51333397D01*
X64581922Y-51157477D01*
X64546102Y-50734618D01*
X64487628Y-50391157D01*
X64393377Y-50080799D01*
X64250222Y-49757248D01*
X64108951Y-49489129D01*
X63975087Y-49216814D01*
X63912338Y-49007081D01*
X63908726Y-48915596D01*
X64156581Y-48915596D01*
X64185851Y-49021682D01*
X64266939Y-49200920D01*
X64404888Y-49471032D01*
X64414904Y-49490172D01*
X64682770Y-50001650D01*
X64701248Y-50860692D01*
X64718979Y-51283606D01*
X64750605Y-51615970D01*
X64793856Y-51851768D01*
X64846464Y-51984982D01*
X64906161Y-52009595D01*
X64970680Y-51919591D01*
X65031025Y-51735491D01*
X65090953Y-51505748D01*
X65149682Y-51282475D01*
X65159073Y-51247030D01*
X65205990Y-51008719D01*
X65242675Y-50707719D01*
X65266100Y-50388298D01*
X65273236Y-50094719D01*
X65261055Y-49871249D01*
X65255591Y-49836471D01*
X65220409Y-49693411D01*
X65159438Y-49627619D01*
X65031665Y-49609160D01*
X64943009Y-49608320D01*
X64676356Y-49556722D01*
X64484505Y-49404487D01*
X64371729Y-49155454D01*
X64356891Y-49081626D01*
X64340022Y-49025161D01*
X64587862Y-49025161D01*
X64589981Y-49136617D01*
X64635377Y-49267584D01*
X64714180Y-49373233D01*
X64728307Y-49384151D01*
X64866037Y-49453633D01*
X64998862Y-49481992D01*
X65082567Y-49462691D01*
X65092447Y-49437996D01*
X65050578Y-49365458D01*
X64948644Y-49247193D01*
X64822151Y-49119209D01*
X64706609Y-49017515D01*
X64638892Y-48978047D01*
X64587862Y-49025161D01*
X64340022Y-49025161D01*
X64309856Y-48924184D01*
X64242658Y-48853066D01*
X64233332Y-48851993D01*
X64174089Y-48864940D01*
X64156581Y-48915596D01*
X63908726Y-48915596D01*
X63906463Y-48858279D01*
X63926023Y-48631397D01*
X63741431Y-48608852D01*
X64236493Y-48608852D01*
X64245927Y-48677870D01*
X64336211Y-48733764D01*
X64529296Y-48789943D01*
X64535328Y-48791395D01*
X64770469Y-48870255D01*
X64976166Y-48999377D01*
X65167693Y-49173345D01*
X65321381Y-49340611D01*
X65430393Y-49485171D01*
X65470611Y-49573805D01*
X65491934Y-49665272D01*
X65541279Y-49656282D01*
X65596703Y-49562108D01*
X65624740Y-49466509D01*
X65667462Y-49206515D01*
X65703969Y-48874456D01*
X65731421Y-48512959D01*
X65746981Y-48164650D01*
X65747807Y-47872155D01*
X65739811Y-47738827D01*
X65704413Y-47395854D01*
X65526334Y-47611895D01*
X65282971Y-47828324D01*
X64959753Y-48004379D01*
X64601842Y-48115833D01*
X64578890Y-48120185D01*
X64412237Y-48171404D01*
X64329500Y-48266048D01*
X64308031Y-48333669D01*
X64266021Y-48501077D01*
X64236493Y-48608852D01*
X63741431Y-48608852D01*
X63601060Y-48591708D01*
X63386181Y-48551202D01*
X63206517Y-48493012D01*
X63146639Y-48461342D01*
X63018844Y-48351452D01*
X62896938Y-48215374D01*
X62848728Y-48146428D01*
X63024539Y-48146428D01*
X63102107Y-48258606D01*
X63268895Y-48361405D01*
X63488264Y-48438400D01*
X63723577Y-48473168D01*
X63754677Y-48473731D01*
X63931949Y-48462812D01*
X64028057Y-48415068D01*
X64087041Y-48308277D01*
X64088113Y-48305469D01*
X64139371Y-48112109D01*
X64102950Y-47995451D01*
X63965264Y-47935991D01*
X63818879Y-47919022D01*
X63551348Y-47920931D01*
X63312974Y-47956689D01*
X63131089Y-48018469D01*
X63033024Y-48098448D01*
X63024539Y-48146428D01*
X62848728Y-48146428D01*
X62807407Y-48087334D01*
X62776739Y-48001554D01*
X62781941Y-47990125D01*
X62872360Y-47946101D01*
X63049852Y-47889197D01*
X63277373Y-47828560D01*
X63517883Y-47773334D01*
X63734337Y-47732668D01*
X63889695Y-47715706D01*
X63893564Y-47715654D01*
X64115524Y-47713806D01*
X63909691Y-47526572D01*
X63670814Y-47383939D01*
X63411476Y-47351147D01*
X63158276Y-47421100D01*
X62937815Y-47586699D01*
X62782401Y-47827368D01*
X62699568Y-48016990D01*
X62627230Y-48179730D01*
X62617272Y-48201711D01*
X62581774Y-48375694D01*
X62642532Y-48496171D01*
X62774216Y-48537893D01*
X62959365Y-48581815D01*
X63180961Y-48692907D01*
X63392493Y-48843430D01*
X63539022Y-48993964D01*
X63632584Y-49186244D01*
X63669575Y-49451082D01*
X63671002Y-49512385D01*
X63662507Y-49733004D01*
X63621181Y-49878853D01*
X63531222Y-50000059D01*
X63510625Y-50021151D01*
X63291742Y-50163887D01*
X63092539Y-50219100D01*
X62731478Y-50207046D01*
X62393128Y-50077498D01*
X62089769Y-49838585D01*
X61833680Y-49498435D01*
X61742193Y-49325270D01*
X61672858Y-49172791D01*
X61624194Y-49039332D01*
X61592570Y-48897961D01*
X61574351Y-48721751D01*
X61573546Y-48699059D01*
X61701005Y-48699059D01*
X61723223Y-48853634D01*
X61816371Y-49082287D01*
X61841655Y-49135615D01*
X62037047Y-49481392D01*
X62250876Y-49728494D01*
X62507373Y-49904166D01*
X62539842Y-49920599D01*
X62858599Y-50029339D01*
X63136402Y-50024485D01*
X63345857Y-49922689D01*
X63499922Y-49733492D01*
X63552739Y-49508866D01*
X63514573Y-49272160D01*
X63395687Y-49046722D01*
X63206348Y-48855902D01*
X62956817Y-48723047D01*
X62801194Y-48683715D01*
X62596504Y-48683136D01*
X62427026Y-48739222D01*
X62329711Y-48836486D01*
X62319246Y-48885724D01*
X62356499Y-48945164D01*
X62482586Y-48973371D01*
X62623396Y-48978047D01*
X62895705Y-49019921D01*
X63087646Y-49137365D01*
X63184782Y-49318117D01*
X63190691Y-49459945D01*
X63153743Y-49590599D01*
X63055708Y-49646833D01*
X62972051Y-49659079D01*
X62814003Y-49648844D01*
X62694776Y-49560880D01*
X62641158Y-49491781D01*
X62552621Y-49349410D01*
X62509219Y-49244232D01*
X62508328Y-49234832D01*
X62457089Y-49159642D01*
X62436526Y-49146683D01*
X62705837Y-49146683D01*
X62721093Y-49270651D01*
X62762655Y-49360354D01*
X62848979Y-49445033D01*
X62961548Y-49481076D01*
X63051755Y-49461015D01*
X63075574Y-49408444D01*
X63028752Y-49292819D01*
X62921893Y-49174949D01*
X62805405Y-49107125D01*
X62782182Y-49104102D01*
X62705837Y-49146683D01*
X62436526Y-49146683D01*
X62350760Y-49092634D01*
X62222333Y-48979497D01*
X62201969Y-48824506D01*
X62293436Y-48656609D01*
X62293907Y-48656088D01*
X62362690Y-48533968D01*
X62331204Y-48451514D01*
X62221118Y-48416439D01*
X62054102Y-48436456D01*
X61874925Y-48506961D01*
X61751108Y-48592267D01*
X61701005Y-48699059D01*
X61573546Y-48699059D01*
X61565906Y-48483771D01*
X61564247Y-48248505D01*
X61634099Y-48248505D01*
X61640228Y-48406554D01*
X61662425Y-48471525D01*
X61664949Y-48471824D01*
X61753994Y-48435622D01*
X61842831Y-48377283D01*
X61986947Y-48315309D01*
X62178909Y-48285275D01*
X62205238Y-48284747D01*
X62361866Y-48276221D01*
X62429547Y-48231440D01*
X62445168Y-48121598D01*
X62445301Y-48097284D01*
X62412525Y-47940135D01*
X62292480Y-47831705D01*
X62259349Y-47813661D01*
X62071254Y-47744197D01*
X61900093Y-47717501D01*
X61785580Y-47702228D01*
X61789524Y-47654805D01*
X61791497Y-47652794D01*
X61917494Y-47597111D01*
X62114730Y-47579559D01*
X62333410Y-47603043D01*
X62392938Y-47617718D01*
X62527845Y-47632577D01*
X62624816Y-47562903D01*
X62668296Y-47502088D01*
X62736917Y-47364491D01*
X62728373Y-47234731D01*
X62696025Y-47146911D01*
X62550683Y-46948291D01*
X62328626Y-46819296D01*
X62070085Y-46782510D01*
X62049764Y-46784155D01*
X61922478Y-46811150D01*
X61844542Y-46883629D01*
X61783311Y-47036720D01*
X61768099Y-47087228D01*
X61726619Y-47271322D01*
X61690298Y-47508786D01*
X61661315Y-47770331D01*
X61641855Y-48026668D01*
X61634099Y-48248505D01*
X61564247Y-48248505D01*
X61563603Y-48157093D01*
X61563584Y-48001124D01*
X61565470Y-47626543D01*
X61572647Y-47351935D01*
X61588169Y-47151237D01*
X61615091Y-46998386D01*
X61656466Y-46867321D01*
X61711323Y-46740578D01*
X61783935Y-46604716D01*
X62004110Y-46604716D01*
X62058589Y-46634800D01*
X62177435Y-46646273D01*
X62399065Y-46696287D01*
X62631178Y-46825289D01*
X62822227Y-47002530D01*
X62858802Y-47052706D01*
X62977902Y-47185292D01*
X63085436Y-47193265D01*
X63189762Y-47076482D01*
X63206421Y-47046759D01*
X63278421Y-46796988D01*
X63272751Y-46503894D01*
X63198281Y-46213942D01*
X63063881Y-45973598D01*
X62986409Y-45894172D01*
X62928361Y-45865627D01*
X63070416Y-45865627D01*
X63159471Y-45955626D01*
X63342039Y-46173424D01*
X63434660Y-46471869D01*
X63444036Y-46796638D01*
X63437097Y-46999775D01*
X63454882Y-47110790D01*
X63506284Y-47162615D01*
X63546583Y-47176419D01*
X63702722Y-47156469D01*
X63863367Y-47033137D01*
X64012957Y-46827491D01*
X64135932Y-46560596D01*
X64213122Y-46273990D01*
X64238765Y-46144256D01*
X64253156Y-46110289D01*
X64258112Y-46181005D01*
X64255446Y-46365316D01*
X64252766Y-46468724D01*
X64239444Y-46733136D01*
X64211286Y-46907200D01*
X64159657Y-47026472D01*
X64098744Y-47103059D01*
X63986578Y-47237965D01*
X63974534Y-47310321D01*
X64064959Y-47337138D01*
X64131281Y-47338922D01*
X64393585Y-47277922D01*
X64628351Y-47105592D01*
X64820995Y-46835992D01*
X64932950Y-46566213D01*
X65016957Y-46299387D01*
X65023188Y-46570383D01*
X65005146Y-46788465D01*
X64952627Y-46985820D01*
X64937143Y-47019823D01*
X64812467Y-47198341D01*
X64644088Y-47363617D01*
X64469564Y-47484121D01*
X64331284Y-47528419D01*
X64231348Y-47569014D01*
X64220415Y-47669788D01*
X64300990Y-47799231D01*
X64309108Y-47807540D01*
X64459489Y-47891574D01*
X64663550Y-47885226D01*
X64937816Y-47787971D01*
X64938648Y-47787593D01*
X65174867Y-47634139D01*
X65394115Y-47412893D01*
X65561552Y-47164913D01*
X65636923Y-46964727D01*
X65645908Y-46870966D01*
X66678706Y-46870966D01*
X66690900Y-46964727D01*
X66782817Y-47207592D01*
X66944885Y-47434550D01*
X67154157Y-47631033D01*
X67387686Y-47782479D01*
X67622525Y-47874320D01*
X67835727Y-47891991D01*
X68004345Y-47820928D01*
X68018714Y-47807540D01*
X68105082Y-47677353D01*
X68099786Y-47573868D01*
X68005331Y-47528597D01*
X67996538Y-47528419D01*
X67851372Y-47480416D01*
X67676355Y-47357423D01*
X67509045Y-47190970D01*
X67390680Y-47019823D01*
X67332447Y-46839502D01*
X67304906Y-46618679D01*
X67304634Y-46570383D01*
X67310865Y-46299387D01*
X67394872Y-46566213D01*
X67544371Y-46902139D01*
X67747408Y-47151798D01*
X67989399Y-47301130D01*
X68196541Y-47338922D01*
X68329140Y-47325711D01*
X68342594Y-47301798D01*
X69586011Y-47301798D01*
X69614380Y-47425980D01*
X69659526Y-47502088D01*
X69757561Y-47614765D01*
X69869461Y-47632801D01*
X69934884Y-47617718D01*
X70150538Y-47581960D01*
X70358994Y-47588068D01*
X70510458Y-47633139D01*
X70536325Y-47652794D01*
X70543879Y-47701253D01*
X70433102Y-47717487D01*
X70427729Y-47717501D01*
X70244847Y-47747335D01*
X70068473Y-47813661D01*
X69929404Y-47918618D01*
X69883426Y-48063415D01*
X69882521Y-48097284D01*
X69893440Y-48219593D01*
X69950786Y-48272445D01*
X70091448Y-48284643D01*
X70122584Y-48284747D01*
X70315050Y-48308714D01*
X70470560Y-48367403D01*
X70484991Y-48377283D01*
X70601047Y-48450088D01*
X70662873Y-48471824D01*
X70683773Y-48414655D01*
X70692190Y-48259699D01*
X70687225Y-48034690D01*
X70680686Y-47922340D01*
X70653048Y-47628987D01*
X70613605Y-47345862D01*
X70569855Y-47124725D01*
X70559723Y-47087228D01*
X70497710Y-46910536D01*
X70426530Y-46822565D01*
X70313535Y-46788188D01*
X70278058Y-46784155D01*
X70018374Y-46812882D01*
X69792066Y-46935562D01*
X69639368Y-47129611D01*
X69631797Y-47146911D01*
X69586011Y-47301798D01*
X68342594Y-47301798D01*
X68358319Y-47273850D01*
X68286425Y-47166330D01*
X68229078Y-47103059D01*
X68153593Y-47001722D01*
X68108200Y-46872867D01*
X68084268Y-46680940D01*
X68075057Y-46468724D01*
X68069935Y-46238188D01*
X68071734Y-46124689D01*
X68082269Y-46119311D01*
X68103355Y-46213142D01*
X68114700Y-46273990D01*
X68198670Y-46579124D01*
X68323817Y-46842727D01*
X68474582Y-47043731D01*
X68635404Y-47161070D01*
X68781239Y-47176419D01*
X68852426Y-47141616D01*
X68885625Y-47063812D01*
X68889728Y-46910075D01*
X68883786Y-46796638D01*
X68889714Y-46667995D01*
X69042869Y-46667995D01*
X69078904Y-46942962D01*
X69121401Y-47046759D01*
X69225983Y-47183172D01*
X69332459Y-47194806D01*
X69449186Y-47081804D01*
X69469020Y-47052706D01*
X69640954Y-46867960D01*
X69867351Y-46723462D01*
X70096665Y-46649960D01*
X70150387Y-46646273D01*
X70276200Y-46627834D01*
X70323713Y-46587846D01*
X70275935Y-46478721D01*
X70151577Y-46328603D01*
X69979098Y-46166182D01*
X69786960Y-46020149D01*
X69717090Y-45976310D01*
X69541417Y-45882570D01*
X69431930Y-45854845D01*
X69352678Y-45885275D01*
X69341413Y-45894172D01*
X69182993Y-46097134D01*
X69080522Y-46370563D01*
X69042869Y-46667995D01*
X68889714Y-46667995D01*
X68900951Y-46424141D01*
X69006274Y-46137574D01*
X69168351Y-45955626D01*
X69259321Y-45862096D01*
X69245530Y-45800091D01*
X69120146Y-45764579D01*
X68890088Y-45750776D01*
X68331427Y-45797755D01*
X67792111Y-45953078D01*
X67300031Y-46206161D01*
X66938838Y-46491100D01*
X66780333Y-46651604D01*
X66699801Y-46766424D01*
X66678706Y-46870966D01*
X65645908Y-46870966D01*
X65648448Y-46844462D01*
X65614543Y-46740678D01*
X65516673Y-46617966D01*
X65388984Y-46491100D01*
X64959181Y-46163046D01*
X64458370Y-45923734D01*
X63914442Y-45783745D01*
X63437734Y-45750776D01*
X63199456Y-45765690D01*
X63079295Y-45802297D01*
X63070416Y-45865627D01*
X62928361Y-45865627D01*
X62909009Y-45856111D01*
X62806545Y-45874522D01*
X62643508Y-45957323D01*
X62606225Y-45978952D01*
X62430989Y-46102663D01*
X62255200Y-46259942D01*
X62107946Y-46420558D01*
X62018312Y-46554283D01*
X62004110Y-46604716D01*
X61783935Y-46604716D01*
X61832595Y-46513671D01*
X61972241Y-46297735D01*
X62034256Y-46217264D01*
X62254612Y-46021371D01*
X62555388Y-45839937D01*
X62891239Y-45695924D01*
X63216819Y-45612296D01*
X63233700Y-45609881D01*
X63726198Y-45601895D01*
X64237582Y-45699581D01*
X64738269Y-45892249D01*
X65198673Y-46169209D01*
X65504292Y-46430350D01*
X65684374Y-46604862D01*
X65815159Y-46706980D01*
X65933864Y-46755985D01*
X66077709Y-46771161D01*
X66163911Y-46772092D01*
X66332224Y-46766104D01*
X66458030Y-46735285D01*
X66578546Y-46660352D01*
X66730991Y-46522023D01*
X66823530Y-46430350D01*
X67233353Y-46096314D01*
X67706012Y-45838420D01*
X68211921Y-45667359D01*
X68721497Y-45593820D01*
X69094122Y-45609881D01*
G37*
D12*
%TO.C,R105*%
X103137500Y-91692742D02*
X103137500Y-92167258D01*
X104182500Y-91692742D02*
X104182500Y-92167258D01*
%TO.C,C201*%
X84360000Y-51990580D02*
X84360000Y-51709420D01*
X85380000Y-51990580D02*
X85380000Y-51709420D01*
%TO.C,C101*%
X112795000Y-60008748D02*
X112795000Y-60531252D01*
X114265000Y-60008748D02*
X114265000Y-60531252D01*
%TO.C,L100*%
X115062779Y-56970000D02*
X114737221Y-56970000D01*
X115062779Y-57990000D02*
X114737221Y-57990000D01*
%TO.C,C102*%
X100771252Y-76765000D02*
X100248748Y-76765000D01*
X100771252Y-78235000D02*
X100248748Y-78235000D01*
%TO.C,C303*%
X93178080Y-96730000D02*
X92896920Y-96730000D01*
X93178080Y-97750000D02*
X92896920Y-97750000D01*
%TO.C,U100*%
X100530000Y-79140000D02*
X103110000Y-79140000D01*
X103110000Y-80120000D02*
X103110000Y-79140000D01*
X103110000Y-82880000D02*
X103110000Y-83860000D01*
X103110000Y-83860000D02*
X100390000Y-83860000D01*
X99980000Y-79290000D02*
X99740000Y-78960000D01*
X100220000Y-78960000D01*
X99980000Y-79290000D01*
G36*
X99980000Y-79290000D02*
G01*
X99740000Y-78960000D01*
X100220000Y-78960000D01*
X99980000Y-79290000D01*
G37*
D10*
%TO.C,J300*%
X74510000Y-106030000D02*
X74510000Y-120030000D01*
X74510000Y-120030000D02*
X88910000Y-120030000D01*
D13*
X81710000Y-105500000D02*
X81710000Y-105500000D01*
X81710000Y-105600000D02*
X81710000Y-105600000D01*
D10*
X88910000Y-106030000D02*
X74510000Y-106030000D01*
X88910000Y-120030000D02*
X88910000Y-106030000D01*
D13*
X81710000Y-105500000D02*
G75*
G02*
X81710000Y-105600000I0J-50000D01*
G01*
X81710000Y-105600000D02*
G75*
G02*
X81710000Y-105500000I0J50000D01*
G01*
D12*
%TO.C,C104*%
X104565000Y-42938748D02*
X104565000Y-43461252D01*
X106035000Y-42938748D02*
X106035000Y-43461252D01*
%TO.C,R402*%
X111965242Y-82987500D02*
X112439758Y-82987500D01*
X111965242Y-84032500D02*
X112439758Y-84032500D01*
%TO.C,C315*%
X85751252Y-69285000D02*
X85228748Y-69285000D01*
X85751252Y-70755000D02*
X85228748Y-70755000D01*
%TO.C,R308*%
X74237500Y-73577742D02*
X74237500Y-74052258D01*
X75282500Y-73577742D02*
X75282500Y-74052258D01*
%TO.C,R300*%
X95200000Y-98937258D02*
X95200000Y-98462742D01*
X96245000Y-98937258D02*
X96245000Y-98462742D01*
%TO.C,C405*%
X112398080Y-86485000D02*
X112116920Y-86485000D01*
X112398080Y-87505000D02*
X112116920Y-87505000D01*
%TO.C,R200*%
X91057500Y-47622742D02*
X91057500Y-48097258D01*
X92102500Y-47622742D02*
X92102500Y-48097258D01*
%TO.C,C106*%
X105955000Y-48881252D02*
X105955000Y-48358748D01*
X107425000Y-48881252D02*
X107425000Y-48358748D01*
D14*
%TO.C,D200*%
X63648500Y-62719400D02*
X63648500Y-62906260D01*
X63648500Y-65783740D02*
X63648500Y-65970600D01*
X63648500Y-65970600D02*
X67610900Y-65970600D01*
X67610900Y-62719400D02*
X63648500Y-62719400D01*
X67610900Y-62906260D02*
X67610900Y-62719400D01*
X67610900Y-65970600D02*
X67610900Y-65783740D01*
D12*
%TO.C,C314*%
X85830580Y-71510000D02*
X85549420Y-71510000D01*
X85830580Y-72530000D02*
X85549420Y-72530000D01*
%TO.C,R103*%
X120922258Y-44467500D02*
X120447742Y-44467500D01*
X120922258Y-45512500D02*
X120447742Y-45512500D01*
%TO.C,C105*%
X111565000Y-42988748D02*
X111565000Y-43511252D01*
X113035000Y-42988748D02*
X113035000Y-43511252D01*
%TO.C,D300*%
X84360000Y-102650000D02*
X81700000Y-102650000D01*
X84360000Y-104350000D02*
X81700000Y-104350000D01*
X84360000Y-104350000D02*
X84360000Y-102650000D01*
%TO.C,D202*%
X94530000Y-33500000D02*
X94530000Y-36160000D01*
X96230000Y-33500000D02*
X94530000Y-33500000D01*
X96230000Y-33500000D02*
X96230000Y-36160000D01*
%TO.C,R303*%
X93290000Y-94502742D02*
X93290000Y-94977258D01*
X94335000Y-94502742D02*
X94335000Y-94977258D01*
%TO.C,D100*%
X119500000Y-43740000D02*
X122185000Y-43740000D01*
X122185000Y-41820000D02*
X119500000Y-41820000D01*
X122185000Y-43740000D02*
X122185000Y-41820000D01*
%TO.C,C402*%
X110152500Y-74713748D02*
X110152500Y-75236252D01*
X111622500Y-74713748D02*
X111622500Y-75236252D01*
%TO.C,R301*%
X99237500Y-94810436D02*
X99237500Y-95264564D01*
X100707500Y-94810436D02*
X100707500Y-95264564D01*
%TO.C,U301*%
X86152500Y-86740000D02*
X85352500Y-86740000D01*
X86152500Y-86740000D02*
X86952500Y-86740000D01*
X86152500Y-89860000D02*
X85352500Y-89860000D01*
X86152500Y-89860000D02*
X86952500Y-89860000D01*
X84852500Y-86790000D02*
X84612500Y-86460000D01*
X85092500Y-86460000D01*
X84852500Y-86790000D01*
G36*
X84852500Y-86790000D02*
G01*
X84612500Y-86460000D01*
X85092500Y-86460000D01*
X84852500Y-86790000D01*
G37*
%TO.C,C311*%
X83990000Y-75384420D02*
X83990000Y-75665580D01*
X85010000Y-75384420D02*
X85010000Y-75665580D01*
%TO.C,C305*%
X80680000Y-90510580D02*
X80680000Y-90229420D01*
X81700000Y-90510580D02*
X81700000Y-90229420D01*
%TO.C,R206*%
X70157258Y-64817500D02*
X69682742Y-64817500D01*
X70157258Y-65862500D02*
X69682742Y-65862500D01*
%TO.C,R101*%
X108267500Y-47057258D02*
X108267500Y-46582742D01*
X109312500Y-47057258D02*
X109312500Y-46582742D01*
%TO.C,C213*%
X116540580Y-51330000D02*
X116259420Y-51330000D01*
X116540580Y-52350000D02*
X116259420Y-52350000D01*
%TO.C,R305*%
X83959758Y-90652500D02*
X83485242Y-90652500D01*
X83959758Y-91697500D02*
X83485242Y-91697500D01*
%TO.C,C307*%
X87141920Y-83510000D02*
X87423080Y-83510000D01*
X87141920Y-84530000D02*
X87423080Y-84530000D01*
%TO.C,C313*%
X83990000Y-79909420D02*
X83990000Y-80190580D01*
X85010000Y-79909420D02*
X85010000Y-80190580D01*
%TO.C,C203*%
X96580580Y-64510000D02*
X96299420Y-64510000D01*
X96580580Y-65530000D02*
X96299420Y-65530000D01*
%TO.C,C309*%
X79311252Y-82315000D02*
X78788748Y-82315000D01*
X79311252Y-83785000D02*
X78788748Y-83785000D01*
D15*
%TO.C,FL200*%
X111170000Y-54275000D02*
X110770000Y-54275000D01*
X111170000Y-55485000D02*
X110770000Y-55485000D01*
D12*
%TO.C,C103*%
X96815000Y-82511252D02*
X96815000Y-81988748D01*
X98285000Y-82511252D02*
X98285000Y-81988748D01*
%TO.C,C403*%
X115399420Y-83000000D02*
X115680580Y-83000000D01*
X115399420Y-84020000D02*
X115680580Y-84020000D01*
%TO.C,R213*%
X123282742Y-48197500D02*
X123757258Y-48197500D01*
X123282742Y-49242500D02*
X123757258Y-49242500D01*
%TO.C,C205*%
X88959420Y-48370000D02*
X89240580Y-48370000D01*
X88959420Y-49390000D02*
X89240580Y-49390000D01*
%TO.C,R212*%
X123272742Y-61177500D02*
X123747258Y-61177500D01*
X123272742Y-62222500D02*
X123747258Y-62222500D01*
%TO.C,D201*%
X90802500Y-27610000D02*
X90802500Y-29310000D01*
X90802500Y-27610000D02*
X93462500Y-27610000D01*
X90802500Y-29310000D02*
X93462500Y-29310000D01*
%TO.C,U101*%
X108800000Y-41690000D02*
X108000000Y-41690000D01*
X108800000Y-41690000D02*
X109600000Y-41690000D01*
X108800000Y-44810000D02*
X108000000Y-44810000D01*
X108800000Y-44810000D02*
X109600000Y-44810000D01*
X110340000Y-45090000D02*
X109860000Y-45090000D01*
X110100000Y-44760000D01*
X110340000Y-45090000D01*
G36*
X110340000Y-45090000D02*
G01*
X109860000Y-45090000D01*
X110100000Y-44760000D01*
X110340000Y-45090000D01*
G37*
%TO.C,R207*%
X65572258Y-66707500D02*
X65097742Y-66707500D01*
X65572258Y-67752500D02*
X65097742Y-67752500D01*
%TO.C,U305*%
X104802500Y-86850000D02*
X104002500Y-86850000D01*
X104802500Y-86850000D02*
X105602500Y-86850000D01*
X104802500Y-89970000D02*
X104002500Y-89970000D01*
X104802500Y-89970000D02*
X105602500Y-89970000D01*
X103502500Y-86900000D02*
X103262500Y-86570000D01*
X103742500Y-86570000D01*
X103502500Y-86900000D01*
G36*
X103502500Y-86900000D02*
G01*
X103262500Y-86570000D01*
X103742500Y-86570000D01*
X103502500Y-86900000D01*
G37*
%TO.C,C308*%
X74141252Y-70135000D02*
X73618748Y-70135000D01*
X74141252Y-71605000D02*
X73618748Y-71605000D01*
%TO.C,C207*%
X80695000Y-58706252D02*
X80695000Y-58183748D01*
X82165000Y-58706252D02*
X82165000Y-58183748D01*
%TO.C,C406*%
X110640000Y-92175580D02*
X110640000Y-91894420D01*
X111660000Y-92175580D02*
X111660000Y-91894420D01*
%TO.C,D203*%
X93940000Y-38610000D02*
X91280000Y-38610000D01*
X93940000Y-40310000D02*
X91280000Y-40310000D01*
X93940000Y-40310000D02*
X93940000Y-38610000D01*
%TO.C,R204*%
X100407500Y-62077742D02*
X100407500Y-62552258D01*
X101452500Y-62077742D02*
X101452500Y-62552258D01*
%TO.C,R201*%
X89627258Y-66497500D02*
X89152742Y-66497500D01*
X89627258Y-67542500D02*
X89152742Y-67542500D01*
%TO.C,C107*%
X99915000Y-90148748D02*
X99915000Y-90671252D01*
X101385000Y-90148748D02*
X101385000Y-90671252D01*
%TO.C,C302*%
X91482500Y-90130580D02*
X91482500Y-89849420D01*
X92502500Y-90130580D02*
X92502500Y-89849420D01*
%TO.C,C208*%
X78195000Y-58656252D02*
X78195000Y-58133748D01*
X79665000Y-58656252D02*
X79665000Y-58133748D01*
%TO.C,R203*%
X103967500Y-53682258D02*
X103967500Y-53207742D01*
X105012500Y-53682258D02*
X105012500Y-53207742D01*
%TO.C,R304*%
X85700000Y-92162258D02*
X85700000Y-91687742D01*
X86745000Y-92162258D02*
X86745000Y-91687742D01*
%TO.C,C202*%
X88580580Y-64560000D02*
X88299420Y-64560000D01*
X88580580Y-65580000D02*
X88299420Y-65580000D01*
%TO.C,J201*%
X87055000Y-32245000D02*
X87055000Y-35775000D01*
X87120000Y-32245000D02*
X87055000Y-32245000D01*
X87120000Y-35775000D02*
X87055000Y-35775000D01*
X93460000Y-30920000D02*
X93460000Y-32245000D01*
X93525000Y-32245000D02*
X93460000Y-32245000D01*
X93525000Y-32245000D02*
X93525000Y-35775000D01*
X93525000Y-35775000D02*
X93460000Y-35775000D01*
%TO.C,U300*%
X93237500Y-90562500D02*
X93237500Y-89762500D01*
X93237500Y-90562500D02*
X93237500Y-91362500D01*
X96357500Y-90562500D02*
X96357500Y-89762500D01*
X96357500Y-90562500D02*
X96357500Y-91362500D01*
X93287500Y-91862500D02*
X92957500Y-92102500D01*
X92957500Y-91622500D01*
X93287500Y-91862500D01*
G36*
X93287500Y-91862500D02*
G01*
X92957500Y-92102500D01*
X92957500Y-91622500D01*
X93287500Y-91862500D01*
G37*
%TO.C,R209*%
X92092742Y-41037500D02*
X92567258Y-41037500D01*
X92092742Y-42082500D02*
X92567258Y-42082500D01*
%TO.C,L200*%
X80290279Y-60850000D02*
X79964721Y-60850000D01*
X80290279Y-61870000D02*
X79964721Y-61870000D01*
%TO.C,U201*%
X115730000Y-53180000D02*
X114930000Y-53180000D01*
X115730000Y-53180000D02*
X116530000Y-53180000D01*
X115730000Y-56300000D02*
X114930000Y-56300000D01*
X115730000Y-56300000D02*
X116530000Y-56300000D01*
X117270000Y-56580000D02*
X116790000Y-56580000D01*
X117030000Y-56250000D01*
X117270000Y-56580000D01*
G36*
X117270000Y-56580000D02*
G01*
X116790000Y-56580000D01*
X117030000Y-56250000D01*
X117270000Y-56580000D01*
G37*
%TO.C,U200*%
X87500000Y-51750000D02*
X87500000Y-52700000D01*
X87500000Y-61970000D02*
X87500000Y-61020000D01*
X88450000Y-51750000D02*
X87500000Y-51750000D01*
X88450000Y-61970000D02*
X87500000Y-61970000D01*
X96770000Y-51750000D02*
X97720000Y-51750000D01*
X96770000Y-61970000D02*
X97720000Y-61970000D01*
X97720000Y-51750000D02*
X97720000Y-52700000D01*
X97720000Y-61970000D02*
X97720000Y-61020000D01*
X86885000Y-52700000D02*
X86545000Y-52230000D01*
X87225000Y-52230000D01*
X86885000Y-52700000D01*
G36*
X86885000Y-52700000D02*
G01*
X86545000Y-52230000D01*
X87225000Y-52230000D01*
X86885000Y-52700000D01*
G37*
%TO.C,C312*%
X81645000Y-79838748D02*
X81645000Y-80361252D01*
X83115000Y-79838748D02*
X83115000Y-80361252D01*
%TO.C,C206*%
X82920000Y-58535580D02*
X82920000Y-58254420D01*
X83940000Y-58535580D02*
X83940000Y-58254420D01*
%TO.C,Y200*%
X78700000Y-50990000D02*
X74700000Y-50990000D01*
X78700000Y-54290000D02*
X78700000Y-50990000D01*
%TO.C,U401*%
X114202500Y-88730000D02*
X113402500Y-88730000D01*
X114202500Y-88730000D02*
X115002500Y-88730000D01*
X114202500Y-91850000D02*
X113402500Y-91850000D01*
X114202500Y-91850000D02*
X115002500Y-91850000D01*
X115742500Y-92130000D02*
X115262500Y-92130000D01*
X115502500Y-91800000D01*
X115742500Y-92130000D01*
G36*
X115742500Y-92130000D02*
G01*
X115262500Y-92130000D01*
X115502500Y-91800000D01*
X115742500Y-92130000D01*
G37*
%TO.C,J200*%
X123340000Y-50490000D02*
X125340000Y-50490000D01*
X123340000Y-59890000D02*
X125340000Y-59890000D01*
%TO.C,D205*%
X84480000Y-38320000D02*
X84480000Y-35660000D01*
X84480000Y-38320000D02*
X86180000Y-38320000D01*
X86180000Y-38320000D02*
X86180000Y-35660000D01*
%TO.C,R102*%
X106127258Y-45397500D02*
X105652742Y-45397500D01*
X106127258Y-46442500D02*
X105652742Y-46442500D01*
%TO.C,C304*%
X88581920Y-90665000D02*
X88863080Y-90665000D01*
X88581920Y-91685000D02*
X88863080Y-91685000D01*
%TO.C,C108*%
X107410000Y-88360580D02*
X107410000Y-88079420D01*
X108430000Y-88360580D02*
X108430000Y-88079420D01*
%TO.C,R211*%
X82807500Y-36347742D02*
X82807500Y-36822258D01*
X83852500Y-36347742D02*
X83852500Y-36822258D01*
%TO.C,R100*%
X101087500Y-74302742D02*
X101087500Y-74777258D01*
X102132500Y-74302742D02*
X102132500Y-74777258D01*
%TO.C,R104*%
X106817258Y-90727500D02*
X106342742Y-90727500D01*
X106817258Y-91772500D02*
X106342742Y-91772500D01*
%TO.C,D204*%
X86970000Y-38610000D02*
X86970000Y-40310000D01*
X86970000Y-38610000D02*
X89630000Y-38610000D01*
X86970000Y-40310000D02*
X89630000Y-40310000D01*
%TO.C,R208*%
X94837500Y-38312742D02*
X94837500Y-38787258D01*
X95882500Y-38312742D02*
X95882500Y-38787258D01*
%TO.C,C310*%
X81515000Y-75338748D02*
X81515000Y-75861252D01*
X82985000Y-75338748D02*
X82985000Y-75861252D01*
%TO.C,R401*%
X113612258Y-81127500D02*
X113137742Y-81127500D01*
X113612258Y-82172500D02*
X113137742Y-82172500D01*
%TO.C,R405*%
X114950000Y-93437742D02*
X114950000Y-93912258D01*
X115995000Y-93437742D02*
X115995000Y-93912258D01*
D10*
%TO.C,J400*%
X99036000Y-106030000D02*
X99036000Y-120030000D01*
X99036000Y-120030000D02*
X113436000Y-120030000D01*
D13*
X106236000Y-105500000D02*
X106236000Y-105500000D01*
X106236000Y-105600000D02*
X106236000Y-105600000D01*
D10*
X113436000Y-106030000D02*
X99036000Y-106030000D01*
X113436000Y-120030000D02*
X113436000Y-106030000D01*
D13*
X106236000Y-105500000D02*
G75*
G02*
X106236000Y-105600000I0J-50000D01*
G01*
X106236000Y-105600000D02*
G75*
G02*
X106236000Y-105500000I0J50000D01*
G01*
D12*
%TO.C,C209*%
X79850000Y-52950580D02*
X79850000Y-52669420D01*
X80870000Y-52950580D02*
X80870000Y-52669420D01*
%TO.C,R404*%
X117045242Y-86472500D02*
X117519758Y-86472500D01*
X117045242Y-87517500D02*
X117519758Y-87517500D01*
%TO.C,L101*%
X105290000Y-33690000D02*
X105290000Y-35240000D01*
X105290000Y-33690000D02*
X112810000Y-33690000D01*
X105290000Y-40810000D02*
X105290000Y-39260000D01*
X105290000Y-40810000D02*
X112810000Y-40810000D01*
X112810000Y-33690000D02*
X112810000Y-35240000D01*
X112810000Y-40810000D02*
X112810000Y-39260000D01*
%TO.C,C301*%
X95212500Y-95340580D02*
X95212500Y-95059420D01*
X96232500Y-95340580D02*
X96232500Y-95059420D01*
%TO.C,C200*%
X82085000Y-52136252D02*
X82085000Y-51613748D01*
X83555000Y-52136252D02*
X83555000Y-51613748D01*
%TO.C,C400*%
X111898752Y-69290000D02*
X111376248Y-69290000D01*
X111898752Y-70760000D02*
X111376248Y-70760000D01*
%TO.C,R205*%
X70157258Y-62807500D02*
X69682742Y-62807500D01*
X70157258Y-63852500D02*
X69682742Y-63852500D01*
%TO.C,U302*%
X79000000Y-78490000D02*
X78350000Y-78490000D01*
X79000000Y-78490000D02*
X79650000Y-78490000D01*
X79000000Y-81610000D02*
X78350000Y-81610000D01*
X79000000Y-81610000D02*
X79650000Y-81610000D01*
X80402500Y-81890000D02*
X79922500Y-81890000D01*
X80162500Y-81560000D01*
X80402500Y-81890000D01*
G36*
X80402500Y-81890000D02*
G01*
X79922500Y-81890000D01*
X80162500Y-81560000D01*
X80402500Y-81890000D01*
G37*
%TO.C,R400*%
X113667500Y-67352742D02*
X113667500Y-67827258D01*
X114712500Y-67352742D02*
X114712500Y-67827258D01*
%TO.C,C210*%
X75500580Y-55025000D02*
X75219420Y-55025000D01*
X75500580Y-56045000D02*
X75219420Y-56045000D01*
%TO.C,C300*%
X97212500Y-95340580D02*
X97212500Y-95059420D01*
X98232500Y-95340580D02*
X98232500Y-95059420D01*
%TO.C,C404*%
X118764420Y-88550000D02*
X119045580Y-88550000D01*
X118764420Y-89570000D02*
X119045580Y-89570000D01*
%TO.C,R403*%
X114260000Y-86007742D02*
X114260000Y-86482258D01*
X115305000Y-86007742D02*
X115305000Y-86482258D01*
%TO.C,C212*%
X83919420Y-38940000D02*
X84200580Y-38940000D01*
X83919420Y-39960000D02*
X84200580Y-39960000D01*
%TO.C,C211*%
X65139420Y-60860000D02*
X65420580Y-60860000D01*
X65139420Y-61880000D02*
X65420580Y-61880000D01*
%TO.C,R306*%
X84270000Y-85007258D02*
X84270000Y-84532742D01*
X85315000Y-85007258D02*
X85315000Y-84532742D01*
%TO.C,C100*%
X115245000Y-60028748D02*
X115245000Y-60551252D01*
X116715000Y-60028748D02*
X116715000Y-60551252D01*
%TO.C,R307*%
X89270000Y-85007258D02*
X89270000Y-84532742D01*
X90315000Y-85007258D02*
X90315000Y-84532742D01*
%TO.C,C306*%
X89160000Y-88260580D02*
X89160000Y-87979420D01*
X90180000Y-88260580D02*
X90180000Y-87979420D01*
%TO.C,R309*%
X90717500Y-70332258D02*
X90717500Y-69857742D01*
X91762500Y-70332258D02*
X91762500Y-69857742D01*
%TO.C,C204*%
X100090000Y-52239420D02*
X100090000Y-52520580D01*
X101110000Y-52239420D02*
X101110000Y-52520580D01*
%TO.C,R210*%
X88112742Y-41157500D02*
X88587258Y-41157500D01*
X88112742Y-42202500D02*
X88587258Y-42202500D01*
%TO.C,D400*%
X108937500Y-102550000D02*
X106277500Y-102550000D01*
X108937500Y-104250000D02*
X106277500Y-104250000D01*
X108937500Y-104250000D02*
X108937500Y-102550000D01*
%TO.C,R202*%
X78447742Y-55012500D02*
X78922258Y-55012500D01*
X78447742Y-56057500D02*
X78922258Y-56057500D01*
%TO.C,R302*%
X97175000Y-91159564D02*
X97175000Y-90705436D01*
X98645000Y-91159564D02*
X98645000Y-90705436D01*
%TO.C,C401*%
X112028080Y-71515000D02*
X111746920Y-71515000D01*
X112028080Y-72535000D02*
X111746920Y-72535000D01*
%TD*%
M02*
