%TF.GenerationSoftware,KiCad,Pcbnew,9.0.0*%
%TF.CreationDate,2025-12-13T14:21:09+02:00*%
%TF.ProjectId,mixed_signal_hw_pcb,6d697865-645f-4736-9967-6e616c5f6877,rev?*%
%TF.SameCoordinates,Original*%
%TF.FileFunction,Legend,Bot*%
%TF.FilePolarity,Positive*%
%FSLAX46Y46*%
G04 Gerber Fmt 4.6, Leading zero omitted, Abs format (unit mm)*
G04 Created by KiCad (PCBNEW 9.0.0) date 2025-12-13 14:21:09*
%MOMM*%
%LPD*%
G01*
G04 APERTURE LIST*
%ADD10C,0.200000*%
G04 APERTURE END LIST*
D10*
X110135564Y-106947457D02*
X110278422Y-106876028D01*
X110278422Y-106876028D02*
X110492707Y-106876028D01*
X110492707Y-106876028D02*
X110706993Y-106947457D01*
X110706993Y-106947457D02*
X110849850Y-107090314D01*
X110849850Y-107090314D02*
X110921279Y-107233171D01*
X110921279Y-107233171D02*
X110992707Y-107518885D01*
X110992707Y-107518885D02*
X110992707Y-107733171D01*
X110992707Y-107733171D02*
X110921279Y-108018885D01*
X110921279Y-108018885D02*
X110849850Y-108161742D01*
X110849850Y-108161742D02*
X110706993Y-108304600D01*
X110706993Y-108304600D02*
X110492707Y-108376028D01*
X110492707Y-108376028D02*
X110349850Y-108376028D01*
X110349850Y-108376028D02*
X110135564Y-108304600D01*
X110135564Y-108304600D02*
X110064136Y-108233171D01*
X110064136Y-108233171D02*
X110064136Y-107733171D01*
X110064136Y-107733171D02*
X110349850Y-107733171D01*
X85685564Y-107127457D02*
X85828422Y-107056028D01*
X85828422Y-107056028D02*
X86042707Y-107056028D01*
X86042707Y-107056028D02*
X86256993Y-107127457D01*
X86256993Y-107127457D02*
X86399850Y-107270314D01*
X86399850Y-107270314D02*
X86471279Y-107413171D01*
X86471279Y-107413171D02*
X86542707Y-107698885D01*
X86542707Y-107698885D02*
X86542707Y-107913171D01*
X86542707Y-107913171D02*
X86471279Y-108198885D01*
X86471279Y-108198885D02*
X86399850Y-108341742D01*
X86399850Y-108341742D02*
X86256993Y-108484600D01*
X86256993Y-108484600D02*
X86042707Y-108556028D01*
X86042707Y-108556028D02*
X85899850Y-108556028D01*
X85899850Y-108556028D02*
X85685564Y-108484600D01*
X85685564Y-108484600D02*
X85614136Y-108413171D01*
X85614136Y-108413171D02*
X85614136Y-107913171D01*
X85614136Y-107913171D02*
X85899850Y-107913171D01*
X104752707Y-108444600D02*
X104538422Y-108516028D01*
X104538422Y-108516028D02*
X104181279Y-108516028D01*
X104181279Y-108516028D02*
X104038422Y-108444600D01*
X104038422Y-108444600D02*
X103966993Y-108373171D01*
X103966993Y-108373171D02*
X103895564Y-108230314D01*
X103895564Y-108230314D02*
X103895564Y-108087457D01*
X103895564Y-108087457D02*
X103966993Y-107944600D01*
X103966993Y-107944600D02*
X104038422Y-107873171D01*
X104038422Y-107873171D02*
X104181279Y-107801742D01*
X104181279Y-107801742D02*
X104466993Y-107730314D01*
X104466993Y-107730314D02*
X104609850Y-107658885D01*
X104609850Y-107658885D02*
X104681279Y-107587457D01*
X104681279Y-107587457D02*
X104752707Y-107444600D01*
X104752707Y-107444600D02*
X104752707Y-107301742D01*
X104752707Y-107301742D02*
X104681279Y-107158885D01*
X104681279Y-107158885D02*
X104609850Y-107087457D01*
X104609850Y-107087457D02*
X104466993Y-107016028D01*
X104466993Y-107016028D02*
X104109850Y-107016028D01*
X104109850Y-107016028D02*
X103895564Y-107087457D01*
X79802707Y-108374600D02*
X79588422Y-108446028D01*
X79588422Y-108446028D02*
X79231279Y-108446028D01*
X79231279Y-108446028D02*
X79088422Y-108374600D01*
X79088422Y-108374600D02*
X79016993Y-108303171D01*
X79016993Y-108303171D02*
X78945564Y-108160314D01*
X78945564Y-108160314D02*
X78945564Y-108017457D01*
X78945564Y-108017457D02*
X79016993Y-107874600D01*
X79016993Y-107874600D02*
X79088422Y-107803171D01*
X79088422Y-107803171D02*
X79231279Y-107731742D01*
X79231279Y-107731742D02*
X79516993Y-107660314D01*
X79516993Y-107660314D02*
X79659850Y-107588885D01*
X79659850Y-107588885D02*
X79731279Y-107517457D01*
X79731279Y-107517457D02*
X79802707Y-107374600D01*
X79802707Y-107374600D02*
X79802707Y-107231742D01*
X79802707Y-107231742D02*
X79731279Y-107088885D01*
X79731279Y-107088885D02*
X79659850Y-107017457D01*
X79659850Y-107017457D02*
X79516993Y-106946028D01*
X79516993Y-106946028D02*
X79159850Y-106946028D01*
X79159850Y-106946028D02*
X78945564Y-107017457D01*
M02*
