%TF.GenerationSoftware,KiCad,Pcbnew,9.0.0*%
%TF.CreationDate,2025-12-13T14:21:09+02:00*%
%TF.ProjectId,mixed_signal_hw_pcb,6d697865-645f-4736-9967-6e616c5f6877,rev?*%
%TF.SameCoordinates,Original*%
%TF.FileFunction,Copper,L4,Bot*%
%TF.FilePolarity,Positive*%
%FSLAX46Y46*%
G04 Gerber Fmt 4.6, Leading zero omitted, Abs format (unit mm)*
G04 Created by KiCad (PCBNEW 9.0.0) date 2025-12-13 14:21:09*
%MOMM*%
%LPD*%
G01*
G04 APERTURE LIST*
%TA.AperFunction,ComponentPad*%
%ADD10R,1.400000X1.400000*%
%TD*%
%TA.AperFunction,ComponentPad*%
%ADD11C,1.400000*%
%TD*%
%TA.AperFunction,ComponentPad*%
%ADD12C,3.000000*%
%TD*%
%TA.AperFunction,ComponentPad*%
%ADD13C,0.800000*%
%TD*%
%TA.AperFunction,ComponentPad*%
%ADD14C,6.400000*%
%TD*%
%TA.AperFunction,HeatsinkPad*%
%ADD15O,2.100000X1.000000*%
%TD*%
%TA.AperFunction,HeatsinkPad*%
%ADD16O,1.600000X1.000000*%
%TD*%
%TA.AperFunction,ViaPad*%
%ADD17C,0.800000*%
%TD*%
%TA.AperFunction,ViaPad*%
%ADD18C,0.600000*%
%TD*%
%TA.AperFunction,Conductor*%
%ADD19C,0.500000*%
%TD*%
%TA.AperFunction,Conductor*%
%ADD20C,0.300000*%
%TD*%
%TA.AperFunction,Conductor*%
%ADD21C,0.293000*%
%TD*%
%TA.AperFunction,Conductor*%
%ADD22C,0.200000*%
%TD*%
%TA.AperFunction,Conductor*%
%ADD23C,0.261112*%
%TD*%
G04 APERTURE END LIST*
D10*
%TO.P,J300,1,In*%
%TO.N,/ADC/IN*%
X81710000Y-107700000D03*
D11*
%TO.P,J300,2,Ext*%
%TO.N,GND*%
X84250000Y-107700000D03*
D12*
%TO.P,J300,3*%
%TO.N,N/C*%
X76630000Y-112780000D03*
%TO.P,J300,4*%
X86790000Y-112780000D03*
%TD*%
D13*
%TO.P,H1,1,1*%
%TO.N,GND*%
X61600000Y-30500000D03*
X62302944Y-28802944D03*
X62302944Y-32197056D03*
X64000000Y-28100000D03*
D14*
X64000000Y-30500000D03*
D13*
X64000000Y-32900000D03*
X65697056Y-28802944D03*
X65697056Y-32197056D03*
X66400000Y-30500000D03*
%TD*%
%TO.P,H4,1,1*%
%TO.N,GND*%
X61600000Y-115500000D03*
X62302944Y-113802944D03*
X62302944Y-117197056D03*
X64000000Y-113100000D03*
D14*
X64000000Y-115500000D03*
D13*
X64000000Y-117900000D03*
X65697056Y-113802944D03*
X65697056Y-117197056D03*
X66400000Y-115500000D03*
%TD*%
D15*
%TO.P,J200,S1,SHIELD*%
%TO.N,GND*%
X122110000Y-59510000D03*
D16*
X126290000Y-59510000D03*
D15*
X122110000Y-50870000D03*
D16*
X126290000Y-50870000D03*
%TD*%
D13*
%TO.P,H3,1,1*%
%TO.N,GND*%
X121600000Y-115500000D03*
X122302944Y-113802944D03*
X122302944Y-117197056D03*
X124000000Y-113100000D03*
D14*
X124000000Y-115500000D03*
D13*
X124000000Y-117900000D03*
X125697056Y-113802944D03*
X125697056Y-117197056D03*
X126400000Y-115500000D03*
%TD*%
D10*
%TO.P,J400,1,In*%
%TO.N,/DAC/OUT*%
X106236000Y-107700000D03*
D11*
%TO.P,J400,2,Ext*%
%TO.N,GND*%
X108776000Y-107700000D03*
D12*
%TO.P,J400,3*%
%TO.N,N/C*%
X101156000Y-112780000D03*
%TO.P,J400,4*%
X111316000Y-112780000D03*
%TD*%
D13*
%TO.P,H2,1,1*%
%TO.N,GND*%
X121600000Y-30500000D03*
X122302944Y-28802944D03*
X122302944Y-32197056D03*
X124000000Y-28100000D03*
D14*
X124000000Y-30500000D03*
D13*
X124000000Y-32900000D03*
X125697056Y-28802944D03*
X125697056Y-32197056D03*
X126400000Y-30500000D03*
%TD*%
D17*
%TO.N,GND*%
X76720000Y-92540000D03*
X93470000Y-114590000D03*
X100890000Y-39310000D03*
X100940000Y-35960000D03*
X69070000Y-108980000D03*
X87270000Y-96300000D03*
X83470000Y-96360000D03*
X78730000Y-96360000D03*
X119420000Y-105570000D03*
X121320000Y-83970000D03*
X121100000Y-36570000D03*
X70070000Y-34340000D03*
X68340000Y-89270000D03*
X63710000Y-89160000D03*
X75150000Y-37020000D03*
X78450000Y-33890000D03*
X78340000Y-37020000D03*
X71860000Y-44050000D03*
X73870000Y-31100000D03*
X101490000Y-102020000D03*
X116490000Y-117520000D03*
X113990000Y-102270000D03*
X96990000Y-102020000D03*
X93490000Y-102020000D03*
X89490000Y-102020000D03*
X93410000Y-118330000D03*
X93410000Y-111240000D03*
X93410000Y-107170000D03*
X119490000Y-92520000D03*
X119490000Y-97770000D03*
X121240000Y-79770000D03*
X121240000Y-74270000D03*
X121490000Y-69060000D03*
X121240000Y-66270000D03*
X124490000Y-66270000D03*
X124800000Y-68830000D03*
X117410000Y-36520000D03*
X117490000Y-32520000D03*
X112990000Y-32520000D03*
X100990000Y-32520000D03*
X124990000Y-45520000D03*
X124990000Y-40770000D03*
X124740000Y-36520000D03*
X117490000Y-29020000D03*
X112990000Y-29020000D03*
X119490000Y-102270000D03*
X124800000Y-108790000D03*
X119490000Y-108520000D03*
X63320000Y-108880000D03*
X68990000Y-105270000D03*
X63240000Y-105270000D03*
X74720000Y-100580000D03*
X68898242Y-100660000D03*
X62920000Y-100820000D03*
X73420000Y-89380000D03*
X68340000Y-84860000D03*
X63740000Y-84770000D03*
X68120000Y-80280000D03*
X63740000Y-80270000D03*
X68240000Y-75270000D03*
X63740000Y-75270000D03*
X67950000Y-71130000D03*
X63740000Y-71020000D03*
X78490000Y-43770000D03*
X75240000Y-44020000D03*
X72250000Y-40030000D03*
X78390000Y-39920000D03*
X75150000Y-39810000D03*
X63990000Y-38270000D03*
X82490000Y-32270000D03*
X82490000Y-29770000D03*
X70070000Y-31100000D03*
X73990000Y-27770000D03*
X69990000Y-27770000D03*
D18*
X102640000Y-94070000D03*
X104340000Y-74330000D03*
X96490000Y-79870000D03*
X83440000Y-71120000D03*
X121590000Y-61710000D03*
X99150000Y-78760000D03*
X87750000Y-30230000D03*
X119990000Y-58440000D03*
X94797500Y-92820000D03*
X115310000Y-81650000D03*
X67320000Y-61350000D03*
X85140000Y-103520000D03*
X94980000Y-87000000D03*
X95380000Y-32980000D03*
X116592500Y-90145000D03*
X84590000Y-77620000D03*
X86540000Y-39470000D03*
X90100000Y-59930000D03*
X97440000Y-79870000D03*
X104990000Y-48410000D03*
X73900000Y-51790000D03*
X87500000Y-77920000D03*
X82390000Y-82220000D03*
X112290000Y-45520000D03*
X92640000Y-84420000D03*
X113680000Y-62540000D03*
X88240000Y-58620000D03*
X83390000Y-69820000D03*
X108190000Y-53520000D03*
X96360000Y-81350000D03*
X90355000Y-47035000D03*
X103740000Y-94070000D03*
X99660000Y-50340000D03*
X83490000Y-72470000D03*
X98440000Y-79860000D03*
X74460000Y-58110000D03*
X116340000Y-43950000D03*
X89700000Y-73320000D03*
X94910000Y-29670000D03*
X80340000Y-50880000D03*
X84490000Y-82220000D03*
X105225000Y-92755000D03*
X114940000Y-62520000D03*
X106425653Y-78757895D03*
X120310000Y-59190000D03*
X88900000Y-61030000D03*
X90280000Y-33800000D03*
X63640000Y-59700000D03*
X91062500Y-97255000D03*
X90712500Y-88965000D03*
X76440000Y-80050000D03*
X110298774Y-77280444D03*
X83662500Y-88300000D03*
X117485000Y-83500000D03*
X88990000Y-80420000D03*
X108810000Y-60380000D03*
X78070000Y-74740000D03*
X92530000Y-39450000D03*
X117175000Y-50735000D03*
X109220000Y-69990000D03*
X102240000Y-92920000D03*
X119690000Y-87920000D03*
X120270000Y-51230000D03*
X109490000Y-103370000D03*
X91520000Y-33830000D03*
X82390000Y-77620000D03*
X95320000Y-60950000D03*
X118115039Y-54785000D03*
X114070000Y-43800000D03*
X100600000Y-49200000D03*
X89510000Y-52690000D03*
X113700000Y-80040000D03*
X109600000Y-71940000D03*
X104170000Y-62310000D03*
X71450000Y-70860000D03*
X121680000Y-48700000D03*
X120010000Y-51990000D03*
X96900000Y-53610000D03*
X116170000Y-62480000D03*
X100390000Y-92720000D03*
X118540000Y-44970000D03*
X78090000Y-84580000D03*
X106470000Y-60650000D03*
X84970000Y-49725000D03*
X102330000Y-88460000D03*
X108300000Y-77310000D03*
X88340000Y-46400000D03*
X107890000Y-89920000D03*
X96010000Y-72640000D03*
X77440000Y-58020000D03*
X108100000Y-57460000D03*
X103270000Y-51610000D03*
X91992500Y-91935000D03*
X77340000Y-57070000D03*
X63640000Y-58190000D03*
X101490000Y-94070000D03*
X83990000Y-54170000D03*
X79940000Y-89570000D03*
X89760000Y-70790000D03*
X82870000Y-49725000D03*
X74590000Y-56790000D03*
X84840000Y-40560000D03*
X78730000Y-72100000D03*
X111180000Y-93790000D03*
%TO.N,+5V*%
X107190000Y-53520000D03*
X96010000Y-73760000D03*
X108790000Y-56520000D03*
X103720000Y-73340000D03*
X78780000Y-72990000D03*
X109970000Y-60330000D03*
%TO.N,+3.3VA*%
X93860000Y-84260000D03*
X79150000Y-74730000D03*
X93847500Y-86892500D03*
%TO.N,+3V3*%
X82790000Y-53970000D03*
X110065000Y-47645000D03*
X74490000Y-59360000D03*
X105050000Y-49550000D03*
X64500000Y-59740000D03*
X76215000Y-59345000D03*
X116110000Y-42760000D03*
X64500000Y-58260000D03*
X114770000Y-42760000D03*
X76580000Y-61370000D03*
X85070000Y-67180000D03*
X94800000Y-28480000D03*
X96610000Y-61180000D03*
X90280000Y-61140000D03*
X88325000Y-47565000D03*
X100610000Y-50380000D03*
X103250000Y-52640000D03*
%TO.N,SPI1_NSS*%
X88620000Y-73220556D03*
X88620000Y-70870000D03*
%TO.N,SPI2_NSS*%
X103370000Y-61430000D03*
X107020000Y-61360000D03*
%TO.N,DAC_NCLR*%
X107267903Y-78872435D03*
X115590000Y-77700000D03*
%TO.N,DAC_NLDAC*%
X108350000Y-76430000D03*
X116180000Y-76530000D03*
%TD*%
D19*
%TO.N,+5V*%
X109970000Y-67090000D02*
X103720000Y-73340000D01*
X84040000Y-74630000D02*
X95140000Y-74630000D01*
X78780000Y-72990000D02*
X82400000Y-72990000D01*
X95140000Y-74630000D02*
X96010000Y-73760000D01*
X109970000Y-60330000D02*
X109970000Y-67090000D01*
X107190000Y-54920000D02*
X108790000Y-56520000D01*
X82400000Y-72990000D02*
X84040000Y-74630000D01*
X107190000Y-53520000D02*
X107190000Y-54920000D01*
%TO.N,+3.3VA*%
X84032500Y-86892500D02*
X93847500Y-86892500D01*
X93860000Y-86880000D02*
X93847500Y-86892500D01*
D20*
X79150000Y-74730000D02*
X79150000Y-74880000D01*
D19*
X79190000Y-74920000D02*
X79190000Y-82050000D01*
D20*
X79150000Y-74880000D02*
X79190000Y-74920000D01*
D19*
X93860000Y-84260000D02*
X93860000Y-86880000D01*
X79190000Y-82050000D02*
X84032500Y-86892500D01*
%TO.N,+3V3*%
X64500000Y-58260000D02*
X64500000Y-43890000D01*
X76215000Y-60275000D02*
X75590000Y-60900000D01*
D20*
X113655000Y-47645000D02*
X110065000Y-47645000D01*
D19*
X116110000Y-38840000D02*
X105710000Y-28440000D01*
D20*
X76570000Y-61380000D02*
X76580000Y-61370000D01*
D19*
X105710000Y-28440000D02*
X94840000Y-28440000D01*
D20*
X95840000Y-59910000D02*
X96610000Y-60680000D01*
D19*
X94800000Y-28480000D02*
X94800000Y-27370000D01*
X81280000Y-26970000D02*
X64430000Y-43820000D01*
D20*
X114770000Y-42760000D02*
X114770000Y-46530000D01*
D19*
X73149000Y-59329000D02*
X74459000Y-59329000D01*
D20*
X105050000Y-49550000D02*
X101440000Y-49550000D01*
D19*
X72280000Y-54980000D02*
X72280000Y-58460000D01*
X76570000Y-63940000D02*
X76570000Y-61380000D01*
X64500000Y-43890000D02*
X64430000Y-43820000D01*
X79810000Y-67180000D02*
X76570000Y-63940000D01*
X76215000Y-59345000D02*
X76215000Y-60275000D01*
D20*
X91510000Y-59910000D02*
X95840000Y-59910000D01*
D19*
X71360000Y-60900000D02*
X69730000Y-59270000D01*
X75590000Y-60900000D02*
X71360000Y-60900000D01*
X116110000Y-42760000D02*
X116110000Y-38840000D01*
X102870000Y-52640000D02*
X100610000Y-50380000D01*
X73360000Y-53900000D02*
X72280000Y-54980000D01*
D20*
X101440000Y-49550000D02*
X100610000Y-50380000D01*
D19*
X72280000Y-58460000D02*
X73149000Y-59329000D01*
X69730000Y-57730000D02*
X69730000Y-51810000D01*
D20*
X114770000Y-46530000D02*
X113655000Y-47645000D01*
D19*
X94800000Y-27370000D02*
X94400000Y-26970000D01*
X65730000Y-59740000D02*
X67740000Y-57730000D01*
X73975000Y-47565000D02*
X88325000Y-47565000D01*
X64500000Y-59740000D02*
X65730000Y-59740000D01*
X69730000Y-51810000D02*
X73975000Y-47565000D01*
X103250000Y-52640000D02*
X102870000Y-52640000D01*
X69730000Y-59270000D02*
X69730000Y-57730000D01*
X67740000Y-57730000D02*
X69730000Y-57730000D01*
X82790000Y-53970000D02*
X82720000Y-53900000D01*
X82720000Y-53900000D02*
X73360000Y-53900000D01*
X94400000Y-26970000D02*
X81280000Y-26970000D01*
D20*
X96610000Y-60680000D02*
X96610000Y-61180000D01*
D19*
X85070000Y-67180000D02*
X79810000Y-67180000D01*
X94840000Y-28440000D02*
X94800000Y-28480000D01*
D20*
X90280000Y-61140000D02*
X91510000Y-59910000D01*
D19*
X74459000Y-59329000D02*
X74490000Y-59360000D01*
D21*
%TO.N,SPI1_NSS*%
X88620000Y-73220556D02*
X88620000Y-70870000D01*
%TO.N,SPI2_NSS*%
X103500000Y-61420000D02*
X106960000Y-61420000D01*
D22*
X103370000Y-61430000D02*
X103440000Y-61360000D01*
D23*
X103440000Y-61360000D02*
X103500000Y-61420000D01*
X106960000Y-61420000D02*
X107020000Y-61360000D01*
D22*
%TO.N,DAC_NCLR*%
X107267903Y-78872435D02*
X107270000Y-78870338D01*
D23*
X109767565Y-78872435D02*
X107267903Y-78872435D01*
X114810000Y-76920000D02*
X111720000Y-76920000D01*
X111720000Y-76920000D02*
X109767565Y-78872435D01*
X115590000Y-77700000D02*
X114810000Y-76920000D01*
D21*
%TO.N,DAC_NLDAC*%
X115640000Y-75820000D02*
X116180000Y-76360000D01*
D22*
X116180000Y-76360000D02*
X116180000Y-76530000D01*
D21*
X108350000Y-76430000D02*
X108960000Y-75820000D01*
X108960000Y-75820000D02*
X115640000Y-75820000D01*
%TD*%
M02*
