%TF.GenerationSoftware,KiCad,Pcbnew,9.0.0*%
%TF.CreationDate,2025-12-13T14:21:09+02:00*%
%TF.ProjectId,mixed_signal_hw_pcb,6d697865-645f-4736-9967-6e616c5f6877,rev?*%
%TF.SameCoordinates,Original*%
%TF.FileFunction,Soldermask,Bot*%
%TF.FilePolarity,Negative*%
%FSLAX46Y46*%
G04 Gerber Fmt 4.6, Leading zero omitted, Abs format (unit mm)*
G04 Created by KiCad (PCBNEW 9.0.0) date 2025-12-13 14:21:09*
%MOMM*%
%LPD*%
G01*
G04 APERTURE LIST*
%ADD10R,1.400000X1.400000*%
%ADD11C,1.400000*%
%ADD12C,3.000000*%
%ADD13C,0.800000*%
%ADD14C,6.400000*%
%ADD15C,0.650000*%
%ADD16O,2.100000X1.000000*%
%ADD17O,1.600000X1.000000*%
G04 APERTURE END LIST*
D10*
%TO.C,J300*%
X81710000Y-107700000D03*
D11*
X84250000Y-107700000D03*
D12*
X76630000Y-112780000D03*
X86790000Y-112780000D03*
%TD*%
D13*
%TO.C,H1*%
X61600000Y-30500000D03*
X62302944Y-28802944D03*
X62302944Y-32197056D03*
X64000000Y-28100000D03*
D14*
X64000000Y-30500000D03*
D13*
X64000000Y-32900000D03*
X65697056Y-28802944D03*
X65697056Y-32197056D03*
X66400000Y-30500000D03*
%TD*%
%TO.C,H4*%
X61600000Y-115500000D03*
X62302944Y-113802944D03*
X62302944Y-117197056D03*
X64000000Y-113100000D03*
D14*
X64000000Y-115500000D03*
D13*
X64000000Y-117900000D03*
X65697056Y-113802944D03*
X65697056Y-117197056D03*
X66400000Y-115500000D03*
%TD*%
D15*
%TO.C,J200*%
X122640000Y-58080000D03*
X122640000Y-52300000D03*
D16*
X122110000Y-59510000D03*
D17*
X126290000Y-59510000D03*
D16*
X122110000Y-50870000D03*
D17*
X126290000Y-50870000D03*
%TD*%
D13*
%TO.C,H3*%
X121600000Y-115500000D03*
X122302944Y-113802944D03*
X122302944Y-117197056D03*
X124000000Y-113100000D03*
D14*
X124000000Y-115500000D03*
D13*
X124000000Y-117900000D03*
X125697056Y-113802944D03*
X125697056Y-117197056D03*
X126400000Y-115500000D03*
%TD*%
D10*
%TO.C,J400*%
X106236000Y-107700000D03*
D11*
X108776000Y-107700000D03*
D12*
X101156000Y-112780000D03*
X111316000Y-112780000D03*
%TD*%
D13*
%TO.C,H2*%
X121600000Y-30500000D03*
X122302944Y-28802944D03*
X122302944Y-32197056D03*
X124000000Y-28100000D03*
D14*
X124000000Y-30500000D03*
D13*
X124000000Y-32900000D03*
X125697056Y-28802944D03*
X125697056Y-32197056D03*
X126400000Y-30500000D03*
%TD*%
M02*
