M48
; DRILL file {KiCad 9.0.0} date 2025-12-13T14:20:47+0200
; FORMAT={-:-/ absolute / metric / decimal}
; #@! TF.CreationDate,2025-12-13T14:20:47+02:00
; #@! TF.GenerationSoftware,Kicad,Pcbnew,9.0.0
; #@! TF.FileFunction,MixedPlating,1,4
FMAT,2
METRIC
; #@! TA.AperFunction,Plated,PTH,ViaDrill
T1C0.300
; #@! TA.AperFunction,Plated,PTH,ViaDrill
T2C0.400
; #@! TA.AperFunction,Plated,PTH,ComponentDrill
T3C0.500
; #@! TA.AperFunction,Plated,PTH,ComponentDrill
T4C0.600
; #@! TA.AperFunction,Plated,PTH,ComponentDrill
T5C0.900
; #@! TA.AperFunction,Plated,PTH,ComponentDrill
T6C2.000
; #@! TA.AperFunction,Plated,PTH,ComponentDrill
T7C3.200
; #@! TA.AperFunction,NonPlated,NPTH,ComponentDrill
T8C0.650
%
G90
G05
T1
X63.64Y-58.19
X63.64Y-59.7
X64.5Y-58.26
X64.5Y-59.74
X67.32Y-61.35
X71.45Y-70.86
X73.9Y-51.79
X74.46Y-58.11
X74.49Y-59.36
X74.59Y-56.79
X76.215Y-59.345
X76.44Y-80.05
X76.58Y-61.37
X77.34Y-57.07
X77.44Y-58.02
X78.07Y-74.74
X78.09Y-84.58
X78.73Y-72.1
X78.78Y-72.99
X79.15Y-74.73
X79.94Y-89.57
X80.34Y-50.88
X82.39Y-77.62
X82.39Y-82.22
X82.79Y-53.97
X82.87Y-49.725
X83.39Y-69.82
X83.44Y-71.12
X83.49Y-72.47
X83.662Y-88.3
X83.99Y-54.17
X84.49Y-82.22
X84.59Y-77.62
X84.84Y-40.56
X84.97Y-49.725
X85.07Y-67.18
X85.14Y-103.52
X86.54Y-39.47
X87.5Y-77.92
X87.75Y-30.23
X88.24Y-58.62
X88.325Y-47.565
X88.34Y-46.4
X88.62Y-70.87
X88.62Y-73.221
X88.9Y-61.03
X88.99Y-80.42
X89.51Y-52.69
X89.7Y-73.32
X89.76Y-70.79
X90.1Y-59.93
X90.28Y-33.8
X90.28Y-61.14
X90.355Y-47.035
X90.712Y-88.965
X91.062Y-97.255
X91.52Y-33.83
X91.992Y-91.935
X92.53Y-39.45
X92.64Y-84.42
X93.847Y-86.892
X93.86Y-84.26
X94.797Y-92.82
X94.8Y-28.48
X94.91Y-29.67
X94.98Y-87.0
X95.32Y-60.95
X95.38Y-32.98
X96.01Y-72.64
X96.01Y-73.76
X96.36Y-81.35
X96.49Y-79.87
X96.61Y-61.18
X96.9Y-53.61
X97.44Y-79.87
X98.44Y-79.86
X99.15Y-78.76
X99.66Y-50.34
X100.39Y-92.72
X100.6Y-49.2
X100.61Y-50.38
X101.49Y-94.07
X102.24Y-92.92
X102.33Y-88.46
X102.64Y-94.07
X103.25Y-52.64
X103.27Y-51.61
X103.37Y-61.43
X103.72Y-73.34
X103.74Y-94.07
X104.17Y-62.31
X104.34Y-74.33
X104.99Y-48.41
X105.05Y-49.55
X105.225Y-92.755
X106.426Y-78.758
X106.47Y-60.65
X107.02Y-61.36
X107.19Y-53.52
X107.268Y-78.872
X107.89Y-89.92
X108.1Y-57.46
X108.19Y-53.52
X108.3Y-77.31
X108.35Y-76.43
X108.79Y-56.52
X108.81Y-60.38
X109.22Y-69.99
X109.49Y-103.37
X109.6Y-71.94
X109.97Y-60.33
X110.065Y-47.645
X110.299Y-77.28
X111.18Y-93.79
X112.29Y-45.52
X113.68Y-62.54
X113.7Y-80.04
X114.07Y-43.8
X114.77Y-42.76
X114.94Y-62.52
X115.31Y-81.65
X115.59Y-77.7
X116.11Y-42.76
X116.17Y-62.48
X116.18Y-76.53
X116.34Y-43.95
X116.593Y-90.145
X117.175Y-50.735
X117.485Y-83.5
X118.115Y-54.785
X118.54Y-44.97
X119.69Y-87.92
X119.99Y-58.44
X120.01Y-51.99
X120.27Y-51.23
X120.31Y-59.19
X121.59Y-61.71
X121.68Y-48.7
T2
X62.92Y-100.82
X63.24Y-105.27
X63.32Y-108.88
X63.71Y-89.16
X63.74Y-71.02
X63.74Y-75.27
X63.74Y-80.27
X63.74Y-84.77
X63.99Y-38.27
X67.95Y-71.13
X68.12Y-80.28
X68.24Y-75.27
X68.34Y-84.86
X68.34Y-89.27
X68.898Y-100.66
X68.99Y-105.27
X69.07Y-108.98
X69.99Y-27.77
X70.07Y-31.1
X70.07Y-34.34
X71.86Y-44.05
X72.25Y-40.03
X73.42Y-89.38
X73.87Y-31.1
X73.99Y-27.77
X74.72Y-100.58
X75.15Y-37.02
X75.15Y-39.81
X75.24Y-44.02
X76.72Y-92.54
X78.34Y-37.02
X78.39Y-39.92
X78.45Y-33.89
X78.49Y-43.77
X78.73Y-96.36
X82.49Y-29.77
X82.49Y-32.27
X83.47Y-96.36
X87.27Y-96.3
X89.49Y-102.02
X93.41Y-107.17
X93.41Y-111.24
X93.41Y-118.33
X93.47Y-114.59
X93.49Y-102.02
X96.99Y-102.02
X100.89Y-39.31
X100.94Y-35.96
X100.99Y-32.52
X101.49Y-102.02
X112.99Y-29.02
X112.99Y-32.52
X113.99Y-102.27
X116.49Y-117.52
X117.41Y-36.52
X117.49Y-29.02
X117.49Y-32.52
X119.42Y-105.57
X119.49Y-92.52
X119.49Y-97.77
X119.49Y-102.27
X119.49Y-108.52
X121.1Y-36.57
X121.24Y-66.27
X121.24Y-74.27
X121.24Y-79.77
X121.32Y-83.97
X121.49Y-69.06
X124.49Y-66.27
X124.74Y-36.52
X124.8Y-68.83
X124.8Y-108.79
X124.99Y-40.77
X124.99Y-45.52
T3
X61.6Y-30.5
X61.6Y-115.5
X62.303Y-28.803
X62.303Y-32.197
X62.303Y-113.803
X62.303Y-117.197
X64.0Y-28.1
X64.0Y-32.9
X64.0Y-113.1
X64.0Y-117.9
X65.697Y-28.803
X65.697Y-32.197
X65.697Y-113.803
X65.697Y-117.197
X66.4Y-30.5
X66.4Y-115.5
X121.6Y-30.5
X121.6Y-115.5
X122.303Y-28.803
X122.303Y-32.197
X122.303Y-113.803
X122.303Y-117.197
X124.0Y-28.1
X124.0Y-32.9
X124.0Y-113.1
X124.0Y-117.9
X125.697Y-28.803
X125.697Y-32.197
X125.697Y-113.803
X125.697Y-117.197
X126.4Y-30.5
X126.4Y-115.5
T5
X81.71Y-107.7
X84.25Y-107.7
X106.236Y-107.7
X108.776Y-107.7
T6
X76.63Y-112.78
X86.79Y-112.78
X101.156Y-112.78
X111.316Y-112.78
T7
X64.0Y-30.5
X64.0Y-115.5
X124.0Y-30.5
X124.0Y-115.5
T8
X122.64Y-52.3
X122.64Y-58.08
T4
G00X121.56Y-50.87
M15
G01X122.66Y-50.87
M16
G05
G00X121.56Y-59.51
M15
G01X122.66Y-59.51
M16
G05
G00X125.99Y-50.87
M15
G01X126.59Y-50.87
M16
G05
G00X125.99Y-59.51
M15
G01X126.59Y-59.51
M16
G05
M30
