%TF.GenerationSoftware,KiCad,Pcbnew,9.0.0*%
%TF.CreationDate,2025-12-13T14:21:09+02:00*%
%TF.ProjectId,mixed_signal_hw_pcb,6d697865-645f-4736-9967-6e616c5f6877,rev?*%
%TF.SameCoordinates,Original*%
%TF.FileFunction,Soldermask,Top*%
%TF.FilePolarity,Negative*%
%FSLAX46Y46*%
G04 Gerber Fmt 4.6, Leading zero omitted, Abs format (unit mm)*
G04 Created by KiCad (PCBNEW 9.0.0) date 2025-12-13 14:21:09*
%MOMM*%
%LPD*%
G01*
G04 APERTURE LIST*
G04 Aperture macros list*
%AMRoundRect*
0 Rectangle with rounded corners*
0 $1 Rounding radius*
0 $2 $3 $4 $5 $6 $7 $8 $9 X,Y pos of 4 corners*
0 Add a 4 corners polygon primitive as box body*
4,1,4,$2,$3,$4,$5,$6,$7,$8,$9,$2,$3,0*
0 Add four circle primitives for the rounded corners*
1,1,$1+$1,$2,$3*
1,1,$1+$1,$4,$5*
1,1,$1+$1,$6,$7*
1,1,$1+$1,$8,$9*
0 Add four rect primitives between the rounded corners*
20,1,$1+$1,$2,$3,$4,$5,0*
20,1,$1+$1,$4,$5,$6,$7,0*
20,1,$1+$1,$6,$7,$8,$9,0*
20,1,$1+$1,$8,$9,$2,$3,0*%
%AMFreePoly0*
4,1,9,3.862500,-0.866500,0.737500,-0.866500,0.737500,-0.450000,-0.737500,-0.450000,-0.737500,0.450000,0.737500,0.450000,0.737500,0.866500,3.862500,0.866500,3.862500,-0.866500,3.862500,-0.866500,$1*%
G04 Aperture macros list end*
%ADD10R,0.300000X1.450000*%
%ADD11RoundRect,0.200000X-0.275000X0.200000X-0.275000X-0.200000X0.275000X-0.200000X0.275000X0.200000X0*%
%ADD12RoundRect,0.225000X0.250000X-0.225000X0.250000X0.225000X-0.250000X0.225000X-0.250000X-0.225000X0*%
%ADD13RoundRect,0.250000X-0.475000X0.250000X-0.475000X-0.250000X0.475000X-0.250000X0.475000X0.250000X0*%
%ADD14RoundRect,0.218750X0.218750X0.256250X-0.218750X0.256250X-0.218750X-0.256250X0.218750X-0.256250X0*%
%ADD15RoundRect,0.250000X0.250000X0.475000X-0.250000X0.475000X-0.250000X-0.475000X0.250000X-0.475000X0*%
%ADD16RoundRect,0.225000X0.225000X0.250000X-0.225000X0.250000X-0.225000X-0.250000X0.225000X-0.250000X0*%
%ADD17RoundRect,0.225000X-0.425000X-0.225000X0.425000X-0.225000X0.425000X0.225000X-0.425000X0.225000X0*%
%ADD18FreePoly0,0.000000*%
%ADD19R,1.400000X1.400000*%
%ADD20C,1.400000*%
%ADD21C,3.000000*%
%ADD22RoundRect,0.200000X-0.200000X-0.275000X0.200000X-0.275000X0.200000X0.275000X-0.200000X0.275000X0*%
%ADD23RoundRect,0.200000X0.275000X-0.200000X0.275000X0.200000X-0.275000X0.200000X-0.275000X-0.200000X0*%
%ADD24RoundRect,0.250000X0.475000X-0.250000X0.475000X0.250000X-0.475000X0.250000X-0.475000X-0.250000X0*%
%ADD25R,1.752600X0.762000*%
%ADD26RoundRect,0.200000X0.200000X0.275000X-0.200000X0.275000X-0.200000X-0.275000X0.200000X-0.275000X0*%
%ADD27C,0.800000*%
%ADD28C,6.400000*%
%ADD29RoundRect,0.112500X0.187500X0.112500X-0.187500X0.112500X-0.187500X-0.112500X0.187500X-0.112500X0*%
%ADD30RoundRect,0.112500X-0.112500X0.187500X-0.112500X-0.187500X0.112500X-0.187500X0.112500X0.187500X0*%
%ADD31RoundRect,0.243750X0.243750X0.456250X-0.243750X0.456250X-0.243750X-0.456250X0.243750X-0.456250X0*%
%ADD32RoundRect,0.250000X-0.450000X0.262500X-0.450000X-0.262500X0.450000X-0.262500X0.450000X0.262500X0*%
%ADD33RoundRect,0.150000X-0.512500X-0.150000X0.512500X-0.150000X0.512500X0.150000X-0.512500X0.150000X0*%
%ADD34RoundRect,0.225000X-0.250000X0.225000X-0.250000X-0.225000X0.250000X-0.225000X0.250000X0.225000X0*%
%ADD35RoundRect,0.225000X-0.225000X-0.250000X0.225000X-0.250000X0.225000X0.250000X-0.225000X0.250000X0*%
%ADD36R,0.750000X0.400000*%
%ADD37RoundRect,0.112500X-0.187500X-0.112500X0.187500X-0.112500X0.187500X0.112500X-0.187500X0.112500X0*%
%ADD38RoundRect,0.150000X0.512500X0.150000X-0.512500X0.150000X-0.512500X-0.150000X0.512500X-0.150000X0*%
%ADD39R,0.740000X2.400000*%
%ADD40RoundRect,0.150000X0.150000X-0.512500X0.150000X0.512500X-0.150000X0.512500X-0.150000X-0.512500X0*%
%ADD41RoundRect,0.075000X-0.700000X-0.075000X0.700000X-0.075000X0.700000X0.075000X-0.700000X0.075000X0*%
%ADD42RoundRect,0.075000X-0.075000X-0.700000X0.075000X-0.700000X0.075000X0.700000X-0.075000X0.700000X0*%
%ADD43R,1.400000X1.200000*%
%ADD44C,0.650000*%
%ADD45R,1.450000X0.600000*%
%ADD46R,1.450000X0.300000*%
%ADD47O,2.100000X1.000000*%
%ADD48O,1.600000X1.000000*%
%ADD49RoundRect,0.112500X0.112500X-0.187500X0.112500X0.187500X-0.112500X0.187500X-0.112500X-0.187500X0*%
%ADD50R,2.350000X3.500000*%
%ADD51RoundRect,0.150000X0.587500X0.150000X-0.587500X0.150000X-0.587500X-0.150000X0.587500X-0.150000X0*%
%ADD52RoundRect,0.250000X0.450000X-0.262500X0.450000X0.262500X-0.450000X0.262500X-0.450000X-0.262500X0*%
G04 APERTURE END LIST*
D10*
%TO.C,U303*%
X86000000Y-79250000D03*
X86500000Y-79250000D03*
X87000000Y-79250000D03*
X87500000Y-79250000D03*
X88000000Y-79250000D03*
X88000000Y-74850000D03*
X87500000Y-74850000D03*
X87000000Y-74850000D03*
X86500000Y-74850000D03*
X86000000Y-74850000D03*
%TD*%
%TO.C,U400*%
X112712500Y-78675000D03*
X113212500Y-78675000D03*
X113712500Y-78675000D03*
X114212500Y-78675000D03*
X114712500Y-78675000D03*
X114712500Y-74275000D03*
X114212500Y-74275000D03*
X113712500Y-74275000D03*
X113212500Y-74275000D03*
X112712500Y-74275000D03*
%TD*%
D11*
%TO.C,R105*%
X103660000Y-91105000D03*
X103660000Y-92755000D03*
%TD*%
D12*
%TO.C,C201*%
X84870000Y-52625000D03*
X84870000Y-51075000D03*
%TD*%
D13*
%TO.C,C101*%
X113530000Y-59320000D03*
X113530000Y-61220000D03*
%TD*%
D14*
%TO.C,L100*%
X115687500Y-57480000D03*
X114112500Y-57480000D03*
%TD*%
D15*
%TO.C,C102*%
X101460000Y-77500000D03*
X99560000Y-77500000D03*
%TD*%
D16*
%TO.C,C303*%
X93812500Y-97240000D03*
X92262500Y-97240000D03*
%TD*%
D17*
%TO.C,U100*%
X99800000Y-80000000D03*
D18*
X99887500Y-81500000D03*
D17*
X99800000Y-83000000D03*
%TD*%
D19*
%TO.C,J300*%
X81710000Y-107700000D03*
D20*
X84250000Y-107700000D03*
D21*
X76630000Y-112780000D03*
X86790000Y-112780000D03*
%TD*%
D13*
%TO.C,C104*%
X105300000Y-42250000D03*
X105300000Y-44150000D03*
%TD*%
D22*
%TO.C,R402*%
X111377500Y-83510000D03*
X113027500Y-83510000D03*
%TD*%
D15*
%TO.C,C315*%
X86440000Y-70020000D03*
X84540000Y-70020000D03*
%TD*%
D11*
%TO.C,R308*%
X74760000Y-72990000D03*
X74760000Y-74640000D03*
%TD*%
D23*
%TO.C,R300*%
X95722500Y-99525000D03*
X95722500Y-97875000D03*
%TD*%
D16*
%TO.C,C405*%
X113032500Y-86995000D03*
X111482500Y-86995000D03*
%TD*%
D11*
%TO.C,R200*%
X91580000Y-47035000D03*
X91580000Y-48685000D03*
%TD*%
D24*
%TO.C,C106*%
X106690000Y-49570000D03*
X106690000Y-47670000D03*
%TD*%
D25*
%TO.C,D200*%
X64499400Y-63620000D03*
X66760000Y-63620000D03*
X66760000Y-65070000D03*
X64499400Y-65070000D03*
%TD*%
D16*
%TO.C,C314*%
X86465000Y-72020000D03*
X84915000Y-72020000D03*
%TD*%
D26*
%TO.C,R103*%
X121510000Y-44990000D03*
X119860000Y-44990000D03*
%TD*%
D13*
%TO.C,C105*%
X112300000Y-42300000D03*
X112300000Y-44200000D03*
%TD*%
D27*
%TO.C,H1*%
X61600000Y-30500000D03*
X62302944Y-28802944D03*
X62302944Y-32197056D03*
X64000000Y-28100000D03*
D28*
X64000000Y-30500000D03*
D27*
X64000000Y-32900000D03*
X65697056Y-28802944D03*
X65697056Y-32197056D03*
X66400000Y-30500000D03*
%TD*%
D29*
%TO.C,D300*%
X83800000Y-103500000D03*
X81700000Y-103500000D03*
%TD*%
D30*
%TO.C,D202*%
X95380000Y-34060000D03*
X95380000Y-36160000D03*
%TD*%
D11*
%TO.C,R303*%
X93812500Y-93915000D03*
X93812500Y-95565000D03*
%TD*%
D31*
%TO.C,D100*%
X121437500Y-42780000D03*
X119562500Y-42780000D03*
%TD*%
D13*
%TO.C,C402*%
X110887500Y-74025000D03*
X110887500Y-75925000D03*
%TD*%
D32*
%TO.C,R301*%
X99972500Y-94125000D03*
X99972500Y-95950000D03*
%TD*%
D33*
%TO.C,U301*%
X85015000Y-87350000D03*
X85015000Y-88300000D03*
X85015000Y-89250000D03*
X87290000Y-89250000D03*
X87290000Y-87350000D03*
%TD*%
D34*
%TO.C,C311*%
X84500000Y-74750000D03*
X84500000Y-76300000D03*
%TD*%
D12*
%TO.C,C305*%
X81190000Y-91145000D03*
X81190000Y-89595000D03*
%TD*%
D26*
%TO.C,R206*%
X70745000Y-65340000D03*
X69095000Y-65340000D03*
%TD*%
D23*
%TO.C,R101*%
X108790000Y-47645000D03*
X108790000Y-45995000D03*
%TD*%
D16*
%TO.C,C213*%
X117175000Y-51840000D03*
X115625000Y-51840000D03*
%TD*%
D26*
%TO.C,R305*%
X84547500Y-91175000D03*
X82897500Y-91175000D03*
%TD*%
D35*
%TO.C,C307*%
X86507500Y-84020000D03*
X88057500Y-84020000D03*
%TD*%
D34*
%TO.C,C313*%
X84500000Y-79275000D03*
X84500000Y-80825000D03*
%TD*%
D16*
%TO.C,C203*%
X97215000Y-65020000D03*
X95665000Y-65020000D03*
%TD*%
D15*
%TO.C,C309*%
X80000000Y-83050000D03*
X78100000Y-83050000D03*
%TD*%
D36*
%TO.C,FL200*%
X111895000Y-55280000D03*
X111895000Y-54480000D03*
X110045000Y-54480000D03*
X110045000Y-55280000D03*
%TD*%
D24*
%TO.C,C103*%
X97550000Y-83200000D03*
X97550000Y-81300000D03*
%TD*%
D35*
%TO.C,C403*%
X114765000Y-83510000D03*
X116315000Y-83510000D03*
%TD*%
D22*
%TO.C,R213*%
X122695000Y-48720000D03*
X124345000Y-48720000D03*
%TD*%
D35*
%TO.C,C205*%
X88325000Y-48880000D03*
X89875000Y-48880000D03*
%TD*%
D22*
%TO.C,R212*%
X122685000Y-61700000D03*
X124335000Y-61700000D03*
%TD*%
D37*
%TO.C,D201*%
X91362500Y-28460000D03*
X93462500Y-28460000D03*
%TD*%
D38*
%TO.C,U101*%
X109937500Y-44200000D03*
X109937500Y-43250000D03*
X109937500Y-42300000D03*
X107662500Y-42300000D03*
X107662500Y-44200000D03*
%TD*%
D26*
%TO.C,R207*%
X66160000Y-67230000D03*
X64510000Y-67230000D03*
%TD*%
D27*
%TO.C,H4*%
X61600000Y-115500000D03*
X62302944Y-113802944D03*
X62302944Y-117197056D03*
X64000000Y-113100000D03*
D28*
X64000000Y-115500000D03*
D27*
X64000000Y-117900000D03*
X65697056Y-113802944D03*
X65697056Y-117197056D03*
X66400000Y-115500000D03*
%TD*%
D33*
%TO.C,U305*%
X103665000Y-87460000D03*
X103665000Y-88410000D03*
X103665000Y-89360000D03*
X105940000Y-89360000D03*
X105940000Y-87460000D03*
%TD*%
D15*
%TO.C,C308*%
X74830000Y-70870000D03*
X72930000Y-70870000D03*
%TD*%
D24*
%TO.C,C207*%
X81430000Y-59395000D03*
X81430000Y-57495000D03*
%TD*%
D12*
%TO.C,C406*%
X111150000Y-92810000D03*
X111150000Y-91260000D03*
%TD*%
D29*
%TO.C,D203*%
X93380000Y-39460000D03*
X91280000Y-39460000D03*
%TD*%
D11*
%TO.C,R204*%
X100930000Y-61490000D03*
X100930000Y-63140000D03*
%TD*%
D26*
%TO.C,R201*%
X90215000Y-67020000D03*
X88565000Y-67020000D03*
%TD*%
D13*
%TO.C,C107*%
X100650000Y-89460000D03*
X100650000Y-91360000D03*
%TD*%
D12*
%TO.C,C302*%
X91992500Y-90765000D03*
X91992500Y-89215000D03*
%TD*%
D24*
%TO.C,C208*%
X78930000Y-59345000D03*
X78930000Y-57445000D03*
%TD*%
D23*
%TO.C,R203*%
X104490000Y-54270000D03*
X104490000Y-52620000D03*
%TD*%
%TO.C,R304*%
X86222500Y-92750000D03*
X86222500Y-91100000D03*
%TD*%
D16*
%TO.C,C202*%
X89215000Y-65070000D03*
X87665000Y-65070000D03*
%TD*%
D39*
%TO.C,J201*%
X92830000Y-32060000D03*
X92830000Y-35960000D03*
X91560000Y-32060000D03*
X91560000Y-35960000D03*
X90290000Y-32060000D03*
X90290000Y-35960000D03*
X89020000Y-32060000D03*
X89020000Y-35960000D03*
X87750000Y-32060000D03*
X87750000Y-35960000D03*
%TD*%
D40*
%TO.C,U300*%
X93847500Y-91700000D03*
X94797500Y-91700000D03*
X95747500Y-91700000D03*
X95747500Y-89425000D03*
X93847500Y-89425000D03*
%TD*%
D22*
%TO.C,R209*%
X91505000Y-41560000D03*
X93155000Y-41560000D03*
%TD*%
D14*
%TO.C,L200*%
X80915000Y-61360000D03*
X79340000Y-61360000D03*
%TD*%
D38*
%TO.C,U201*%
X116867500Y-55690000D03*
X116867500Y-54740000D03*
X116867500Y-53790000D03*
X114592500Y-53790000D03*
X114592500Y-54740000D03*
X114592500Y-55690000D03*
%TD*%
D41*
%TO.C,U200*%
X86935000Y-53110000D03*
X86935000Y-53610000D03*
X86935000Y-54110000D03*
X86935000Y-54610000D03*
X86935000Y-55110000D03*
X86935000Y-55610000D03*
X86935000Y-56110000D03*
X86935000Y-56610000D03*
X86935000Y-57110000D03*
X86935000Y-57610000D03*
X86935000Y-58110000D03*
X86935000Y-58610000D03*
X86935000Y-59110000D03*
X86935000Y-59610000D03*
X86935000Y-60110000D03*
X86935000Y-60610000D03*
D42*
X88860000Y-62535000D03*
X89360000Y-62535000D03*
X89860000Y-62535000D03*
X90360000Y-62535000D03*
X90860000Y-62535000D03*
X91360000Y-62535000D03*
X91860000Y-62535000D03*
X92360000Y-62535000D03*
X92860000Y-62535000D03*
X93360000Y-62535000D03*
X93860000Y-62535000D03*
X94360000Y-62535000D03*
X94860000Y-62535000D03*
X95360000Y-62535000D03*
X95860000Y-62535000D03*
X96360000Y-62535000D03*
D41*
X98285000Y-60610000D03*
X98285000Y-60110000D03*
X98285000Y-59610000D03*
X98285000Y-59110000D03*
X98285000Y-58610000D03*
X98285000Y-58110000D03*
X98285000Y-57610000D03*
X98285000Y-57110000D03*
X98285000Y-56610000D03*
X98285000Y-56110000D03*
X98285000Y-55610000D03*
X98285000Y-55110000D03*
X98285000Y-54610000D03*
X98285000Y-54110000D03*
X98285000Y-53610000D03*
X98285000Y-53110000D03*
D42*
X96360000Y-51185000D03*
X95860000Y-51185000D03*
X95360000Y-51185000D03*
X94860000Y-51185000D03*
X94360000Y-51185000D03*
X93860000Y-51185000D03*
X93360000Y-51185000D03*
X92860000Y-51185000D03*
X92360000Y-51185000D03*
X91860000Y-51185000D03*
X91360000Y-51185000D03*
X90860000Y-51185000D03*
X90360000Y-51185000D03*
X89860000Y-51185000D03*
X89360000Y-51185000D03*
X88860000Y-51185000D03*
%TD*%
D13*
%TO.C,C312*%
X82380000Y-79150000D03*
X82380000Y-81050000D03*
%TD*%
D12*
%TO.C,C206*%
X83430000Y-59170000D03*
X83430000Y-57620000D03*
%TD*%
D43*
%TO.C,Y200*%
X77800000Y-51790000D03*
X75600000Y-51790000D03*
X75600000Y-53490000D03*
X77800000Y-53490000D03*
%TD*%
D38*
%TO.C,U401*%
X115340000Y-91240000D03*
X115340000Y-90290000D03*
X115340000Y-89340000D03*
X113065000Y-89340000D03*
X113065000Y-91240000D03*
%TD*%
D44*
%TO.C,J200*%
X122640000Y-58080000D03*
X122640000Y-52300000D03*
D45*
X121195000Y-58440000D03*
X121195000Y-57640000D03*
D46*
X121195000Y-56440000D03*
X121195000Y-55440000D03*
X121195000Y-54940000D03*
X121195000Y-53940000D03*
D45*
X121195000Y-52740000D03*
X121195000Y-51940000D03*
X121195000Y-51940000D03*
X121195000Y-52740000D03*
D46*
X121195000Y-53440000D03*
X121195000Y-54440000D03*
X121195000Y-55940000D03*
X121195000Y-56940000D03*
D45*
X121195000Y-57640000D03*
X121195000Y-58440000D03*
D47*
X122110000Y-59510000D03*
D48*
X126290000Y-59510000D03*
D47*
X122110000Y-50870000D03*
D48*
X126290000Y-50870000D03*
%TD*%
D49*
%TO.C,D205*%
X85330000Y-37760000D03*
X85330000Y-35660000D03*
%TD*%
D26*
%TO.C,R102*%
X106715000Y-45920000D03*
X105065000Y-45920000D03*
%TD*%
D35*
%TO.C,C304*%
X87947500Y-91175000D03*
X89497500Y-91175000D03*
%TD*%
D12*
%TO.C,C108*%
X107920000Y-88995000D03*
X107920000Y-87445000D03*
%TD*%
D11*
%TO.C,R211*%
X83330000Y-35760000D03*
X83330000Y-37410000D03*
%TD*%
%TO.C,R100*%
X101610000Y-73715000D03*
X101610000Y-75365000D03*
%TD*%
D26*
%TO.C,R104*%
X107405000Y-91250000D03*
X105755000Y-91250000D03*
%TD*%
D37*
%TO.C,D204*%
X87530000Y-39460000D03*
X89630000Y-39460000D03*
%TD*%
D11*
%TO.C,R208*%
X95360000Y-37725000D03*
X95360000Y-39375000D03*
%TD*%
D13*
%TO.C,C310*%
X82250000Y-74650000D03*
X82250000Y-76550000D03*
%TD*%
D26*
%TO.C,R401*%
X114200000Y-81650000D03*
X112550000Y-81650000D03*
%TD*%
D11*
%TO.C,R405*%
X115472500Y-92850000D03*
X115472500Y-94500000D03*
%TD*%
D27*
%TO.C,H3*%
X121600000Y-115500000D03*
X122302944Y-113802944D03*
X122302944Y-117197056D03*
X124000000Y-113100000D03*
D28*
X124000000Y-115500000D03*
D27*
X124000000Y-117900000D03*
X125697056Y-113802944D03*
X125697056Y-117197056D03*
X126400000Y-115500000D03*
%TD*%
D19*
%TO.C,J400*%
X106236000Y-107700000D03*
D20*
X108776000Y-107700000D03*
D21*
X101156000Y-112780000D03*
X111316000Y-112780000D03*
%TD*%
D12*
%TO.C,C209*%
X80360000Y-53585000D03*
X80360000Y-52035000D03*
%TD*%
D22*
%TO.C,R404*%
X116457500Y-86995000D03*
X118107500Y-86995000D03*
%TD*%
D50*
%TO.C,L101*%
X106025000Y-37250000D03*
X112075000Y-37250000D03*
%TD*%
D12*
%TO.C,C301*%
X95722500Y-95975000D03*
X95722500Y-94425000D03*
%TD*%
D24*
%TO.C,C200*%
X82820000Y-52825000D03*
X82820000Y-50925000D03*
%TD*%
D15*
%TO.C,C400*%
X112587500Y-70025000D03*
X110687500Y-70025000D03*
%TD*%
D26*
%TO.C,R205*%
X70745000Y-63330000D03*
X69095000Y-63330000D03*
%TD*%
D51*
%TO.C,U302*%
X79937500Y-81000000D03*
X79937500Y-79100000D03*
X78062500Y-80050000D03*
%TD*%
D11*
%TO.C,R400*%
X114190000Y-66765000D03*
X114190000Y-68415000D03*
%TD*%
D16*
%TO.C,C210*%
X76135000Y-55535000D03*
X74585000Y-55535000D03*
%TD*%
D12*
%TO.C,C300*%
X97722500Y-95975000D03*
X97722500Y-94425000D03*
%TD*%
D35*
%TO.C,C404*%
X118130000Y-89060000D03*
X119680000Y-89060000D03*
%TD*%
D11*
%TO.C,R403*%
X114782500Y-85420000D03*
X114782500Y-87070000D03*
%TD*%
D35*
%TO.C,C212*%
X83285000Y-39450000D03*
X84835000Y-39450000D03*
%TD*%
%TO.C,C211*%
X64505000Y-61370000D03*
X66055000Y-61370000D03*
%TD*%
D27*
%TO.C,H2*%
X121600000Y-30500000D03*
X122302944Y-28802944D03*
X122302944Y-32197056D03*
X124000000Y-28100000D03*
D28*
X124000000Y-30500000D03*
D27*
X124000000Y-32900000D03*
X125697056Y-28802944D03*
X125697056Y-32197056D03*
X126400000Y-30500000D03*
%TD*%
D23*
%TO.C,R306*%
X84792500Y-85595000D03*
X84792500Y-83945000D03*
%TD*%
D13*
%TO.C,C100*%
X115980000Y-59340000D03*
X115980000Y-61240000D03*
%TD*%
D23*
%TO.C,R307*%
X89792500Y-85595000D03*
X89792500Y-83945000D03*
%TD*%
D12*
%TO.C,C306*%
X89670000Y-88895000D03*
X89670000Y-87345000D03*
%TD*%
D23*
%TO.C,R309*%
X91240000Y-70920000D03*
X91240000Y-69270000D03*
%TD*%
D34*
%TO.C,C204*%
X100600000Y-51605000D03*
X100600000Y-53155000D03*
%TD*%
D22*
%TO.C,R210*%
X87525000Y-41680000D03*
X89175000Y-41680000D03*
%TD*%
D29*
%TO.C,D400*%
X108377500Y-103400000D03*
X106277500Y-103400000D03*
%TD*%
D22*
%TO.C,R202*%
X77860000Y-55535000D03*
X79510000Y-55535000D03*
%TD*%
D52*
%TO.C,R302*%
X97910000Y-91845000D03*
X97910000Y-90020000D03*
%TD*%
D16*
%TO.C,C401*%
X112662500Y-72025000D03*
X111112500Y-72025000D03*
%TD*%
M02*
