%TF.GenerationSoftware,KiCad,Pcbnew,9.0.0*%
%TF.CreationDate,2025-12-13T14:21:09+02:00*%
%TF.ProjectId,mixed_signal_hw_pcb,6d697865-645f-4736-9967-6e616c5f6877,rev?*%
%TF.SameCoordinates,Original*%
%TF.FileFunction,Copper,L1,Top*%
%TF.FilePolarity,Positive*%
%FSLAX46Y46*%
G04 Gerber Fmt 4.6, Leading zero omitted, Abs format (unit mm)*
G04 Created by KiCad (PCBNEW 9.0.0) date 2025-12-13 14:21:09*
%MOMM*%
%LPD*%
G01*
G04 APERTURE LIST*
G04 Aperture macros list*
%AMRoundRect*
0 Rectangle with rounded corners*
0 $1 Rounding radius*
0 $2 $3 $4 $5 $6 $7 $8 $9 X,Y pos of 4 corners*
0 Add a 4 corners polygon primitive as box body*
4,1,4,$2,$3,$4,$5,$6,$7,$8,$9,$2,$3,0*
0 Add four circle primitives for the rounded corners*
1,1,$1+$1,$2,$3*
1,1,$1+$1,$4,$5*
1,1,$1+$1,$6,$7*
1,1,$1+$1,$8,$9*
0 Add four rect primitives between the rounded corners*
20,1,$1+$1,$2,$3,$4,$5,0*
20,1,$1+$1,$4,$5,$6,$7,0*
20,1,$1+$1,$6,$7,$8,$9,0*
20,1,$1+$1,$8,$9,$2,$3,0*%
%AMFreePoly0*
4,1,9,3.862500,-0.866500,0.737500,-0.866500,0.737500,-0.450000,-0.737500,-0.450000,-0.737500,0.450000,0.737500,0.450000,0.737500,0.866500,3.862500,0.866500,3.862500,-0.866500,3.862500,-0.866500,$1*%
G04 Aperture macros list end*
%TA.AperFunction,SMDPad,CuDef*%
%ADD10R,0.300000X1.450000*%
%TD*%
%TA.AperFunction,SMDPad,CuDef*%
%ADD11RoundRect,0.200000X-0.275000X0.200000X-0.275000X-0.200000X0.275000X-0.200000X0.275000X0.200000X0*%
%TD*%
%TA.AperFunction,SMDPad,CuDef*%
%ADD12RoundRect,0.225000X0.250000X-0.225000X0.250000X0.225000X-0.250000X0.225000X-0.250000X-0.225000X0*%
%TD*%
%TA.AperFunction,SMDPad,CuDef*%
%ADD13RoundRect,0.250000X-0.475000X0.250000X-0.475000X-0.250000X0.475000X-0.250000X0.475000X0.250000X0*%
%TD*%
%TA.AperFunction,SMDPad,CuDef*%
%ADD14RoundRect,0.218750X0.218750X0.256250X-0.218750X0.256250X-0.218750X-0.256250X0.218750X-0.256250X0*%
%TD*%
%TA.AperFunction,SMDPad,CuDef*%
%ADD15RoundRect,0.250000X0.250000X0.475000X-0.250000X0.475000X-0.250000X-0.475000X0.250000X-0.475000X0*%
%TD*%
%TA.AperFunction,SMDPad,CuDef*%
%ADD16RoundRect,0.225000X0.225000X0.250000X-0.225000X0.250000X-0.225000X-0.250000X0.225000X-0.250000X0*%
%TD*%
%TA.AperFunction,SMDPad,CuDef*%
%ADD17RoundRect,0.225000X-0.425000X-0.225000X0.425000X-0.225000X0.425000X0.225000X-0.425000X0.225000X0*%
%TD*%
%TA.AperFunction,SMDPad,CuDef*%
%ADD18FreePoly0,0.000000*%
%TD*%
%TA.AperFunction,ComponentPad*%
%ADD19R,1.400000X1.400000*%
%TD*%
%TA.AperFunction,ComponentPad*%
%ADD20C,1.400000*%
%TD*%
%TA.AperFunction,ComponentPad*%
%ADD21C,3.000000*%
%TD*%
%TA.AperFunction,SMDPad,CuDef*%
%ADD22RoundRect,0.200000X-0.200000X-0.275000X0.200000X-0.275000X0.200000X0.275000X-0.200000X0.275000X0*%
%TD*%
%TA.AperFunction,SMDPad,CuDef*%
%ADD23RoundRect,0.200000X0.275000X-0.200000X0.275000X0.200000X-0.275000X0.200000X-0.275000X-0.200000X0*%
%TD*%
%TA.AperFunction,SMDPad,CuDef*%
%ADD24RoundRect,0.250000X0.475000X-0.250000X0.475000X0.250000X-0.475000X0.250000X-0.475000X-0.250000X0*%
%TD*%
%TA.AperFunction,SMDPad,CuDef*%
%ADD25R,1.752600X0.762000*%
%TD*%
%TA.AperFunction,SMDPad,CuDef*%
%ADD26RoundRect,0.200000X0.200000X0.275000X-0.200000X0.275000X-0.200000X-0.275000X0.200000X-0.275000X0*%
%TD*%
%TA.AperFunction,ComponentPad*%
%ADD27C,0.800000*%
%TD*%
%TA.AperFunction,ComponentPad*%
%ADD28C,6.400000*%
%TD*%
%TA.AperFunction,SMDPad,CuDef*%
%ADD29RoundRect,0.112500X0.187500X0.112500X-0.187500X0.112500X-0.187500X-0.112500X0.187500X-0.112500X0*%
%TD*%
%TA.AperFunction,SMDPad,CuDef*%
%ADD30RoundRect,0.112500X-0.112500X0.187500X-0.112500X-0.187500X0.112500X-0.187500X0.112500X0.187500X0*%
%TD*%
%TA.AperFunction,SMDPad,CuDef*%
%ADD31RoundRect,0.243750X0.243750X0.456250X-0.243750X0.456250X-0.243750X-0.456250X0.243750X-0.456250X0*%
%TD*%
%TA.AperFunction,SMDPad,CuDef*%
%ADD32RoundRect,0.250000X-0.450000X0.262500X-0.450000X-0.262500X0.450000X-0.262500X0.450000X0.262500X0*%
%TD*%
%TA.AperFunction,SMDPad,CuDef*%
%ADD33RoundRect,0.150000X-0.512500X-0.150000X0.512500X-0.150000X0.512500X0.150000X-0.512500X0.150000X0*%
%TD*%
%TA.AperFunction,SMDPad,CuDef*%
%ADD34RoundRect,0.225000X-0.250000X0.225000X-0.250000X-0.225000X0.250000X-0.225000X0.250000X0.225000X0*%
%TD*%
%TA.AperFunction,SMDPad,CuDef*%
%ADD35RoundRect,0.225000X-0.225000X-0.250000X0.225000X-0.250000X0.225000X0.250000X-0.225000X0.250000X0*%
%TD*%
%TA.AperFunction,SMDPad,CuDef*%
%ADD36R,0.750000X0.400000*%
%TD*%
%TA.AperFunction,SMDPad,CuDef*%
%ADD37RoundRect,0.112500X-0.187500X-0.112500X0.187500X-0.112500X0.187500X0.112500X-0.187500X0.112500X0*%
%TD*%
%TA.AperFunction,SMDPad,CuDef*%
%ADD38RoundRect,0.150000X0.512500X0.150000X-0.512500X0.150000X-0.512500X-0.150000X0.512500X-0.150000X0*%
%TD*%
%TA.AperFunction,SMDPad,CuDef*%
%ADD39R,0.740000X2.400000*%
%TD*%
%TA.AperFunction,SMDPad,CuDef*%
%ADD40RoundRect,0.150000X0.150000X-0.512500X0.150000X0.512500X-0.150000X0.512500X-0.150000X-0.512500X0*%
%TD*%
%TA.AperFunction,SMDPad,CuDef*%
%ADD41RoundRect,0.075000X-0.700000X-0.075000X0.700000X-0.075000X0.700000X0.075000X-0.700000X0.075000X0*%
%TD*%
%TA.AperFunction,SMDPad,CuDef*%
%ADD42RoundRect,0.075000X-0.075000X-0.700000X0.075000X-0.700000X0.075000X0.700000X-0.075000X0.700000X0*%
%TD*%
%TA.AperFunction,SMDPad,CuDef*%
%ADD43R,1.400000X1.200000*%
%TD*%
%TA.AperFunction,SMDPad,CuDef*%
%ADD44R,1.450000X0.600000*%
%TD*%
%TA.AperFunction,SMDPad,CuDef*%
%ADD45R,1.450000X0.300000*%
%TD*%
%TA.AperFunction,HeatsinkPad*%
%ADD46O,2.100000X1.000000*%
%TD*%
%TA.AperFunction,HeatsinkPad*%
%ADD47O,1.600000X1.000000*%
%TD*%
%TA.AperFunction,SMDPad,CuDef*%
%ADD48RoundRect,0.112500X0.112500X-0.187500X0.112500X0.187500X-0.112500X0.187500X-0.112500X-0.187500X0*%
%TD*%
%TA.AperFunction,SMDPad,CuDef*%
%ADD49R,2.350000X3.500000*%
%TD*%
%TA.AperFunction,SMDPad,CuDef*%
%ADD50RoundRect,0.150000X0.587500X0.150000X-0.587500X0.150000X-0.587500X-0.150000X0.587500X-0.150000X0*%
%TD*%
%TA.AperFunction,SMDPad,CuDef*%
%ADD51RoundRect,0.250000X0.450000X-0.262500X0.450000X0.262500X-0.450000X0.262500X-0.450000X-0.262500X0*%
%TD*%
%TA.AperFunction,ViaPad*%
%ADD52C,0.800000*%
%TD*%
%TA.AperFunction,ViaPad*%
%ADD53C,0.600000*%
%TD*%
%TA.AperFunction,Conductor*%
%ADD54C,0.261112*%
%TD*%
%TA.AperFunction,Conductor*%
%ADD55C,0.200000*%
%TD*%
%TA.AperFunction,Conductor*%
%ADD56C,0.300000*%
%TD*%
%TA.AperFunction,Conductor*%
%ADD57C,0.500000*%
%TD*%
%TA.AperFunction,Conductor*%
%ADD58C,0.293000*%
%TD*%
G04 APERTURE END LIST*
D10*
%TO.P,U303,1,VREF*%
%TO.N,/ADC/ADC_VREF*%
X86000000Y-79250000D03*
%TO.P,U303,2,+IN*%
%TO.N,ADC_IN+*%
X86500000Y-79250000D03*
%TO.P,U303,3,-IN*%
%TO.N,ADC_IN-*%
X87000000Y-79250000D03*
%TO.P,U303,4,GND*%
%TO.N,GND*%
X87500000Y-79250000D03*
%TO.P,U303,5,GND*%
X88000000Y-79250000D03*
%TO.P,U303,6,NCS*%
%TO.N,SPI1_NSS*%
X88000000Y-74850000D03*
%TO.P,U303,7,DOUT*%
%TO.N,SPI1_MISO*%
X87500000Y-74850000D03*
%TO.P,U303,8,SCLK*%
%TO.N,/ADC/ADC_SCLK*%
X87000000Y-74850000D03*
%TO.P,U303,9,VIO*%
%TO.N,+3V3*%
X86500000Y-74850000D03*
%TO.P,U303,10,VA*%
%TO.N,+3.3VA*%
X86000000Y-74850000D03*
%TD*%
%TO.P,U400,1,VOUT_A*%
%TO.N,/DAC/DAC_OUT_A*%
X112712500Y-78675000D03*
%TO.P,U400,2,VOUT_B*%
%TO.N,/DAC/DAC_OUT_B*%
X113212500Y-78675000D03*
%TO.P,U400,3,GND*%
%TO.N,GND*%
X113712500Y-78675000D03*
%TO.P,U400,4,NLDAC*%
%TO.N,DAC_NLDAC*%
X114212500Y-78675000D03*
%TO.P,U400,5,NCLR*%
%TO.N,DAC_NCLR*%
X114712500Y-78675000D03*
%TO.P,U400,6,NSYNC*%
%TO.N,SPI2_NSS*%
X114712500Y-74275000D03*
%TO.P,U400,7,SCLK*%
%TO.N,/DAC/DAC_SCLK*%
X114212500Y-74275000D03*
%TO.P,U400,8,DIN*%
%TO.N,SPI2_MOSI*%
X113712500Y-74275000D03*
%TO.P,U400,9,AVDD*%
%TO.N,+3V3*%
X113212500Y-74275000D03*
%TO.P,U400,10,VREFIN/VREFOUT*%
%TO.N,/DAC/DAC_VREF*%
X112712500Y-74275000D03*
%TD*%
D11*
%TO.P,R105,1*%
%TO.N,/Power/VREF*%
X103660000Y-91105000D03*
%TO.P,R105,2*%
%TO.N,GND*%
X103660000Y-92755000D03*
%TD*%
D12*
%TO.P,C201,1*%
%TO.N,+3V3*%
X84870000Y-52625000D03*
%TO.P,C201,2*%
%TO.N,GND*%
X84870000Y-51075000D03*
%TD*%
D13*
%TO.P,C101,1*%
%TO.N,+5V*%
X113530000Y-59320000D03*
%TO.P,C101,2*%
%TO.N,GND*%
X113530000Y-61220000D03*
%TD*%
D14*
%TO.P,L100,1,1*%
%TO.N,VBUS*%
X115687500Y-57480000D03*
%TO.P,L100,2,2*%
%TO.N,+5V*%
X114112500Y-57480000D03*
%TD*%
D15*
%TO.P,C102,1*%
%TO.N,/Power/+5V_FILT*%
X101460000Y-77500000D03*
%TO.P,C102,2*%
%TO.N,GND*%
X99560000Y-77500000D03*
%TD*%
D16*
%TO.P,C303,1*%
%TO.N,Net-(C303-Pad1)*%
X93812500Y-97240000D03*
%TO.P,C303,2*%
%TO.N,GND*%
X92262500Y-97240000D03*
%TD*%
D17*
%TO.P,U100,1,GND*%
%TO.N,GND*%
X99800000Y-80000000D03*
D18*
%TO.P,U100,2,VIN*%
%TO.N,/Power/+5V_FILT*%
X99887500Y-81500000D03*
D17*
%TO.P,U100,3,VOUT*%
%TO.N,+3.3VA*%
X99800000Y-83000000D03*
%TD*%
D19*
%TO.P,J300,1,In*%
%TO.N,/ADC/IN*%
X81710000Y-107700000D03*
D20*
%TO.P,J300,2,Ext*%
%TO.N,GND*%
X84250000Y-107700000D03*
D21*
%TO.P,J300,3*%
%TO.N,N/C*%
X76630000Y-112780000D03*
%TO.P,J300,4*%
X86790000Y-112780000D03*
%TD*%
D13*
%TO.P,C104,1*%
%TO.N,+5V*%
X105300000Y-42250000D03*
%TO.P,C104,2*%
%TO.N,GND*%
X105300000Y-44150000D03*
%TD*%
D22*
%TO.P,R402,1*%
%TO.N,/DAC/DAC_OUT_A*%
X111377500Y-83510000D03*
%TO.P,R402,2*%
%TO.N,Net-(C403-Pad1)*%
X113027500Y-83510000D03*
%TD*%
D15*
%TO.P,C315,1*%
%TO.N,+3V3*%
X86440000Y-70020000D03*
%TO.P,C315,2*%
%TO.N,GND*%
X84540000Y-70020000D03*
%TD*%
D11*
%TO.P,R308,1*%
%TO.N,+5V*%
X74760000Y-72990000D03*
%TO.P,R308,2*%
%TO.N,/ADC/ADC_VREF_VIN*%
X74760000Y-74640000D03*
%TD*%
D23*
%TO.P,R300,1*%
%TO.N,/ADC/IN*%
X95722500Y-99525000D03*
%TO.P,R300,2*%
%TO.N,/ADC/IN_RF*%
X95722500Y-97875000D03*
%TD*%
D16*
%TO.P,C405,1*%
%TO.N,Net-(C405-Pad1)*%
X113032500Y-86995000D03*
%TO.P,C405,2*%
%TO.N,/DAC/OUT_BUF_AA_OUT*%
X111482500Y-86995000D03*
%TD*%
D11*
%TO.P,R200,1*%
%TO.N,GND*%
X91580000Y-47035000D03*
%TO.P,R200,2*%
%TO.N,/MCU/BOOT0*%
X91580000Y-48685000D03*
%TD*%
D24*
%TO.P,C106,1*%
%TO.N,+3V3*%
X106690000Y-49570000D03*
%TO.P,C106,2*%
%TO.N,/Power/BUCK_FB*%
X106690000Y-47670000D03*
%TD*%
D25*
%TO.P,D200,1,A*%
%TO.N,+3V3*%
X64499400Y-63620000D03*
%TO.P,D200,2,RK*%
%TO.N,/MCU/CH1_R*%
X66760000Y-63620000D03*
%TO.P,D200,3,GK*%
%TO.N,/MCU/CH2_G*%
X66760000Y-65070000D03*
%TO.P,D200,4,BK*%
%TO.N,/MCU/CH3_B*%
X64499400Y-65070000D03*
%TD*%
D16*
%TO.P,C314,1*%
%TO.N,+3V3*%
X86465000Y-72020000D03*
%TO.P,C314,2*%
%TO.N,GND*%
X84915000Y-72020000D03*
%TD*%
D26*
%TO.P,R103,1*%
%TO.N,/Power/LED_PWR_K*%
X121510000Y-44990000D03*
%TO.P,R103,2*%
%TO.N,GND*%
X119860000Y-44990000D03*
%TD*%
D13*
%TO.P,C105,1*%
%TO.N,+3V3*%
X112300000Y-42300000D03*
%TO.P,C105,2*%
%TO.N,GND*%
X112300000Y-44200000D03*
%TD*%
D27*
%TO.P,H1,1,1*%
%TO.N,GND*%
X61600000Y-30500000D03*
X62302944Y-28802944D03*
X62302944Y-32197056D03*
X64000000Y-28100000D03*
D28*
X64000000Y-30500000D03*
D27*
X64000000Y-32900000D03*
X65697056Y-28802944D03*
X65697056Y-32197056D03*
X66400000Y-30500000D03*
%TD*%
D29*
%TO.P,D300,1,A1*%
%TO.N,GND*%
X83800000Y-103500000D03*
%TO.P,D300,2,A2*%
%TO.N,/ADC/IN*%
X81700000Y-103500000D03*
%TD*%
D30*
%TO.P,D202,1,A1*%
%TO.N,GND*%
X95380000Y-34060000D03*
%TO.P,D202,2,A2*%
%TO.N,/MCU/CON_SWDIO*%
X95380000Y-36160000D03*
%TD*%
D11*
%TO.P,R303,1*%
%TO.N,/ADC/IN_BUF_OUT*%
X93812500Y-93915000D03*
%TO.P,R303,2*%
%TO.N,Net-(C303-Pad1)*%
X93812500Y-95565000D03*
%TD*%
D31*
%TO.P,D100,1,K*%
%TO.N,/Power/LED_PWR_K*%
X121437500Y-42780000D03*
%TO.P,D100,2,A*%
%TO.N,+3V3*%
X119562500Y-42780000D03*
%TD*%
D13*
%TO.P,C402,1*%
%TO.N,/DAC/DAC_VREF*%
X110887500Y-74025000D03*
%TO.P,C402,2*%
%TO.N,GND*%
X110887500Y-75925000D03*
%TD*%
D32*
%TO.P,R301,1*%
%TO.N,GND*%
X99972500Y-94125000D03*
%TO.P,R301,2*%
%TO.N,/ADC/IN_RF*%
X99972500Y-95950000D03*
%TD*%
D33*
%TO.P,U301,1*%
%TO.N,/ADC/IN_AA_BUF_OUT*%
X85015000Y-87350000D03*
%TO.P,U301,2,V-*%
%TO.N,GND*%
X85015000Y-88300000D03*
%TO.P,U301,3,+*%
%TO.N,/ADC/IN_AA_BUF_IN*%
X85015000Y-89250000D03*
%TO.P,U301,4,-*%
%TO.N,/ADC/IN_AA_BUF_OUT*%
X87290000Y-89250000D03*
%TO.P,U301,5,V+*%
%TO.N,+3.3VA*%
X87290000Y-87350000D03*
%TD*%
D34*
%TO.P,C311,1*%
%TO.N,+3.3VA*%
X84500000Y-74750000D03*
%TO.P,C311,2*%
%TO.N,GND*%
X84500000Y-76300000D03*
%TD*%
D12*
%TO.P,C305,1*%
%TO.N,/ADC/IN_AA_BUF_IN*%
X81190000Y-91145000D03*
%TO.P,C305,2*%
%TO.N,GND*%
X81190000Y-89595000D03*
%TD*%
D26*
%TO.P,R206,1*%
%TO.N,TM2_CH2*%
X70745000Y-65340000D03*
%TO.P,R206,2*%
%TO.N,/MCU/CH2_G*%
X69095000Y-65340000D03*
%TD*%
D23*
%TO.P,R101,1*%
%TO.N,+3V3*%
X108790000Y-47645000D03*
%TO.P,R101,2*%
%TO.N,/Power/BUCK_FB*%
X108790000Y-45995000D03*
%TD*%
D16*
%TO.P,C213,1*%
%TO.N,GND*%
X117175000Y-51840000D03*
%TO.P,C213,2*%
%TO.N,VBUS*%
X115625000Y-51840000D03*
%TD*%
D26*
%TO.P,R305,1*%
%TO.N,Net-(C304-Pad1)*%
X84547500Y-91175000D03*
%TO.P,R305,2*%
%TO.N,/ADC/IN_AA_BUF_IN*%
X82897500Y-91175000D03*
%TD*%
D35*
%TO.P,C307,1*%
%TO.N,ADC_IN+*%
X86507500Y-84020000D03*
%TO.P,C307,2*%
%TO.N,ADC_IN-*%
X88057500Y-84020000D03*
%TD*%
D34*
%TO.P,C313,1*%
%TO.N,/ADC/ADC_VREF*%
X84500000Y-79275000D03*
%TO.P,C313,2*%
%TO.N,GND*%
X84500000Y-80825000D03*
%TD*%
D16*
%TO.P,C203,1*%
%TO.N,+3V3*%
X97215000Y-65020000D03*
%TO.P,C203,2*%
%TO.N,GND*%
X95665000Y-65020000D03*
%TD*%
D15*
%TO.P,C309,1*%
%TO.N,/ADC/ADC_VREF_VIN*%
X80000000Y-83050000D03*
%TO.P,C309,2*%
%TO.N,GND*%
X78100000Y-83050000D03*
%TD*%
D36*
%TO.P,FL200,1,1*%
%TO.N,USB_CMC_D-*%
X111895000Y-55280000D03*
%TO.P,FL200,2,2*%
%TO.N,USB_CMC_D+*%
X111895000Y-54480000D03*
%TO.P,FL200,3,3*%
%TO.N,USB_D+*%
X110045000Y-54480000D03*
%TO.P,FL200,4,4*%
%TO.N,USB_D-*%
X110045000Y-55280000D03*
%TD*%
D24*
%TO.P,C103,1*%
%TO.N,+3.3VA*%
X97550000Y-83200000D03*
%TO.P,C103,2*%
%TO.N,GND*%
X97550000Y-81300000D03*
%TD*%
D35*
%TO.P,C403,1*%
%TO.N,Net-(C403-Pad1)*%
X114765000Y-83510000D03*
%TO.P,C403,2*%
%TO.N,GND*%
X116315000Y-83510000D03*
%TD*%
D22*
%TO.P,R213,1*%
%TO.N,GND*%
X122695000Y-48720000D03*
%TO.P,R213,2*%
%TO.N,/MCU/USB_CONN_CC2*%
X124345000Y-48720000D03*
%TD*%
D35*
%TO.P,C205,1*%
%TO.N,+3V3*%
X88325000Y-48880000D03*
%TO.P,C205,2*%
%TO.N,GND*%
X89875000Y-48880000D03*
%TD*%
D22*
%TO.P,R212,1*%
%TO.N,GND*%
X122685000Y-61700000D03*
%TO.P,R212,2*%
%TO.N,/MCU/USB_CONN_CC1*%
X124335000Y-61700000D03*
%TD*%
D37*
%TO.P,D201,1,A1*%
%TO.N,GND*%
X91362500Y-28460000D03*
%TO.P,D201,2,A2*%
%TO.N,+3V3*%
X93462500Y-28460000D03*
%TD*%
D38*
%TO.P,U101,1,EN*%
%TO.N,+5V*%
X109937500Y-44200000D03*
%TO.P,U101,2,GND*%
%TO.N,GND*%
X109937500Y-43250000D03*
%TO.P,U101,3,SW*%
%TO.N,/Power/BUCK_SW*%
X109937500Y-42300000D03*
%TO.P,U101,4,VIN*%
%TO.N,+5V*%
X107662500Y-42300000D03*
%TO.P,U101,5,FB*%
%TO.N,/Power/BUCK_FB*%
X107662500Y-44200000D03*
%TD*%
D26*
%TO.P,R207,1*%
%TO.N,TM2_CH3*%
X66160000Y-67230000D03*
%TO.P,R207,2*%
%TO.N,/MCU/CH3_B*%
X64510000Y-67230000D03*
%TD*%
D27*
%TO.P,H4,1,1*%
%TO.N,GND*%
X61600000Y-115500000D03*
X62302944Y-113802944D03*
X62302944Y-117197056D03*
X64000000Y-113100000D03*
D28*
X64000000Y-115500000D03*
D27*
X64000000Y-117900000D03*
X65697056Y-113802944D03*
X65697056Y-117197056D03*
X66400000Y-115500000D03*
%TD*%
D33*
%TO.P,U305,1*%
%TO.N,VCOM*%
X103665000Y-87460000D03*
%TO.P,U305,2,V-*%
%TO.N,GND*%
X103665000Y-88410000D03*
%TO.P,U305,3,+*%
%TO.N,/Power/VREF*%
X103665000Y-89360000D03*
%TO.P,U305,4,-*%
%TO.N,VCOM*%
X105940000Y-89360000D03*
%TO.P,U305,5,V+*%
%TO.N,+3.3VA*%
X105940000Y-87460000D03*
%TD*%
D15*
%TO.P,C308,1*%
%TO.N,+5V*%
X74830000Y-70870000D03*
%TO.P,C308,2*%
%TO.N,GND*%
X72930000Y-70870000D03*
%TD*%
D24*
%TO.P,C207,1*%
%TO.N,VDDA*%
X81430000Y-59395000D03*
%TO.P,C207,2*%
%TO.N,GND*%
X81430000Y-57495000D03*
%TD*%
D12*
%TO.P,C406,1*%
%TO.N,GND*%
X111150000Y-92810000D03*
%TO.P,C406,2*%
%TO.N,+3.3VA*%
X111150000Y-91260000D03*
%TD*%
D29*
%TO.P,D203,1,A1*%
%TO.N,GND*%
X93380000Y-39460000D03*
%TO.P,D203,2,A2*%
%TO.N,/MCU/CON_SWCLK*%
X91280000Y-39460000D03*
%TD*%
D11*
%TO.P,R204,1*%
%TO.N,SPI2_NSS*%
X100930000Y-61490000D03*
%TO.P,R204,2*%
%TO.N,+3V3*%
X100930000Y-63140000D03*
%TD*%
D26*
%TO.P,R201,1*%
%TO.N,SPI1_NSS*%
X90215000Y-67020000D03*
%TO.P,R201,2*%
%TO.N,+3V3*%
X88565000Y-67020000D03*
%TD*%
D13*
%TO.P,C107,1*%
%TO.N,/Power/VREF*%
X100650000Y-89460000D03*
%TO.P,C107,2*%
%TO.N,GND*%
X100650000Y-91360000D03*
%TD*%
D12*
%TO.P,C302,1*%
%TO.N,GND*%
X91992500Y-90765000D03*
%TO.P,C302,2*%
%TO.N,+3.3VA*%
X91992500Y-89215000D03*
%TD*%
D24*
%TO.P,C208,1*%
%TO.N,+3V3*%
X78930000Y-59345000D03*
%TO.P,C208,2*%
%TO.N,GND*%
X78930000Y-57445000D03*
%TD*%
D23*
%TO.P,R203,1*%
%TO.N,USB_D+*%
X104490000Y-54270000D03*
%TO.P,R203,2*%
%TO.N,+3V3*%
X104490000Y-52620000D03*
%TD*%
%TO.P,R304,1*%
%TO.N,Net-(C303-Pad1)*%
X86222500Y-92750000D03*
%TO.P,R304,2*%
%TO.N,Net-(C304-Pad1)*%
X86222500Y-91100000D03*
%TD*%
D16*
%TO.P,C202,1*%
%TO.N,+3V3*%
X89215000Y-65070000D03*
%TO.P,C202,2*%
%TO.N,GND*%
X87665000Y-65070000D03*
%TD*%
D39*
%TO.P,J201,1,Pin_1*%
%TO.N,+3V3*%
X92830000Y-32060000D03*
%TO.P,J201,2,Pin_2*%
%TO.N,/MCU/CON_SWDIO*%
X92830000Y-35960000D03*
%TO.P,J201,3,Pin_3*%
%TO.N,GND*%
X91560000Y-32060000D03*
%TO.P,J201,4,Pin_4*%
%TO.N,/MCU/CON_SWCLK*%
X91560000Y-35960000D03*
%TO.P,J201,5,Pin_5*%
%TO.N,GND*%
X90290000Y-32060000D03*
%TO.P,J201,6,Pin_6*%
%TO.N,/MCU/CON_SWO*%
X90290000Y-35960000D03*
%TO.P,J201,7,Pin_7*%
%TO.N,unconnected-(J201-Pin_7-Pad7)*%
X89020000Y-32060000D03*
%TO.P,J201,8,Pin_8*%
%TO.N,unconnected-(J201-Pin_8-Pad8)*%
X89020000Y-35960000D03*
%TO.P,J201,9,Pin_9*%
%TO.N,GND*%
X87750000Y-32060000D03*
%TO.P,J201,10,Pin_10*%
%TO.N,/MCU/CON_NRST*%
X87750000Y-35960000D03*
%TD*%
D40*
%TO.P,U300,1*%
%TO.N,/ADC/IN_BUF_OUT*%
X93847500Y-91700000D03*
%TO.P,U300,2,V-*%
%TO.N,GND*%
X94797500Y-91700000D03*
%TO.P,U300,3,+*%
%TO.N,/ADC/IN_BUF*%
X95747500Y-91700000D03*
%TO.P,U300,4,-*%
%TO.N,/ADC/IN_BUF_OUT*%
X95747500Y-89425000D03*
%TO.P,U300,5,V+*%
%TO.N,+3.3VA*%
X93847500Y-89425000D03*
%TD*%
D22*
%TO.P,R209,1*%
%TO.N,/MCU/CON_SWCLK*%
X91505000Y-41560000D03*
%TO.P,R209,2*%
%TO.N,SWCLK*%
X93155000Y-41560000D03*
%TD*%
D14*
%TO.P,L200,1,1*%
%TO.N,VDDA*%
X80915000Y-61360000D03*
%TO.P,L200,2,2*%
%TO.N,+3V3*%
X79340000Y-61360000D03*
%TD*%
D38*
%TO.P,U201,1,I/O2*%
%TO.N,USB_CONN_D-*%
X116867500Y-55690000D03*
%TO.P,U201,2,GND*%
%TO.N,GND*%
X116867500Y-54740000D03*
%TO.P,U201,3,I/O2*%
%TO.N,USB_CONN_D+*%
X116867500Y-53790000D03*
%TO.P,U201,4,I/O1*%
%TO.N,USB_CMC_D+*%
X114592500Y-53790000D03*
%TO.P,U201,5,VBUS*%
%TO.N,VBUS*%
X114592500Y-54740000D03*
%TO.P,U201,6,I/O1*%
%TO.N,USB_CMC_D-*%
X114592500Y-55690000D03*
%TD*%
D41*
%TO.P,U200,1,VBAT*%
%TO.N,+3V3*%
X86935000Y-53110000D03*
%TO.P,U200,2,PC13*%
%TO.N,unconnected-(U200-PC13-Pad2)*%
X86935000Y-53610000D03*
%TO.P,U200,3,PC14*%
%TO.N,unconnected-(U200-PC14-Pad3)*%
X86935000Y-54110000D03*
%TO.P,U200,4,PC15*%
%TO.N,unconnected-(U200-PC15-Pad4)*%
X86935000Y-54610000D03*
%TO.P,U200,5,PD0*%
%TO.N,/MCU/HSE_IN*%
X86935000Y-55110000D03*
%TO.P,U200,6,PD1*%
%TO.N,/MCU/HSE_OUT*%
X86935000Y-55610000D03*
%TO.P,U200,7,NRST*%
%TO.N,NRST*%
X86935000Y-56110000D03*
%TO.P,U200,8,PC0*%
%TO.N,unconnected-(U200-PC0-Pad8)*%
X86935000Y-56610000D03*
%TO.P,U200,9,PC1*%
%TO.N,unconnected-(U200-PC1-Pad9)*%
X86935000Y-57110000D03*
%TO.P,U200,10,PC2*%
%TO.N,unconnected-(U200-PC2-Pad10)*%
X86935000Y-57610000D03*
%TO.P,U200,11,PC3*%
%TO.N,unconnected-(U200-PC3-Pad11)*%
X86935000Y-58110000D03*
%TO.P,U200,12,VSSA*%
%TO.N,GND*%
X86935000Y-58610000D03*
%TO.P,U200,13,VDDA*%
%TO.N,VDDA*%
X86935000Y-59110000D03*
%TO.P,U200,14,PA0*%
%TO.N,TM2_CH1*%
X86935000Y-59610000D03*
%TO.P,U200,15,PA1*%
%TO.N,TM2_CH2*%
X86935000Y-60110000D03*
%TO.P,U200,16,PA2*%
%TO.N,TM2_CH3*%
X86935000Y-60610000D03*
D42*
%TO.P,U200,17,PA3*%
%TO.N,unconnected-(U200-PA3-Pad17)*%
X88860000Y-62535000D03*
%TO.P,U200,18,VSS*%
%TO.N,GND*%
X89360000Y-62535000D03*
%TO.P,U200,19,VDD*%
%TO.N,+3V3*%
X89860000Y-62535000D03*
%TO.P,U200,20,PA4*%
%TO.N,SPI1_NSS*%
X90360000Y-62535000D03*
%TO.P,U200,21,PA5*%
%TO.N,SPI1_SCK*%
X90860000Y-62535000D03*
%TO.P,U200,22,PA6*%
%TO.N,SPI1_MISO*%
X91360000Y-62535000D03*
%TO.P,U200,23,PA7*%
%TO.N,unconnected-(U200-PA7-Pad23)*%
X91860000Y-62535000D03*
%TO.P,U200,24,PC4*%
%TO.N,unconnected-(U200-PC4-Pad24)*%
X92360000Y-62535000D03*
%TO.P,U200,25,PC5*%
%TO.N,unconnected-(U200-PC5-Pad25)*%
X92860000Y-62535000D03*
%TO.P,U200,26,PB0*%
%TO.N,DAC_NCLR*%
X93360000Y-62535000D03*
%TO.P,U200,27,PB1*%
%TO.N,DAC_NLDAC*%
X93860000Y-62535000D03*
%TO.P,U200,28,PB2*%
%TO.N,unconnected-(U200-PB2-Pad28)*%
X94360000Y-62535000D03*
%TO.P,U200,29,PB10*%
%TO.N,unconnected-(U200-PB10-Pad29)*%
X94860000Y-62535000D03*
%TO.P,U200,30,PB11*%
%TO.N,unconnected-(U200-PB11-Pad30)*%
X95360000Y-62535000D03*
%TO.P,U200,31,VSS*%
%TO.N,GND*%
X95860000Y-62535000D03*
%TO.P,U200,32,VDD*%
%TO.N,+3V3*%
X96360000Y-62535000D03*
D41*
%TO.P,U200,33,PB12*%
%TO.N,SPI2_NSS*%
X98285000Y-60610000D03*
%TO.P,U200,34,PB13*%
%TO.N,SPI2_SCK*%
X98285000Y-60110000D03*
%TO.P,U200,35,PB14*%
%TO.N,unconnected-(U200-PB14-Pad35)*%
X98285000Y-59610000D03*
%TO.P,U200,36,PB15*%
%TO.N,SPI2_MOSI*%
X98285000Y-59110000D03*
%TO.P,U200,37,PC6*%
%TO.N,unconnected-(U200-PC6-Pad37)*%
X98285000Y-58610000D03*
%TO.P,U200,38,PC7*%
%TO.N,unconnected-(U200-PC7-Pad38)*%
X98285000Y-58110000D03*
%TO.P,U200,39,PC8*%
%TO.N,unconnected-(U200-PC8-Pad39)*%
X98285000Y-57610000D03*
%TO.P,U200,40,PC9*%
%TO.N,unconnected-(U200-PC9-Pad40)*%
X98285000Y-57110000D03*
%TO.P,U200,41,PA8*%
%TO.N,unconnected-(U200-PA8-Pad41)*%
X98285000Y-56610000D03*
%TO.P,U200,42,PA9*%
%TO.N,unconnected-(U200-PA9-Pad42)*%
X98285000Y-56110000D03*
%TO.P,U200,43,PA10*%
%TO.N,unconnected-(U200-PA10-Pad43)*%
X98285000Y-55610000D03*
%TO.P,U200,44,PA11*%
%TO.N,USB_D-*%
X98285000Y-55110000D03*
%TO.P,U200,45,PA12*%
%TO.N,USB_D+*%
X98285000Y-54610000D03*
%TO.P,U200,46,PA13*%
%TO.N,SWDIO*%
X98285000Y-54110000D03*
%TO.P,U200,47,VSS*%
%TO.N,GND*%
X98285000Y-53610000D03*
%TO.P,U200,48,VDD*%
%TO.N,+3V3*%
X98285000Y-53110000D03*
D42*
%TO.P,U200,49,PA14*%
%TO.N,SWCLK*%
X96360000Y-51185000D03*
%TO.P,U200,50,PA15*%
%TO.N,unconnected-(U200-PA15-Pad50)*%
X95860000Y-51185000D03*
%TO.P,U200,51,PC10*%
%TO.N,unconnected-(U200-PC10-Pad51)*%
X95360000Y-51185000D03*
%TO.P,U200,52,PC11*%
%TO.N,unconnected-(U200-PC11-Pad52)*%
X94860000Y-51185000D03*
%TO.P,U200,53,PC12*%
%TO.N,unconnected-(U200-PC12-Pad53)*%
X94360000Y-51185000D03*
%TO.P,U200,54,PD2*%
%TO.N,unconnected-(U200-PD2-Pad54)*%
X93860000Y-51185000D03*
%TO.P,U200,55,PB3*%
%TO.N,SWO*%
X93360000Y-51185000D03*
%TO.P,U200,56,PB4*%
%TO.N,unconnected-(U200-PB4-Pad56)*%
X92860000Y-51185000D03*
%TO.P,U200,57,PB5*%
%TO.N,unconnected-(U200-PB5-Pad57)*%
X92360000Y-51185000D03*
%TO.P,U200,58,PB6*%
%TO.N,unconnected-(U200-PB6-Pad58)*%
X91860000Y-51185000D03*
%TO.P,U200,59,PB7*%
%TO.N,unconnected-(U200-PB7-Pad59)*%
X91360000Y-51185000D03*
%TO.P,U200,60,BOOT0*%
%TO.N,/MCU/BOOT0*%
X90860000Y-51185000D03*
%TO.P,U200,61,PB8*%
%TO.N,unconnected-(U200-PB8-Pad61)*%
X90360000Y-51185000D03*
%TO.P,U200,62,PB9*%
%TO.N,unconnected-(U200-PB9-Pad62)*%
X89860000Y-51185000D03*
%TO.P,U200,63,VSS*%
%TO.N,GND*%
X89360000Y-51185000D03*
%TO.P,U200,64,VDD*%
%TO.N,+3V3*%
X88860000Y-51185000D03*
%TD*%
D13*
%TO.P,C312,1*%
%TO.N,/ADC/ADC_VREF*%
X82380000Y-79150000D03*
%TO.P,C312,2*%
%TO.N,GND*%
X82380000Y-81050000D03*
%TD*%
D12*
%TO.P,C206,1*%
%TO.N,VDDA*%
X83430000Y-59170000D03*
%TO.P,C206,2*%
%TO.N,GND*%
X83430000Y-57620000D03*
%TD*%
D43*
%TO.P,Y200,1,1*%
%TO.N,/MCU/HSE_IN*%
X77800000Y-51790000D03*
%TO.P,Y200,2,2*%
%TO.N,GND*%
X75600000Y-51790000D03*
%TO.P,Y200,3,3*%
%TO.N,/MCU/XTAL_IN*%
X75600000Y-53490000D03*
%TO.P,Y200,4,4*%
%TO.N,GND*%
X77800000Y-53490000D03*
%TD*%
D38*
%TO.P,U401,1*%
%TO.N,/DAC/OUT_BUF_AA_OUT*%
X115340000Y-91240000D03*
%TO.P,U401,2,V-*%
%TO.N,GND*%
X115340000Y-90290000D03*
%TO.P,U401,3,+*%
%TO.N,/DAC/OUT_BUF_AA_IN*%
X115340000Y-89340000D03*
%TO.P,U401,4,-*%
%TO.N,/DAC/OUT_BUF_AA_OUT*%
X113065000Y-89340000D03*
%TO.P,U401,5,V+*%
%TO.N,+3.3VA*%
X113065000Y-91240000D03*
%TD*%
D44*
%TO.P,J200,A1,GND*%
%TO.N,GND*%
X121195000Y-58440000D03*
%TO.P,J200,A4,VBUS*%
%TO.N,VBUS*%
X121195000Y-57640000D03*
D45*
%TO.P,J200,A5,CC1*%
%TO.N,/MCU/USB_CONN_CC1*%
X121195000Y-56440000D03*
%TO.P,J200,A6,D+*%
%TO.N,USB_CONN_D+*%
X121195000Y-55440000D03*
%TO.P,J200,A7,D-*%
%TO.N,USB_CONN_D-*%
X121195000Y-54940000D03*
%TO.P,J200,A8,SBU1*%
%TO.N,unconnected-(J200-SBU1-PadA8)*%
X121195000Y-53940000D03*
D44*
%TO.P,J200,A9,VBUS*%
%TO.N,VBUS*%
X121195000Y-52740000D03*
%TO.P,J200,A12,GND*%
%TO.N,GND*%
X121195000Y-51940000D03*
%TO.P,J200,B1,GND*%
X121195000Y-51940000D03*
%TO.P,J200,B4,VBUS*%
%TO.N,VBUS*%
X121195000Y-52740000D03*
D45*
%TO.P,J200,B5,CC2*%
%TO.N,/MCU/USB_CONN_CC2*%
X121195000Y-53440000D03*
%TO.P,J200,B6,D+*%
%TO.N,USB_CONN_D+*%
X121195000Y-54440000D03*
%TO.P,J200,B7,D-*%
%TO.N,USB_CONN_D-*%
X121195000Y-55940000D03*
%TO.P,J200,B8,SBU2*%
%TO.N,unconnected-(J200-SBU2-PadB8)*%
X121195000Y-56940000D03*
D44*
%TO.P,J200,B9,VBUS*%
%TO.N,VBUS*%
X121195000Y-57640000D03*
%TO.P,J200,B12,GND*%
%TO.N,GND*%
X121195000Y-58440000D03*
D46*
%TO.P,J200,S1,SHIELD*%
X122110000Y-59510000D03*
D47*
X126290000Y-59510000D03*
D46*
X122110000Y-50870000D03*
D47*
X126290000Y-50870000D03*
%TD*%
D48*
%TO.P,D205,1,A1*%
%TO.N,GND*%
X85330000Y-37760000D03*
%TO.P,D205,2,A2*%
%TO.N,/MCU/CON_NRST*%
X85330000Y-35660000D03*
%TD*%
D26*
%TO.P,R102,1*%
%TO.N,/Power/BUCK_FB*%
X106715000Y-45920000D03*
%TO.P,R102,2*%
%TO.N,GND*%
X105065000Y-45920000D03*
%TD*%
D35*
%TO.P,C304,1*%
%TO.N,Net-(C304-Pad1)*%
X87947500Y-91175000D03*
%TO.P,C304,2*%
%TO.N,/ADC/IN_AA_BUF_OUT*%
X89497500Y-91175000D03*
%TD*%
D12*
%TO.P,C108,1*%
%TO.N,GND*%
X107920000Y-88995000D03*
%TO.P,C108,2*%
%TO.N,+3.3VA*%
X107920000Y-87445000D03*
%TD*%
D11*
%TO.P,R211,1*%
%TO.N,/MCU/CON_NRST*%
X83330000Y-35760000D03*
%TO.P,R211,2*%
%TO.N,NRST*%
X83330000Y-37410000D03*
%TD*%
%TO.P,R100,1*%
%TO.N,+5V*%
X101610000Y-73715000D03*
%TO.P,R100,2*%
%TO.N,/Power/+5V_FILT*%
X101610000Y-75365000D03*
%TD*%
D26*
%TO.P,R104,1*%
%TO.N,+3.3VA*%
X107405000Y-91250000D03*
%TO.P,R104,2*%
%TO.N,/Power/VREF*%
X105755000Y-91250000D03*
%TD*%
D37*
%TO.P,D204,1,A1*%
%TO.N,GND*%
X87530000Y-39460000D03*
%TO.P,D204,2,A2*%
%TO.N,/MCU/CON_SWO*%
X89630000Y-39460000D03*
%TD*%
D11*
%TO.P,R208,1*%
%TO.N,/MCU/CON_SWDIO*%
X95360000Y-37725000D03*
%TO.P,R208,2*%
%TO.N,SWDIO*%
X95360000Y-39375000D03*
%TD*%
D13*
%TO.P,C310,1*%
%TO.N,+3.3VA*%
X82250000Y-74650000D03*
%TO.P,C310,2*%
%TO.N,GND*%
X82250000Y-76550000D03*
%TD*%
D26*
%TO.P,R401,1*%
%TO.N,GND*%
X114200000Y-81650000D03*
%TO.P,R401,2*%
%TO.N,/DAC/DAC_OUT_B*%
X112550000Y-81650000D03*
%TD*%
D11*
%TO.P,R405,1*%
%TO.N,/DAC/OUT_BUF_AA_OUT*%
X115472500Y-92850000D03*
%TO.P,R405,2*%
%TO.N,/DAC/OUT*%
X115472500Y-94500000D03*
%TD*%
D27*
%TO.P,H3,1,1*%
%TO.N,GND*%
X121600000Y-115500000D03*
X122302944Y-113802944D03*
X122302944Y-117197056D03*
X124000000Y-113100000D03*
D28*
X124000000Y-115500000D03*
D27*
X124000000Y-117900000D03*
X125697056Y-113802944D03*
X125697056Y-117197056D03*
X126400000Y-115500000D03*
%TD*%
D19*
%TO.P,J400,1,In*%
%TO.N,/DAC/OUT*%
X106236000Y-107700000D03*
D20*
%TO.P,J400,2,Ext*%
%TO.N,GND*%
X108776000Y-107700000D03*
D21*
%TO.P,J400,3*%
%TO.N,N/C*%
X101156000Y-112780000D03*
%TO.P,J400,4*%
X111316000Y-112780000D03*
%TD*%
D12*
%TO.P,C209,1*%
%TO.N,/MCU/HSE_IN*%
X80360000Y-53585000D03*
%TO.P,C209,2*%
%TO.N,GND*%
X80360000Y-52035000D03*
%TD*%
D22*
%TO.P,R404,1*%
%TO.N,Net-(C405-Pad1)*%
X116457500Y-86995000D03*
%TO.P,R404,2*%
%TO.N,/DAC/OUT_BUF_AA_IN*%
X118107500Y-86995000D03*
%TD*%
D49*
%TO.P,L101,1,1*%
%TO.N,/Power/BUCK_SW*%
X106025000Y-37250000D03*
%TO.P,L101,2,2*%
%TO.N,+3V3*%
X112075000Y-37250000D03*
%TD*%
D12*
%TO.P,C301,1*%
%TO.N,/ADC/IN_RF*%
X95722500Y-95975000D03*
%TO.P,C301,2*%
%TO.N,/ADC/IN_BUF*%
X95722500Y-94425000D03*
%TD*%
D24*
%TO.P,C200,1*%
%TO.N,+3V3*%
X82820000Y-52825000D03*
%TO.P,C200,2*%
%TO.N,GND*%
X82820000Y-50925000D03*
%TD*%
D15*
%TO.P,C400,1*%
%TO.N,+3V3*%
X112587500Y-70025000D03*
%TO.P,C400,2*%
%TO.N,GND*%
X110687500Y-70025000D03*
%TD*%
D26*
%TO.P,R205,1*%
%TO.N,TM2_CH1*%
X70745000Y-63330000D03*
%TO.P,R205,2*%
%TO.N,/MCU/CH1_R*%
X69095000Y-63330000D03*
%TD*%
D50*
%TO.P,U302,1,IN*%
%TO.N,/ADC/ADC_VREF_VIN*%
X79937500Y-81000000D03*
%TO.P,U302,2,OUT*%
%TO.N,/ADC/ADC_VREF*%
X79937500Y-79100000D03*
%TO.P,U302,3,GND*%
%TO.N,GND*%
X78062500Y-80050000D03*
%TD*%
D11*
%TO.P,R400,1*%
%TO.N,SPI2_SCK*%
X114190000Y-66765000D03*
%TO.P,R400,2*%
%TO.N,/DAC/DAC_SCLK*%
X114190000Y-68415000D03*
%TD*%
D16*
%TO.P,C210,1*%
%TO.N,/MCU/XTAL_IN*%
X76135000Y-55535000D03*
%TO.P,C210,2*%
%TO.N,GND*%
X74585000Y-55535000D03*
%TD*%
D12*
%TO.P,C300,1*%
%TO.N,/ADC/IN_RF*%
X97722500Y-95975000D03*
%TO.P,C300,2*%
%TO.N,GND*%
X97722500Y-94425000D03*
%TD*%
D35*
%TO.P,C404,1*%
%TO.N,/DAC/OUT_BUF_AA_IN*%
X118130000Y-89060000D03*
%TO.P,C404,2*%
%TO.N,GND*%
X119680000Y-89060000D03*
%TD*%
D11*
%TO.P,R403,1*%
%TO.N,Net-(C403-Pad1)*%
X114782500Y-85420000D03*
%TO.P,R403,2*%
%TO.N,Net-(C405-Pad1)*%
X114782500Y-87070000D03*
%TD*%
D35*
%TO.P,C212,1*%
%TO.N,NRST*%
X83285000Y-39450000D03*
%TO.P,C212,2*%
%TO.N,GND*%
X84835000Y-39450000D03*
%TD*%
%TO.P,C211,1*%
%TO.N,+3V3*%
X64505000Y-61370000D03*
%TO.P,C211,2*%
%TO.N,GND*%
X66055000Y-61370000D03*
%TD*%
D27*
%TO.P,H2,1,1*%
%TO.N,GND*%
X121600000Y-30500000D03*
X122302944Y-28802944D03*
X122302944Y-32197056D03*
X124000000Y-28100000D03*
D28*
X124000000Y-30500000D03*
D27*
X124000000Y-32900000D03*
X125697056Y-28802944D03*
X125697056Y-32197056D03*
X126400000Y-30500000D03*
%TD*%
D23*
%TO.P,R306,1*%
%TO.N,/ADC/IN_AA_BUF_OUT*%
X84792500Y-85595000D03*
%TO.P,R306,2*%
%TO.N,ADC_IN+*%
X84792500Y-83945000D03*
%TD*%
D13*
%TO.P,C100,1*%
%TO.N,VBUS*%
X115980000Y-59340000D03*
%TO.P,C100,2*%
%TO.N,GND*%
X115980000Y-61240000D03*
%TD*%
D23*
%TO.P,R307,1*%
%TO.N,VCOM*%
X89792500Y-85595000D03*
%TO.P,R307,2*%
%TO.N,ADC_IN-*%
X89792500Y-83945000D03*
%TD*%
D12*
%TO.P,C306,1*%
%TO.N,GND*%
X89670000Y-88895000D03*
%TO.P,C306,2*%
%TO.N,+3.3VA*%
X89670000Y-87345000D03*
%TD*%
D23*
%TO.P,R309,1*%
%TO.N,/ADC/ADC_SCLK*%
X91240000Y-70920000D03*
%TO.P,R309,2*%
%TO.N,SPI1_SCK*%
X91240000Y-69270000D03*
%TD*%
D34*
%TO.P,C204,1*%
%TO.N,+3V3*%
X100600000Y-51605000D03*
%TO.P,C204,2*%
%TO.N,GND*%
X100600000Y-53155000D03*
%TD*%
D22*
%TO.P,R210,1*%
%TO.N,/MCU/CON_SWO*%
X87525000Y-41680000D03*
%TO.P,R210,2*%
%TO.N,SWO*%
X89175000Y-41680000D03*
%TD*%
D29*
%TO.P,D400,1,A1*%
%TO.N,GND*%
X108377500Y-103400000D03*
%TO.P,D400,2,A2*%
%TO.N,/DAC/OUT*%
X106277500Y-103400000D03*
%TD*%
D22*
%TO.P,R202,1*%
%TO.N,/MCU/XTAL_IN*%
X77860000Y-55535000D03*
%TO.P,R202,2*%
%TO.N,/MCU/HSE_OUT*%
X79510000Y-55535000D03*
%TD*%
D51*
%TO.P,R302,1*%
%TO.N,/ADC/IN_BUF*%
X97910000Y-91845000D03*
%TO.P,R302,2*%
%TO.N,VCOM*%
X97910000Y-90020000D03*
%TD*%
D16*
%TO.P,C401,1*%
%TO.N,+3V3*%
X112662500Y-72025000D03*
%TO.P,C401,2*%
%TO.N,GND*%
X111112500Y-72025000D03*
%TD*%
D52*
%TO.N,GND*%
X76720000Y-92540000D03*
X93470000Y-114590000D03*
X100890000Y-39310000D03*
X100940000Y-35960000D03*
X69070000Y-108980000D03*
X87270000Y-96300000D03*
X83470000Y-96360000D03*
X78730000Y-96360000D03*
X119420000Y-105570000D03*
X121320000Y-83970000D03*
X121100000Y-36570000D03*
X70070000Y-34340000D03*
X68340000Y-89270000D03*
X63710000Y-89160000D03*
X75150000Y-37020000D03*
X78450000Y-33890000D03*
X78340000Y-37020000D03*
X71860000Y-44050000D03*
X73870000Y-31100000D03*
X101490000Y-102020000D03*
X116490000Y-117520000D03*
X113990000Y-102270000D03*
X96990000Y-102020000D03*
X93490000Y-102020000D03*
X89490000Y-102020000D03*
X93410000Y-118330000D03*
X93410000Y-111240000D03*
X93410000Y-107170000D03*
X119490000Y-92520000D03*
X119490000Y-97770000D03*
X121240000Y-79770000D03*
X121240000Y-74270000D03*
X121490000Y-69060000D03*
X121240000Y-66270000D03*
X124490000Y-66270000D03*
X124800000Y-68830000D03*
X117410000Y-36520000D03*
X117490000Y-32520000D03*
X112990000Y-32520000D03*
X100990000Y-32520000D03*
X124990000Y-45520000D03*
X124990000Y-40770000D03*
X124740000Y-36520000D03*
X117490000Y-29020000D03*
X112990000Y-29020000D03*
X119490000Y-102270000D03*
X124800000Y-108790000D03*
X119490000Y-108520000D03*
X63320000Y-108880000D03*
X68990000Y-105270000D03*
X63240000Y-105270000D03*
X74720000Y-100580000D03*
X68898242Y-100660000D03*
X62920000Y-100820000D03*
X73420000Y-89380000D03*
X68340000Y-84860000D03*
X63740000Y-84770000D03*
X68120000Y-80280000D03*
X63740000Y-80270000D03*
X68240000Y-75270000D03*
X63740000Y-75270000D03*
X67950000Y-71130000D03*
X63740000Y-71020000D03*
X78490000Y-43770000D03*
X75240000Y-44020000D03*
X72250000Y-40030000D03*
X78390000Y-39920000D03*
X75150000Y-39810000D03*
X63990000Y-38270000D03*
X82490000Y-32270000D03*
X82490000Y-29770000D03*
X70070000Y-31100000D03*
X73990000Y-27770000D03*
X69990000Y-27770000D03*
D53*
X102640000Y-94070000D03*
X104340000Y-74330000D03*
X96490000Y-79870000D03*
X83440000Y-71120000D03*
X121590000Y-61710000D03*
X99150000Y-78760000D03*
X87750000Y-30230000D03*
X119990000Y-58440000D03*
X94797500Y-92820000D03*
X115310000Y-81650000D03*
X67320000Y-61350000D03*
X85140000Y-103520000D03*
X94980000Y-87000000D03*
X95380000Y-32980000D03*
X116592500Y-90145000D03*
X84590000Y-77620000D03*
X86540000Y-39470000D03*
X90100000Y-59930000D03*
X97440000Y-79870000D03*
X104990000Y-48410000D03*
X73900000Y-51790000D03*
X87500000Y-77920000D03*
X82390000Y-82220000D03*
X112290000Y-45520000D03*
X92640000Y-84420000D03*
X113680000Y-62540000D03*
X88240000Y-58620000D03*
X83390000Y-69820000D03*
X108190000Y-53520000D03*
X96360000Y-81350000D03*
X90355000Y-47035000D03*
X103740000Y-94070000D03*
X99660000Y-50340000D03*
X83490000Y-72470000D03*
X98440000Y-79860000D03*
X74460000Y-58110000D03*
X116340000Y-43950000D03*
X89700000Y-73320000D03*
X94910000Y-29670000D03*
X80340000Y-50880000D03*
X84490000Y-82220000D03*
X105225000Y-92755000D03*
X114940000Y-62520000D03*
X106425653Y-78757895D03*
X120310000Y-59190000D03*
X88900000Y-61030000D03*
X90280000Y-33800000D03*
X63640000Y-59700000D03*
X91062500Y-97255000D03*
X90712500Y-88965000D03*
X76440000Y-80050000D03*
X110298774Y-77280444D03*
X83662500Y-88300000D03*
X117485000Y-83500000D03*
X88990000Y-80420000D03*
X108810000Y-60380000D03*
X78070000Y-74740000D03*
X92530000Y-39450000D03*
X117175000Y-50735000D03*
X109220000Y-69990000D03*
X102240000Y-92920000D03*
X119690000Y-87920000D03*
X120270000Y-51230000D03*
X109490000Y-103370000D03*
X91520000Y-33830000D03*
X82390000Y-77620000D03*
X95320000Y-60950000D03*
X118115039Y-54785000D03*
X114070000Y-43800000D03*
X100600000Y-49200000D03*
X89510000Y-52690000D03*
X113700000Y-80040000D03*
X109600000Y-71940000D03*
X104170000Y-62310000D03*
X71450000Y-70860000D03*
X121680000Y-48700000D03*
X120010000Y-51990000D03*
X96900000Y-53610000D03*
X116170000Y-62480000D03*
X100390000Y-92720000D03*
X118540000Y-44970000D03*
X78090000Y-84580000D03*
X106470000Y-60650000D03*
X84970000Y-49725000D03*
X102330000Y-88460000D03*
X108300000Y-77310000D03*
X88340000Y-46400000D03*
X107890000Y-89920000D03*
X96010000Y-72640000D03*
X77440000Y-58020000D03*
X108100000Y-57460000D03*
X103270000Y-51610000D03*
X91992500Y-91935000D03*
X77340000Y-57070000D03*
X63640000Y-58190000D03*
X101490000Y-94070000D03*
X83990000Y-54170000D03*
X79940000Y-89570000D03*
X89760000Y-70790000D03*
X82870000Y-49725000D03*
X74590000Y-56790000D03*
X84840000Y-40560000D03*
X78730000Y-72100000D03*
X111180000Y-93790000D03*
%TO.N,+5V*%
X107190000Y-53520000D03*
X96010000Y-73760000D03*
X108790000Y-56520000D03*
X103720000Y-73340000D03*
X78780000Y-72990000D03*
X109970000Y-60330000D03*
%TO.N,+3.3VA*%
X93860000Y-84260000D03*
X79150000Y-74730000D03*
X93847500Y-86892500D03*
%TO.N,+3V3*%
X82790000Y-53970000D03*
X110065000Y-47645000D03*
X74490000Y-59360000D03*
X105050000Y-49550000D03*
X64500000Y-59740000D03*
X76215000Y-59345000D03*
X116110000Y-42760000D03*
X64500000Y-58260000D03*
X114770000Y-42760000D03*
X76580000Y-61370000D03*
X85070000Y-67180000D03*
X94800000Y-28480000D03*
X96610000Y-61180000D03*
X90280000Y-61140000D03*
X88325000Y-47565000D03*
X100610000Y-50380000D03*
X103250000Y-52640000D03*
%TO.N,SPI1_NSS*%
X88620000Y-73220556D03*
X88620000Y-70870000D03*
%TO.N,SPI2_NSS*%
X103370000Y-61430000D03*
X107020000Y-61360000D03*
%TO.N,DAC_NCLR*%
X107267903Y-78872435D03*
X115590000Y-77700000D03*
%TO.N,DAC_NLDAC*%
X108350000Y-76430000D03*
X116180000Y-76530000D03*
%TD*%
D54*
%TO.N,USB_CONN_D-*%
X120110000Y-55940000D02*
X119690000Y-55520000D01*
X119690000Y-55520000D02*
X119690000Y-55120000D01*
X121195000Y-55940000D02*
X120110000Y-55940000D01*
D55*
%TO.N,USB_CONN_D+*%
X120620000Y-54440000D02*
X121195000Y-54440000D01*
X117969982Y-53790000D02*
X118644982Y-54465000D01*
X118644982Y-54465000D02*
X120595000Y-54465000D01*
X120595000Y-54465000D02*
X120620000Y-54440000D01*
X116867500Y-53790000D02*
X117969982Y-53790000D01*
%TO.N,USB_CONN_D-*%
X120620000Y-54940000D02*
X121195000Y-54940000D01*
X118716039Y-55033943D02*
X118716039Y-54965000D01*
X118640000Y-55109982D02*
X118716039Y-55033943D01*
X120503650Y-54915000D02*
X120595000Y-54915000D01*
X120595000Y-54915000D02*
X120620000Y-54940000D01*
X118363982Y-55386000D02*
X118640000Y-55109982D01*
X118059982Y-55690000D02*
X118363982Y-55386000D01*
X118716039Y-54965000D02*
X120453650Y-54965000D01*
X120453650Y-54965000D02*
X120503650Y-54915000D01*
X116867500Y-55690000D02*
X118059982Y-55690000D01*
%TO.N,USB_CMC_D-*%
X113598749Y-55690000D02*
X113188749Y-55280000D01*
X114592500Y-55690000D02*
X113598749Y-55690000D01*
X113188749Y-55280000D02*
X111895000Y-55280000D01*
%TO.N,USB_CMC_D+*%
X113598749Y-53790000D02*
X112873749Y-54515000D01*
X114592500Y-53790000D02*
X113598749Y-53790000D01*
X112873749Y-54515000D02*
X111930000Y-54515000D01*
X111930000Y-54515000D02*
X111895000Y-54480000D01*
%TO.N,USB_D+*%
X99153824Y-54670000D02*
X109190000Y-54670000D01*
%TO.N,USB_D-*%
X99472501Y-55085000D02*
X109192081Y-55085000D01*
X98285000Y-55110000D02*
X99447501Y-55110000D01*
%TO.N,USB_D+*%
X98334000Y-54659000D02*
X99142824Y-54659000D01*
X109190000Y-54670000D02*
X109380000Y-54480000D01*
X109380000Y-54480000D02*
X110045000Y-54480000D01*
%TO.N,USB_D-*%
X109192081Y-55085000D02*
X109377081Y-55270000D01*
X109377081Y-55270000D02*
X109860000Y-55270000D01*
D54*
%TO.N,USB_CONN_D+*%
X122470000Y-54440000D02*
X121195000Y-54440000D01*
X122740000Y-55070000D02*
X122740000Y-54710000D01*
X122740000Y-54710000D02*
X122470000Y-54440000D01*
X122370000Y-55440000D02*
X122740000Y-55070000D01*
X121195000Y-55440000D02*
X122370000Y-55440000D01*
D55*
%TO.N,USB_CONN_D-*%
X121146000Y-54989000D02*
X121195000Y-54940000D01*
%TO.N,USB_D+*%
X99142824Y-54659000D02*
X99153824Y-54670000D01*
X98285000Y-54610000D02*
X98334000Y-54659000D01*
%TO.N,USB_D-*%
X109870000Y-55280000D02*
X110045000Y-55280000D01*
X99447501Y-55110000D02*
X99472501Y-55085000D01*
X109860000Y-55270000D02*
X109870000Y-55280000D01*
D56*
%TO.N,GND*%
X99370000Y-53610000D02*
X99825000Y-53155000D01*
X99825000Y-53155000D02*
X100600000Y-53155000D01*
X98285000Y-53610000D02*
X99370000Y-53610000D01*
%TO.N,+3V3*%
X99975000Y-51605000D02*
X100600000Y-51605000D01*
X98470000Y-53110000D02*
X99975000Y-51605000D01*
X98285000Y-53110000D02*
X98470000Y-53110000D01*
%TO.N,GND*%
X109937500Y-43250000D02*
X105560000Y-43250000D01*
D57*
X122685000Y-61700000D02*
X121600000Y-61700000D01*
D56*
X89360000Y-63450000D02*
X89040000Y-63770000D01*
X109255000Y-70025000D02*
X109220000Y-69990000D01*
D55*
X89150000Y-61030000D02*
X88900000Y-61030000D01*
D57*
X75600000Y-51790000D02*
X73900000Y-51790000D01*
X105240000Y-92770000D02*
X105225000Y-92755000D01*
X85120000Y-103500000D02*
X85140000Y-103520000D01*
X91560000Y-32060000D02*
X91560000Y-33790000D01*
X89522500Y-88955000D02*
X90522500Y-88955000D01*
X90340000Y-47020000D02*
X90355000Y-47035000D01*
X91992500Y-90765000D02*
X91992500Y-91935000D01*
X112300000Y-44200000D02*
X112300000Y-45510000D01*
D55*
X87500000Y-77730000D02*
X87500000Y-77920000D01*
D56*
X105300000Y-43510000D02*
X105300000Y-44150000D01*
X88015000Y-63845000D02*
X87665000Y-64195000D01*
X109685000Y-72025000D02*
X109600000Y-71940000D01*
X77800000Y-53490000D02*
X76890000Y-53490000D01*
X110298774Y-77280444D02*
X110359218Y-77220000D01*
D55*
X115360000Y-90150000D02*
X115365000Y-90145000D01*
X102340000Y-88470000D02*
X102330000Y-88460000D01*
X89510000Y-52690000D02*
X89360000Y-52540000D01*
D57*
X116945000Y-54750000D02*
X118080039Y-54750000D01*
X115365000Y-90145000D02*
X116592500Y-90145000D01*
D56*
X89875000Y-49705000D02*
X89875000Y-48880000D01*
X84835000Y-38835000D02*
X84835000Y-39450000D01*
D57*
X90290000Y-32060000D02*
X90290000Y-33790000D01*
X83800000Y-103500000D02*
X85120000Y-103500000D01*
X119680000Y-89060000D02*
X119680000Y-87930000D01*
X116315000Y-83510000D02*
X117475000Y-83510000D01*
D55*
X117475000Y-83510000D02*
X117485000Y-83500000D01*
D57*
X71460000Y-70870000D02*
X71450000Y-70860000D01*
X81190000Y-89595000D02*
X79965000Y-89595000D01*
D55*
X109460000Y-103400000D02*
X109490000Y-103370000D01*
D57*
X91580000Y-47035000D02*
X90355000Y-47035000D01*
X87740000Y-30220000D02*
X87750000Y-30230000D01*
D55*
X118080039Y-54750000D02*
X118060000Y-54750000D01*
D56*
X105560000Y-43250000D02*
X105300000Y-43510000D01*
D57*
X85015000Y-88300000D02*
X83662500Y-88300000D01*
D58*
X91560000Y-30000000D02*
X91362500Y-29802500D01*
D55*
X89040000Y-63770000D02*
X88965000Y-63845000D01*
X78100000Y-84570000D02*
X78090000Y-84580000D01*
D57*
X118560000Y-44990000D02*
X118540000Y-44970000D01*
D56*
X90712500Y-88965000D02*
X90682500Y-88935000D01*
X76880000Y-53500000D02*
X76681556Y-53301556D01*
D57*
X92262500Y-97240000D02*
X91077500Y-97240000D01*
D55*
X113712500Y-80027500D02*
X113700000Y-80040000D01*
X118060000Y-54750000D02*
X118050000Y-54760000D01*
X98285000Y-53610000D02*
X96900000Y-53610000D01*
D58*
X91362500Y-29802500D02*
X91362500Y-28460000D01*
D56*
X89360000Y-61240000D02*
X89360000Y-62535000D01*
D55*
X118115039Y-54785000D02*
X118080039Y-54750000D01*
D56*
X87500000Y-79250000D02*
X87500000Y-77920000D01*
D55*
X67300000Y-61370000D02*
X67320000Y-61350000D01*
X121680000Y-48700000D02*
X121700000Y-48720000D01*
X88230000Y-58610000D02*
X88240000Y-58620000D01*
D56*
X95665000Y-63645000D02*
X95665000Y-65020000D01*
D57*
X74585000Y-55535000D02*
X74585000Y-56785000D01*
D55*
X91560000Y-33790000D02*
X91520000Y-33830000D01*
D57*
X114200000Y-81650000D02*
X115310000Y-81650000D01*
D55*
X86935000Y-58610000D02*
X88230000Y-58610000D01*
D57*
X103660000Y-92755000D02*
X105225000Y-92755000D01*
D55*
X84835000Y-40555000D02*
X84840000Y-40560000D01*
D57*
X80360000Y-52035000D02*
X80360000Y-50900000D01*
D56*
X76681556Y-52081556D02*
X76390000Y-51790000D01*
X110490000Y-77220000D02*
X110887500Y-76822500D01*
D57*
X103645000Y-88470000D02*
X102340000Y-88470000D01*
D56*
X87665000Y-64195000D02*
X87665000Y-65070000D01*
X105065000Y-44385000D02*
X105300000Y-44150000D01*
D55*
X90290000Y-33790000D02*
X90280000Y-33800000D01*
D58*
X83657500Y-88295000D02*
X83662500Y-88300000D01*
D56*
X95860000Y-62535000D02*
X95860000Y-63450000D01*
D57*
X93380000Y-39460000D02*
X92540000Y-39460000D01*
D56*
X110887500Y-76822500D02*
X110887500Y-75925000D01*
D57*
X84835000Y-39450000D02*
X84835000Y-40555000D01*
X95380000Y-34060000D02*
X95380000Y-32980000D01*
X108377500Y-103400000D02*
X109460000Y-103400000D01*
D55*
X92540000Y-39460000D02*
X92530000Y-39450000D01*
X111170000Y-93800000D02*
X111180000Y-93790000D01*
D57*
X87750000Y-32060000D02*
X87750000Y-30230000D01*
D55*
X95860000Y-64915000D02*
X96025000Y-65080000D01*
D56*
X88290000Y-80420000D02*
X88990000Y-80420000D01*
D57*
X117175000Y-51840000D02*
X117175000Y-50735000D01*
D58*
X91560000Y-32060000D02*
X91560000Y-30000000D01*
D56*
X95860000Y-61490000D02*
X95860000Y-62535000D01*
X105065000Y-45920000D02*
X105065000Y-44385000D01*
D54*
X74585000Y-56785000D02*
X74590000Y-56790000D01*
D57*
X72930000Y-70870000D02*
X71460000Y-70870000D01*
D56*
X95320000Y-60950000D02*
X95860000Y-61490000D01*
D58*
X119680000Y-87930000D02*
X119690000Y-87920000D01*
D57*
X110687500Y-70025000D02*
X109255000Y-70025000D01*
X107920000Y-88995000D02*
X107920000Y-89890000D01*
X87530000Y-39460000D02*
X86550000Y-39460000D01*
D58*
X79965000Y-89595000D02*
X79940000Y-89570000D01*
D57*
X119860000Y-44990000D02*
X118560000Y-44990000D01*
D55*
X115320000Y-81640000D02*
X115310000Y-81650000D01*
D56*
X105300000Y-45685000D02*
X105065000Y-45920000D01*
D57*
X111180000Y-92650000D02*
X111180000Y-93790000D01*
D55*
X78100000Y-83050000D02*
X78100000Y-84570000D01*
D56*
X105320000Y-44150000D02*
X105490000Y-44320000D01*
X89360000Y-62535000D02*
X89360000Y-63450000D01*
X110359218Y-77220000D02*
X110490000Y-77220000D01*
X89360000Y-51185000D02*
X89360000Y-52540000D01*
X112300000Y-45510000D02*
X112290000Y-45520000D01*
D57*
X117170000Y-50730000D02*
X117175000Y-50735000D01*
D56*
X88965000Y-63845000D02*
X88015000Y-63845000D01*
X88000000Y-79250000D02*
X88000000Y-80130000D01*
X105300000Y-44150000D02*
X105320000Y-44150000D01*
D57*
X66055000Y-61370000D02*
X67300000Y-61370000D01*
D56*
X85330000Y-37760000D02*
X85330000Y-38340000D01*
X113712500Y-78675000D02*
X113712500Y-80027500D01*
D57*
X111112500Y-72025000D02*
X109685000Y-72025000D01*
D56*
X90542500Y-88935000D02*
X90522500Y-88955000D01*
D55*
X121600000Y-61700000D02*
X121590000Y-61710000D01*
D56*
X89360000Y-61240000D02*
X89150000Y-61030000D01*
D55*
X96890000Y-53620000D02*
X96900000Y-53610000D01*
D56*
X89360000Y-50220000D02*
X89875000Y-49705000D01*
D57*
X121700000Y-48720000D02*
X122695000Y-48720000D01*
X95390000Y-32970000D02*
X95380000Y-32980000D01*
D56*
X85330000Y-38340000D02*
X84835000Y-38835000D01*
X76390000Y-51790000D02*
X75600000Y-51790000D01*
D57*
X107920000Y-89890000D02*
X107890000Y-89920000D01*
D55*
X86550000Y-39460000D02*
X86540000Y-39470000D01*
D56*
X90682500Y-88935000D02*
X90542500Y-88935000D01*
D54*
X80360000Y-50900000D02*
X80340000Y-50880000D01*
D57*
X94797500Y-91700000D02*
X94797500Y-92820000D01*
D56*
X95860000Y-63450000D02*
X95665000Y-63645000D01*
D57*
X78062500Y-80050000D02*
X76440000Y-80050000D01*
D56*
X91077500Y-97240000D02*
X91062500Y-97255000D01*
X76681556Y-53301556D02*
X76681556Y-52081556D01*
X89360000Y-51185000D02*
X89360000Y-50220000D01*
X88000000Y-80130000D02*
X88290000Y-80420000D01*
D57*
%TO.N,VBUS*%
X115687500Y-56567500D02*
X115687500Y-57480000D01*
D56*
X115687500Y-51902500D02*
X115625000Y-51840000D01*
X115670000Y-54740000D02*
X115670000Y-56350000D01*
D57*
X120392786Y-52740000D02*
X120341786Y-52791000D01*
D56*
X115690000Y-53070000D02*
X115687500Y-53072500D01*
X115690000Y-53070000D02*
X115625000Y-53005000D01*
D57*
X118590000Y-52470000D02*
X118590000Y-50120000D01*
X118620000Y-57640000D02*
X116920000Y-59340000D01*
D56*
X115670000Y-56550000D02*
X115687500Y-56567500D01*
X115670000Y-54740000D02*
X115687500Y-54722500D01*
D57*
X120341786Y-52791000D02*
X118911000Y-52791000D01*
D56*
X115670000Y-56350000D02*
X115690000Y-56370000D01*
D57*
X116920000Y-59340000D02*
X115980000Y-59340000D01*
X121195000Y-57640000D02*
X118620000Y-57640000D01*
D56*
X115687500Y-54722500D02*
X115687500Y-53072500D01*
D57*
X118911000Y-52791000D02*
X118590000Y-52470000D01*
X117840000Y-49370000D02*
X116190000Y-49370000D01*
X115625000Y-53005000D02*
X115625000Y-51840000D01*
X116190000Y-49370000D02*
X115625000Y-49935000D01*
X118590000Y-50120000D02*
X117840000Y-49370000D01*
D56*
X115670000Y-56350000D02*
X115670000Y-56550000D01*
D57*
X115625000Y-49935000D02*
X115625000Y-51840000D01*
D56*
X114592500Y-54740000D02*
X115670000Y-54740000D01*
D57*
X121195000Y-52740000D02*
X120392786Y-52740000D01*
%TO.N,+5V*%
X74830000Y-70870000D02*
X74830000Y-72920000D01*
X101610000Y-73715000D02*
X103345000Y-73715000D01*
X74760000Y-72990000D02*
X78780000Y-72990000D01*
X107190000Y-53520000D02*
X107190000Y-52820000D01*
D56*
X111390000Y-50020000D02*
X108590000Y-52820000D01*
D57*
X103560000Y-42250000D02*
X105300000Y-42250000D01*
X109750000Y-57480000D02*
X108790000Y-56520000D01*
X109970000Y-60250000D02*
X109970000Y-60330000D01*
D56*
X109937500Y-44200000D02*
X109937500Y-45067500D01*
D57*
X103345000Y-73715000D02*
X103720000Y-73340000D01*
X106720000Y-52820000D02*
X103560000Y-49660000D01*
X96055000Y-73715000D02*
X96010000Y-73760000D01*
X113530000Y-59320000D02*
X110900000Y-59320000D01*
X103560000Y-49660000D02*
X103560000Y-42250000D01*
D56*
X107662500Y-42300000D02*
X105350000Y-42300000D01*
X105350000Y-42300000D02*
X105300000Y-42250000D01*
D57*
X107190000Y-52820000D02*
X106720000Y-52820000D01*
X110900000Y-59320000D02*
X110840000Y-59380000D01*
X114112500Y-57480000D02*
X109750000Y-57480000D01*
X110840000Y-59380000D02*
X109970000Y-60250000D01*
X74830000Y-72920000D02*
X74760000Y-72990000D01*
D56*
X109937500Y-45067500D02*
X111390000Y-46520000D01*
X111390000Y-46520000D02*
X111390000Y-50020000D01*
X108590000Y-52820000D02*
X107190000Y-52820000D01*
D57*
X101610000Y-73715000D02*
X96055000Y-73715000D01*
D55*
%TO.N,/Power/+5V_FILT*%
X101610000Y-77350000D02*
X101460000Y-77500000D01*
D57*
%TO.N,+3.3VA*%
X107040000Y-85600000D02*
X98280000Y-85600000D01*
X91992500Y-89215000D02*
X93637500Y-89215000D01*
X107920000Y-86480000D02*
X107920000Y-87445000D01*
X105940000Y-87460000D02*
X107905000Y-87460000D01*
X109400000Y-87710000D02*
X109400000Y-91250000D01*
X79230000Y-74650000D02*
X79150000Y-74730000D01*
D55*
X85900000Y-74750000D02*
X86000000Y-74850000D01*
D54*
X89432500Y-87495000D02*
X89522500Y-87405000D01*
D57*
X107405000Y-91250000D02*
X109400000Y-91250000D01*
X82250000Y-74650000D02*
X79230000Y-74650000D01*
X109400000Y-91250000D02*
X111030000Y-91250000D01*
X94190000Y-83200000D02*
X93880000Y-83510000D01*
X93847500Y-89425000D02*
X93847500Y-86892500D01*
D56*
X93860000Y-86880000D02*
X93847500Y-86892500D01*
D57*
X107905000Y-87460000D02*
X107920000Y-87445000D01*
X93880000Y-83510000D02*
X93880000Y-84240000D01*
X97550000Y-83200000D02*
X94190000Y-83200000D01*
X93880000Y-84240000D02*
X93860000Y-84260000D01*
X91992500Y-89215000D02*
X91992500Y-87892500D01*
X109135000Y-87445000D02*
X109400000Y-87710000D01*
X107920000Y-87445000D02*
X109135000Y-87445000D01*
X89570000Y-87375000D02*
X87372500Y-87375000D01*
X98280000Y-85600000D02*
X97550000Y-84870000D01*
X111150000Y-91260000D02*
X112925000Y-91260000D01*
X97550000Y-84870000D02*
X97550000Y-83200000D01*
X107920000Y-86480000D02*
X107040000Y-85600000D01*
X91992500Y-87892500D02*
X91475000Y-87375000D01*
D55*
X84400000Y-74650000D02*
X84500000Y-74750000D01*
D57*
X84500000Y-74750000D02*
X85900000Y-74750000D01*
X91475000Y-87375000D02*
X89570000Y-87375000D01*
D56*
X93637500Y-89215000D02*
X93847500Y-89425000D01*
D57*
X111030000Y-91250000D02*
X111180000Y-91100000D01*
D56*
%TO.N,+3V3*%
X97215000Y-64545000D02*
X96386000Y-63716000D01*
X86440000Y-67770000D02*
X86440000Y-67890000D01*
X104490000Y-52620000D02*
X103270000Y-52620000D01*
X105050000Y-49550000D02*
X105290000Y-49550000D01*
D57*
X64505000Y-61370000D02*
X64505000Y-63614400D01*
D56*
X85565000Y-52625000D02*
X84870000Y-52625000D01*
X114870000Y-42780000D02*
X119562500Y-42780000D01*
D58*
X100930000Y-63140000D02*
X100930000Y-64250000D01*
D56*
X114850000Y-42760000D02*
X114870000Y-42780000D01*
X106690000Y-49570000D02*
X108040000Y-49570000D01*
X82790000Y-53970000D02*
X82820000Y-53940000D01*
X89860000Y-62535000D02*
X89860000Y-61560000D01*
X114770000Y-42760000D02*
X114310000Y-42300000D01*
D57*
X76215000Y-59345000D02*
X74505000Y-59345000D01*
D56*
X88565000Y-67020000D02*
X87190000Y-67020000D01*
X87190000Y-67020000D02*
X86440000Y-67770000D01*
D55*
X96360000Y-61430000D02*
X96610000Y-61180000D01*
D56*
X96386000Y-63716000D02*
X96386000Y-62535000D01*
X82820000Y-53940000D02*
X82820000Y-52825000D01*
D55*
X96360000Y-62535000D02*
X96360000Y-61430000D01*
D56*
X89860000Y-63700000D02*
X89215000Y-64345000D01*
X89215000Y-65070000D02*
X89215000Y-66370000D01*
D55*
X84880000Y-52615000D02*
X84870000Y-52625000D01*
D56*
X105310000Y-49570000D02*
X106690000Y-49570000D01*
D58*
X92830000Y-32060000D02*
X92830000Y-30400000D01*
D56*
X97215000Y-65020000D02*
X97215000Y-64545000D01*
X89860000Y-62535000D02*
X89860000Y-63700000D01*
D58*
X112662500Y-72025000D02*
X112662500Y-70100000D01*
X113212500Y-73342500D02*
X112662500Y-72792500D01*
D56*
X88860000Y-51185000D02*
X88860000Y-50340000D01*
X86440000Y-67890000D02*
X86440000Y-70020000D01*
X89860000Y-61560000D02*
X90280000Y-61140000D01*
X110090000Y-47620000D02*
X110065000Y-47645000D01*
D58*
X112662500Y-70100000D02*
X112587500Y-70025000D01*
D56*
X100600000Y-51605000D02*
X100600000Y-50390000D01*
X76590000Y-61360000D02*
X76580000Y-61370000D01*
X88860000Y-50340000D02*
X88325000Y-49805000D01*
D57*
X64505000Y-58265000D02*
X64500000Y-58260000D01*
X74505000Y-59345000D02*
X74490000Y-59360000D01*
D56*
X89215000Y-66370000D02*
X88565000Y-67020000D01*
X114770000Y-42760000D02*
X114850000Y-42760000D01*
X88325000Y-49805000D02*
X88325000Y-48880000D01*
X108200000Y-67720000D02*
X103620000Y-63140000D01*
D57*
X78930000Y-59345000D02*
X76215000Y-59345000D01*
D56*
X108790000Y-47645000D02*
X110065000Y-47645000D01*
D58*
X112662500Y-72792500D02*
X112662500Y-72025000D01*
D55*
X86500000Y-72055000D02*
X86465000Y-72020000D01*
D57*
X79340000Y-61360000D02*
X76590000Y-61360000D01*
D56*
X86440000Y-67890000D02*
X85730000Y-67180000D01*
X108040000Y-49570000D02*
X108790000Y-48820000D01*
D58*
X93462500Y-28460000D02*
X94780000Y-28460000D01*
D56*
X112587500Y-68857500D02*
X111450000Y-67720000D01*
X112587500Y-70025000D02*
X112587500Y-68857500D01*
X86050000Y-53110000D02*
X85565000Y-52625000D01*
D58*
X113212500Y-74275000D02*
X113212500Y-73342500D01*
D56*
X105290000Y-49550000D02*
X105310000Y-49570000D01*
X114310000Y-42300000D02*
X112300000Y-42300000D01*
D57*
X76190000Y-59320000D02*
X76215000Y-59345000D01*
D56*
X86465000Y-72020000D02*
X86465000Y-70045000D01*
D55*
X64505000Y-63614400D02*
X64499400Y-63620000D01*
D58*
X100160000Y-65020000D02*
X97215000Y-65020000D01*
D56*
X89215000Y-64345000D02*
X89215000Y-65070000D01*
X86500000Y-74850000D02*
X86500000Y-72055000D01*
X111450000Y-67720000D02*
X108200000Y-67720000D01*
D58*
X100930000Y-64250000D02*
X100160000Y-65020000D01*
D55*
X86465000Y-70045000D02*
X86440000Y-70020000D01*
D57*
X103270000Y-52620000D02*
X103250000Y-52640000D01*
D56*
X86935000Y-53110000D02*
X86050000Y-53110000D01*
X88320000Y-47560000D02*
X88325000Y-47565000D01*
D58*
X92830000Y-30400000D02*
X93462500Y-29767500D01*
D56*
X100600000Y-50390000D02*
X100610000Y-50380000D01*
X88325000Y-48880000D02*
X88325000Y-47565000D01*
X103620000Y-63140000D02*
X100930000Y-63140000D01*
X82995000Y-52650000D02*
X82820000Y-52825000D01*
D58*
X94780000Y-28460000D02*
X94800000Y-28480000D01*
D57*
X64505000Y-61370000D02*
X64505000Y-58265000D01*
D56*
X85730000Y-67180000D02*
X85070000Y-67180000D01*
D58*
X93462500Y-29767500D02*
X93462500Y-28460000D01*
D56*
X108790000Y-48820000D02*
X108790000Y-47645000D01*
%TO.N,/Power/BUCK_FB*%
X106715000Y-45920000D02*
X106715000Y-47645000D01*
X107662500Y-44200000D02*
X107662500Y-45847500D01*
X107662500Y-45847500D02*
X107590000Y-45920000D01*
X108715000Y-45920000D02*
X108790000Y-45995000D01*
X106715000Y-47645000D02*
X106690000Y-47670000D01*
X107590000Y-45920000D02*
X108715000Y-45920000D01*
X106715000Y-45920000D02*
X107590000Y-45920000D01*
D55*
%TO.N,/Power/VREF*%
X103645000Y-91090000D02*
X103660000Y-91105000D01*
X105610000Y-91105000D02*
X105755000Y-91250000D01*
D58*
X103645000Y-89420000D02*
X103645000Y-91090000D01*
X103645000Y-89420000D02*
X100690000Y-89420000D01*
X103660000Y-91105000D02*
X105610000Y-91105000D01*
D55*
X100690000Y-89420000D02*
X100650000Y-89460000D01*
D56*
%TO.N,VDDA*%
X80915000Y-59910000D02*
X81430000Y-59395000D01*
D55*
X83765000Y-59110000D02*
X83430000Y-59445000D01*
D56*
X81655000Y-59170000D02*
X81430000Y-59395000D01*
X80915000Y-61360000D02*
X80915000Y-59910000D01*
X86935000Y-59110000D02*
X83765000Y-59110000D01*
X83430000Y-59170000D02*
X81655000Y-59170000D01*
D58*
%TO.N,/MCU/HSE_IN*%
X85870000Y-55110000D02*
X85650000Y-54890000D01*
X78940000Y-51790000D02*
X77800000Y-51790000D01*
X79220000Y-53370000D02*
X79220000Y-52070000D01*
X79435000Y-53585000D02*
X79220000Y-53370000D01*
X80360000Y-54280000D02*
X80360000Y-53585000D01*
X80970000Y-54890000D02*
X80360000Y-54280000D01*
X86935000Y-55110000D02*
X85870000Y-55110000D01*
X80360000Y-53585000D02*
X79435000Y-53585000D01*
X79220000Y-52070000D02*
X78940000Y-51790000D01*
X85650000Y-54890000D02*
X80970000Y-54890000D01*
%TO.N,/MCU/XTAL_IN*%
X77860000Y-55535000D02*
X76135000Y-55535000D01*
X76135000Y-54905000D02*
X75600000Y-54370000D01*
X75600000Y-54370000D02*
X75600000Y-53490000D01*
X76135000Y-55535000D02*
X76135000Y-54905000D01*
%TO.N,NRST*%
X83285000Y-41755000D02*
X83285000Y-39450000D01*
X88770000Y-53210000D02*
X86870000Y-51310000D01*
X86870000Y-45340000D02*
X83285000Y-41755000D01*
D55*
X83330000Y-39405000D02*
X83285000Y-39450000D01*
D58*
X88770000Y-55610000D02*
X88770000Y-53210000D01*
X88270000Y-56110000D02*
X88770000Y-55610000D01*
X86870000Y-51310000D02*
X86870000Y-45340000D01*
X83330000Y-37410000D02*
X83330000Y-39405000D01*
X86935000Y-56110000D02*
X88270000Y-56110000D01*
D55*
%TO.N,/ADC/IN_RF*%
X99947500Y-95975000D02*
X99972500Y-95950000D01*
D58*
X95722500Y-97875000D02*
X95722500Y-95975000D01*
X95722500Y-95975000D02*
X97722500Y-95975000D01*
X97722500Y-95975000D02*
X99947500Y-95975000D01*
%TO.N,/ADC/IN_BUF*%
X95722500Y-94425000D02*
X95722500Y-91725000D01*
D55*
X95722500Y-91725000D02*
X95747500Y-91700000D01*
X97765000Y-91700000D02*
X97910000Y-91845000D01*
X95747500Y-91700000D02*
X97765000Y-91700000D01*
D58*
%TO.N,Net-(C303-Pad1)*%
X93812500Y-97240000D02*
X93812500Y-95565000D01*
X90772500Y-95565000D02*
X87957500Y-92750000D01*
X93812500Y-95565000D02*
X90772500Y-95565000D01*
X87957500Y-92750000D02*
X86222500Y-92750000D01*
%TO.N,Net-(C304-Pad1)*%
X84547500Y-91175000D02*
X87947500Y-91175000D01*
%TO.N,/ADC/IN_AA_BUF_OUT*%
X89497500Y-90307500D02*
X89497500Y-91175000D01*
X84792500Y-85520000D02*
X84792500Y-87370000D01*
X87290000Y-89250000D02*
X88180000Y-89250000D01*
X89350000Y-90160000D02*
X89497500Y-90307500D01*
X85930000Y-87350000D02*
X86207500Y-87627500D01*
X85015000Y-87350000D02*
X85930000Y-87350000D01*
X89090000Y-90160000D02*
X89350000Y-90160000D01*
X88180000Y-89250000D02*
X89090000Y-90160000D01*
X86207500Y-87627500D02*
X86207500Y-89127500D01*
X86330000Y-89250000D02*
X87290000Y-89250000D01*
X86207500Y-89127500D02*
X86330000Y-89250000D01*
D54*
X84860000Y-87195000D02*
X85015000Y-87350000D01*
D58*
%TO.N,/ADC/IN_AA_BUF_IN*%
X81220000Y-91175000D02*
X81190000Y-91145000D01*
X82897500Y-91175000D02*
X82897500Y-90022500D01*
X83670000Y-89250000D02*
X85015000Y-89250000D01*
X82897500Y-91175000D02*
X81220000Y-91175000D01*
X82897500Y-90022500D02*
X83670000Y-89250000D01*
D55*
%TO.N,ADC_IN+*%
X86472500Y-83985000D02*
X86507500Y-84020000D01*
D58*
X86507500Y-80817500D02*
X86507500Y-83945000D01*
D54*
X86432500Y-83945000D02*
X86507500Y-84020000D01*
D58*
X84792500Y-83945000D02*
X86432500Y-83945000D01*
X86500000Y-79250000D02*
X86500000Y-80810000D01*
D55*
X86500000Y-80810000D02*
X86507500Y-80817500D01*
D58*
%TO.N,ADC_IN-*%
X88057500Y-84020000D02*
X89717500Y-84020000D01*
X87000000Y-79250000D02*
X87000000Y-80120000D01*
D54*
X89717500Y-84020000D02*
X89792500Y-83945000D01*
D58*
X87000000Y-80120000D02*
X88057500Y-81177500D01*
X88057500Y-81177500D02*
X88057500Y-83945000D01*
D57*
%TO.N,/ADC/ADC_VREF_VIN*%
X80000000Y-83050000D02*
X80000000Y-81062500D01*
X80000000Y-86410000D02*
X80000000Y-83050000D01*
X78990000Y-87420000D02*
X80000000Y-86410000D01*
D55*
X80000000Y-81062500D02*
X79937500Y-81000000D01*
D57*
X74760000Y-77490000D02*
X74760000Y-74640000D01*
X74790000Y-86620000D02*
X75590000Y-87420000D01*
X74790000Y-77520000D02*
X74760000Y-77490000D01*
X75590000Y-87420000D02*
X78990000Y-87420000D01*
D55*
X79937500Y-82987500D02*
X80000000Y-83050000D01*
D57*
X74790000Y-77520000D02*
X74790000Y-86620000D01*
D55*
%TO.N,/ADC/ADC_VREF*%
X85975000Y-79275000D02*
X86000000Y-79250000D01*
D57*
X82250000Y-79150000D02*
X84375000Y-79150000D01*
D55*
X84375000Y-79150000D02*
X84500000Y-79275000D01*
X82200000Y-79100000D02*
X82250000Y-79150000D01*
D58*
%TO.N,/DAC/DAC_VREF*%
X112415000Y-74025000D02*
X112665000Y-74275000D01*
X110887500Y-74025000D02*
X112415000Y-74025000D01*
%TO.N,Net-(C403-Pad1)*%
X114782500Y-85420000D02*
X114782500Y-83527500D01*
X114782500Y-83527500D02*
X114765000Y-83510000D01*
D55*
X114787500Y-83532500D02*
X114765000Y-83510000D01*
D58*
X114765000Y-83510000D02*
X113027500Y-83510000D01*
%TO.N,/DAC/OUT_BUF_AA_IN*%
X118107500Y-86995000D02*
X118107500Y-89037500D01*
X115340000Y-89340000D02*
X116330000Y-89340000D01*
D55*
X118107500Y-89037500D02*
X118130000Y-89060000D01*
X117990000Y-89200000D02*
X118130000Y-89060000D01*
D58*
X116330000Y-89340000D02*
X116610000Y-89060000D01*
X116610000Y-89060000D02*
X118130000Y-89060000D01*
%TO.N,Net-(C405-Pad1)*%
X116457500Y-86995000D02*
X113032500Y-86995000D01*
D55*
%TO.N,/DAC/OUT_BUF_AA_OUT*%
X115472500Y-91212500D02*
X115360000Y-91100000D01*
D58*
X110190000Y-87200000D02*
X110190000Y-88490000D01*
X110400000Y-86990000D02*
X110190000Y-87200000D01*
X114597500Y-91100000D02*
X114202500Y-90705000D01*
X114202500Y-89615000D02*
X113787500Y-89200000D01*
X111040000Y-89340000D02*
X113065000Y-89340000D01*
X113787500Y-89200000D02*
X113085000Y-89200000D01*
D54*
X111482500Y-87352500D02*
X111482500Y-86995000D01*
D58*
X114202500Y-90705000D02*
X114202500Y-89615000D01*
X110190000Y-88490000D02*
X111040000Y-89340000D01*
X115472500Y-92850000D02*
X115472500Y-91212500D01*
D54*
X110400000Y-86990000D02*
X110405000Y-86995000D01*
D58*
X110405000Y-86995000D02*
X111482500Y-86995000D01*
X115360000Y-91100000D02*
X114597500Y-91100000D01*
D56*
%TO.N,/Power/LED_PWR_K*%
X121437500Y-42780000D02*
X121437500Y-44917500D01*
X121437500Y-44917500D02*
X121510000Y-44990000D01*
D55*
%TO.N,/MCU/CH3_B*%
X64510000Y-65080600D02*
X64499400Y-65070000D01*
D58*
X64510000Y-67230000D02*
X64510000Y-65080600D01*
%TO.N,/MCU/CH1_R*%
X68100000Y-63620000D02*
X68390000Y-63330000D01*
X66760000Y-63620000D02*
X68100000Y-63620000D01*
X68390000Y-63330000D02*
X69095000Y-63330000D01*
D55*
X66835000Y-63545000D02*
X66760000Y-63620000D01*
D58*
%TO.N,/MCU/CH2_G*%
X68120000Y-65340000D02*
X69095000Y-65340000D01*
X67850000Y-65070000D02*
X68120000Y-65340000D01*
X66760000Y-65070000D02*
X67850000Y-65070000D01*
%TO.N,/MCU/CON_SWDIO*%
X92830000Y-35960000D02*
X92830000Y-37490000D01*
D55*
X94970000Y-37725000D02*
X95360000Y-37725000D01*
X94945000Y-37750000D02*
X94970000Y-37725000D01*
D58*
X93090000Y-37750000D02*
X94945000Y-37750000D01*
X95360000Y-37725000D02*
X95360000Y-36190000D01*
D55*
X95360000Y-36190000D02*
X95320000Y-36150000D01*
D58*
X92830000Y-37490000D02*
X93090000Y-37750000D01*
%TO.N,/MCU/CON_SWCLK*%
X91560000Y-38310000D02*
X91560000Y-35960000D01*
X91280000Y-38590000D02*
X91560000Y-38310000D01*
X91505000Y-41560000D02*
X91505000Y-40435000D01*
X91505000Y-40435000D02*
X91280000Y-40210000D01*
X91280000Y-39460000D02*
X91280000Y-38590000D01*
X91280000Y-40210000D02*
X91280000Y-39460000D01*
%TO.N,/MCU/CON_NRST*%
X86190000Y-34210000D02*
X87410000Y-34210000D01*
X87750000Y-34550000D02*
X87750000Y-35960000D01*
X85330000Y-35070000D02*
X86190000Y-34210000D01*
X87410000Y-34210000D02*
X87750000Y-34550000D01*
D55*
X85230000Y-35760000D02*
X85330000Y-35660000D01*
D58*
X85330000Y-35660000D02*
X85330000Y-35070000D01*
X83330000Y-35760000D02*
X85230000Y-35760000D01*
D54*
%TO.N,/ADC/IN*%
X81710000Y-103510000D02*
X81680000Y-103480000D01*
D58*
X81710000Y-107700000D02*
X81710000Y-103510000D01*
X84415000Y-99525000D02*
X95722500Y-99525000D01*
X81700000Y-102240000D02*
X84415000Y-99525000D01*
D55*
X81710000Y-103510000D02*
X81700000Y-103500000D01*
D58*
X81700000Y-103500000D02*
X81700000Y-102240000D01*
%TO.N,/DAC/OUT*%
X109340000Y-98880000D02*
X113890000Y-98880000D01*
X115472500Y-97262500D02*
X115472500Y-94500000D01*
D55*
X106236000Y-103441500D02*
X106277500Y-103400000D01*
D58*
X106236000Y-107700000D02*
X106236000Y-103441500D01*
X106277500Y-103400000D02*
X106277500Y-101942500D01*
X106277500Y-101942500D02*
X109340000Y-98880000D01*
X113890000Y-98880000D02*
X115490000Y-97280000D01*
D55*
X115490000Y-97280000D02*
X115472500Y-97262500D01*
%TO.N,USB_CMC_D-*%
X111945000Y-55250000D02*
X111895000Y-55300000D01*
%TO.N,USB_CMC_D+*%
X111915000Y-54520000D02*
X111895000Y-54500000D01*
D58*
%TO.N,/MCU/USB_CONN_CC1*%
X121195000Y-56440000D02*
X123330000Y-56440000D01*
X124335000Y-57445000D02*
X124335000Y-61700000D01*
X123330000Y-56440000D02*
X124335000Y-57445000D01*
%TO.N,/MCU/USB_CONN_CC2*%
X124345000Y-52755000D02*
X124345000Y-48720000D01*
X123660000Y-53440000D02*
X124345000Y-52755000D01*
X121195000Y-53440000D02*
X123660000Y-53440000D01*
%TO.N,/MCU/BOOT0*%
X90860000Y-51185000D02*
X90860000Y-50210000D01*
X90860000Y-50210000D02*
X91580000Y-49490000D01*
X91580000Y-49490000D02*
X91580000Y-48685000D01*
%TO.N,SPI1_NSS*%
X88380000Y-73360000D02*
X88000000Y-73740000D01*
D55*
X88480556Y-73360000D02*
X88380000Y-73360000D01*
X90360000Y-66875000D02*
X90215000Y-67020000D01*
D58*
X88000000Y-73740000D02*
X88000000Y-74850000D01*
X90360000Y-62535000D02*
X90360000Y-66875000D01*
X88620000Y-70870000D02*
X88620000Y-70160000D01*
X88620000Y-70160000D02*
X90215000Y-68565000D01*
X90215000Y-68565000D02*
X90215000Y-67020000D01*
D55*
X88620000Y-73220556D02*
X88480556Y-73360000D01*
D58*
%TO.N,/MCU/HSE_OUT*%
X86935000Y-55610000D02*
X79585000Y-55610000D01*
D55*
X79585000Y-55610000D02*
X79510000Y-55535000D01*
D58*
%TO.N,SPI2_NSS*%
X107020000Y-61470000D02*
X111160000Y-65610000D01*
X115580000Y-72400000D02*
X114712500Y-73267500D01*
X115580000Y-66040000D02*
X115580000Y-72400000D01*
X114712500Y-73267500D02*
X114712500Y-74275000D01*
X100090000Y-61490000D02*
X100930000Y-61490000D01*
X111160000Y-65610000D02*
X115150000Y-65610000D01*
X98285000Y-60610000D02*
X99210000Y-60610000D01*
D55*
X107020000Y-61360000D02*
X107020000Y-61470000D01*
X103310000Y-61490000D02*
X103370000Y-61430000D01*
D58*
X99210000Y-60610000D02*
X100090000Y-61490000D01*
X100930000Y-61490000D02*
X103310000Y-61490000D01*
X115150000Y-65610000D02*
X115580000Y-66040000D01*
%TO.N,TM2_CH1*%
X86935000Y-59610000D02*
X84760000Y-59610000D01*
X83510000Y-63330000D02*
X70745000Y-63330000D01*
X84760000Y-59610000D02*
X84610000Y-59760000D01*
X84610000Y-62230000D02*
X83510000Y-63330000D01*
X84610000Y-59760000D02*
X84610000Y-62230000D01*
%TO.N,TM2_CH2*%
X85370000Y-60110000D02*
X85130000Y-60350000D01*
X82840000Y-65340000D02*
X70745000Y-65340000D01*
X86935000Y-60110000D02*
X85370000Y-60110000D01*
X85130000Y-60350000D02*
X85130000Y-63050000D01*
X85130000Y-63050000D02*
X82840000Y-65340000D01*
%TO.N,TM2_CH3*%
X86935000Y-60610000D02*
X85880000Y-60610000D01*
X85700000Y-63740000D02*
X82210000Y-67230000D01*
X85700000Y-60790000D02*
X85700000Y-63740000D01*
X82210000Y-67230000D02*
X66160000Y-67230000D01*
X85880000Y-60610000D02*
X85700000Y-60790000D01*
%TO.N,SWDIO*%
X102130000Y-48290000D02*
X95330000Y-41490000D01*
X95330000Y-41490000D02*
X95330000Y-39405000D01*
X102130000Y-48370000D02*
X102130000Y-48290000D01*
D54*
X95330000Y-39405000D02*
X95360000Y-39375000D01*
D58*
X102180000Y-53510000D02*
X102180000Y-48420000D01*
D55*
X99510000Y-54110000D02*
X99550000Y-54150000D01*
D58*
X101540000Y-54150000D02*
X102180000Y-53510000D01*
X99550000Y-54150000D02*
X101540000Y-54150000D01*
D55*
X102180000Y-48420000D02*
X102130000Y-48370000D01*
D58*
X98285000Y-54110000D02*
X99510000Y-54110000D01*
%TO.N,SWCLK*%
X96360000Y-51185000D02*
X96360000Y-46970000D01*
X96360000Y-46970000D02*
X93155000Y-43765000D01*
X93155000Y-43765000D02*
X93155000Y-41560000D01*
%TO.N,SWO*%
X93360000Y-51185000D02*
X93360000Y-46820000D01*
X93360000Y-46820000D02*
X89175000Y-42635000D01*
X89175000Y-42635000D02*
X89175000Y-41680000D01*
%TO.N,VCOM*%
X104790000Y-87770000D02*
X104790000Y-89130000D01*
X105080000Y-89420000D02*
X105920000Y-89420000D01*
X95165000Y-85595000D02*
X97090000Y-87520000D01*
X104540000Y-87520000D02*
X104790000Y-87770000D01*
X97910000Y-90020000D02*
X97910000Y-87550000D01*
X89792500Y-85595000D02*
X95165000Y-85595000D01*
X97090000Y-87520000D02*
X97940000Y-87520000D01*
X104540000Y-87520000D02*
X103645000Y-87520000D01*
X97910000Y-87550000D02*
X97940000Y-87520000D01*
X104790000Y-89130000D02*
X105080000Y-89420000D01*
X97940000Y-87520000D02*
X103645000Y-87520000D01*
%TO.N,/ADC/IN_BUF_OUT*%
X95747500Y-90232500D02*
X95747500Y-89425000D01*
X93847500Y-90992500D02*
X94260000Y-90580000D01*
X93847500Y-91700000D02*
X93847500Y-90992500D01*
X93847500Y-91700000D02*
X93847500Y-93880000D01*
X95400000Y-90580000D02*
X95747500Y-90232500D01*
X94260000Y-90580000D02*
X95400000Y-90580000D01*
D55*
X93847500Y-93880000D02*
X93812500Y-93915000D01*
D58*
%TO.N,/ADC/ADC_SCLK*%
X88490000Y-72020000D02*
X87000000Y-73510000D01*
X90990000Y-72020000D02*
X88490000Y-72020000D01*
X87000000Y-73510000D02*
X87000000Y-74850000D01*
X91240000Y-70920000D02*
X91240000Y-71770000D01*
X91240000Y-71770000D02*
X90990000Y-72020000D01*
%TO.N,SPI1_SCK*%
X91240000Y-65320000D02*
X91240000Y-69270000D01*
X90860000Y-62535000D02*
X90860000Y-64940000D01*
X90860000Y-64940000D02*
X91240000Y-65320000D01*
%TO.N,SPI2_SCK*%
X114190000Y-66765000D02*
X110455000Y-66765000D01*
X103800000Y-60110000D02*
X98285000Y-60110000D01*
X110455000Y-66765000D02*
X103800000Y-60110000D01*
D55*
%TO.N,/DAC/DAC_SCLK*%
X114212500Y-73197500D02*
X114190000Y-73175000D01*
D58*
X114190000Y-73175000D02*
X114190000Y-68415000D01*
X114212500Y-74275000D02*
X114212500Y-73197500D01*
%TO.N,/DAC/DAC_OUT_B*%
X113212500Y-78675000D02*
X113212500Y-79607500D01*
X113212500Y-79607500D02*
X112450000Y-80370000D01*
X112450000Y-80370000D02*
X112450000Y-81550000D01*
%TO.N,/DAC/DAC_OUT_A*%
X111740000Y-77670000D02*
X111340000Y-78070000D01*
D55*
X111340000Y-83472500D02*
X111377500Y-83510000D01*
D58*
X112712500Y-78675000D02*
X112712500Y-77902500D01*
X112480000Y-77670000D02*
X111740000Y-77670000D01*
X112712500Y-77902500D02*
X112480000Y-77670000D01*
X111340000Y-78070000D02*
X111340000Y-83472500D01*
D54*
%TO.N,DAC_NCLR*%
X93360000Y-62535000D02*
X93360000Y-68760000D01*
D58*
X114712500Y-78675000D02*
X114712500Y-77847500D01*
X114712500Y-77847500D02*
X114860000Y-77700000D01*
D54*
X107270000Y-74170000D02*
X107270000Y-78870338D01*
D58*
X114860000Y-77700000D02*
X115590000Y-77700000D01*
D54*
X93360000Y-68760000D02*
X95840000Y-71240000D01*
X104340000Y-71240000D02*
X107270000Y-74170000D01*
X95840000Y-71240000D02*
X104340000Y-71240000D01*
X107270000Y-78870338D02*
X107267903Y-78872435D01*
%TO.N,SPI1_MISO*%
X92600000Y-65290000D02*
X91360000Y-64050000D01*
D58*
X90390000Y-76070000D02*
X92600000Y-73860000D01*
X87500000Y-75870000D02*
X87700000Y-76070000D01*
D54*
X91360000Y-64050000D02*
X91360000Y-62535000D01*
D58*
X87500000Y-74850000D02*
X87500000Y-75870000D01*
X92600000Y-73860000D02*
X92600000Y-65290000D01*
X87700000Y-76070000D02*
X90390000Y-76070000D01*
%TO.N,DAC_NLDAC*%
X94390000Y-64470000D02*
X94390000Y-67020000D01*
D55*
X116170000Y-76540000D02*
X116180000Y-76530000D01*
D58*
X114212500Y-78675000D02*
X114212500Y-77407500D01*
X94390000Y-67020000D02*
X96140000Y-68770000D01*
X105940000Y-68770000D02*
X108350000Y-71180000D01*
D55*
X116090000Y-76540000D02*
X116170000Y-76540000D01*
D58*
X93860000Y-62535000D02*
X93860000Y-63940000D01*
X114630000Y-76990000D02*
X115080000Y-76540000D01*
X114212500Y-77407500D02*
X114630000Y-76990000D01*
X93860000Y-63940000D02*
X94390000Y-64470000D01*
X108350000Y-71180000D02*
X108350000Y-76430000D01*
X96140000Y-68770000D02*
X105940000Y-68770000D01*
X115080000Y-76540000D02*
X116090000Y-76540000D01*
D55*
X108340000Y-76440000D02*
X108350000Y-76430000D01*
D58*
%TO.N,SPI2_MOSI*%
X100630000Y-59110000D02*
X98285000Y-59110000D01*
X113712500Y-75182500D02*
X114000000Y-75470000D01*
X116750000Y-65620000D02*
X115840000Y-64710000D01*
X115840000Y-64710000D02*
X111940000Y-64710000D01*
X116750000Y-74200000D02*
X116750000Y-65620000D01*
X114000000Y-75470000D02*
X115480000Y-75470000D01*
X115480000Y-75470000D02*
X116750000Y-74200000D01*
X111940000Y-64710000D02*
X105870000Y-58640000D01*
X113712500Y-74275000D02*
X113712500Y-75182500D01*
X105870000Y-58640000D02*
X101100000Y-58640000D01*
X101100000Y-58640000D02*
X100630000Y-59110000D01*
D55*
%TO.N,/MCU/CON_SWO*%
X90210000Y-36040000D02*
X90290000Y-35960000D01*
D58*
X87505000Y-41560000D02*
X87505000Y-40835000D01*
X90210000Y-37660000D02*
X90210000Y-36040000D01*
X87505000Y-40835000D02*
X87650000Y-40690000D01*
X89630000Y-39460000D02*
X89630000Y-38240000D01*
X87650000Y-40690000D02*
X88860000Y-40690000D01*
X89630000Y-39920000D02*
X89630000Y-39460000D01*
X88860000Y-40690000D02*
X89630000Y-39920000D01*
X89630000Y-38240000D02*
X90210000Y-37660000D01*
%TD*%
%TA.AperFunction,Conductor*%
%TO.N,GND*%
G36*
X84801673Y-80385916D02*
G01*
X84816664Y-80390271D01*
X84882210Y-80409314D01*
X84939047Y-80421488D01*
X84974158Y-80426410D01*
X85032144Y-80430333D01*
X85240381Y-80429463D01*
X85314960Y-80449114D01*
X85369725Y-80503424D01*
X85389999Y-80577840D01*
X85390000Y-80578462D01*
X85390000Y-82258282D01*
X85370038Y-82332782D01*
X85346359Y-82363641D01*
X85033641Y-82676359D01*
X84966846Y-82714923D01*
X84928282Y-82720000D01*
X81439000Y-82720000D01*
X81364500Y-82700038D01*
X81309962Y-82645500D01*
X81290000Y-82571000D01*
X81290000Y-80594326D01*
X81309962Y-80519826D01*
X81364500Y-80465288D01*
X81438373Y-80445328D01*
X83957794Y-80434816D01*
X84039121Y-80426231D01*
X84074653Y-80418799D01*
X84074652Y-80418798D01*
X84092636Y-80415037D01*
X84092640Y-80415036D01*
X84098508Y-80413808D01*
X84105251Y-80412957D01*
X84112111Y-80410963D01*
X84117691Y-80409797D01*
X84117693Y-80409797D01*
X84119410Y-80409437D01*
X84125142Y-80407178D01*
X84148072Y-80400516D01*
X84198329Y-80385916D01*
X84239897Y-80380000D01*
X84760104Y-80380000D01*
X84801673Y-80385916D01*
G37*
%TD.AperFunction*%
%TD*%
%TA.AperFunction,Conductor*%
%TO.N,VBUS*%
G36*
X116908177Y-56595935D02*
G01*
X116928819Y-56612569D01*
X117006181Y-56689931D01*
X117039666Y-56751254D01*
X117042500Y-56777612D01*
X117042500Y-59752250D01*
X117022815Y-59819289D01*
X116970011Y-59865044D01*
X116918500Y-59876250D01*
X115343862Y-59876250D01*
X115314421Y-59867605D01*
X115284435Y-59861082D01*
X115279419Y-59857327D01*
X115276823Y-59856565D01*
X115256181Y-59839931D01*
X115138819Y-59722569D01*
X115105334Y-59661246D01*
X115102500Y-59634888D01*
X115102500Y-56700250D01*
X115122185Y-56633211D01*
X115174989Y-56587456D01*
X115226500Y-56576250D01*
X116841138Y-56576250D01*
X116908177Y-56595935D01*
G37*
%TD.AperFunction*%
%TD*%
%TA.AperFunction,Conductor*%
%TO.N,GND*%
G36*
X101995500Y-90499962D02*
G01*
X102050038Y-90554500D01*
X102070000Y-90629000D01*
X102070000Y-92370000D01*
X103460000Y-92370000D01*
X103497514Y-92370000D01*
X103539165Y-92337680D01*
X103604838Y-92326237D01*
X104448908Y-92371111D01*
X104522243Y-92395000D01*
X104573809Y-92452357D01*
X104589997Y-92520554D01*
X104580269Y-94738664D01*
X104559980Y-94813076D01*
X104536629Y-94843370D01*
X104316141Y-95063859D01*
X104249346Y-95102423D01*
X104210782Y-95107500D01*
X100760427Y-95107500D01*
X100691676Y-95089078D01*
X100691503Y-95089480D01*
X100688784Y-95088303D01*
X100685927Y-95087538D01*
X100684581Y-95086751D01*
X100682902Y-95085758D01*
X100682900Y-95085757D01*
X100682898Y-95085756D01*
X100596132Y-95060548D01*
X100525071Y-95039902D01*
X100525072Y-95039902D01*
X100514006Y-95039031D01*
X100488194Y-95037000D01*
X99456806Y-95037000D01*
X99432222Y-95038934D01*
X99419928Y-95039902D01*
X99337471Y-95063859D01*
X99262102Y-95085756D01*
X99262100Y-95085756D01*
X99262100Y-95085757D01*
X99262097Y-95085758D01*
X99260419Y-95086751D01*
X99258684Y-95087235D01*
X99253497Y-95089480D01*
X99253189Y-95088769D01*
X99186132Y-95107492D01*
X99184573Y-95107500D01*
X97219000Y-95107500D01*
X97144500Y-95087538D01*
X97089962Y-95033000D01*
X97070000Y-94958500D01*
X97070000Y-93459000D01*
X97089962Y-93384500D01*
X97144500Y-93329962D01*
X97219000Y-93310000D01*
X99450000Y-93310000D01*
X99490000Y-93270000D01*
X99490000Y-90861718D01*
X99509962Y-90787218D01*
X99533641Y-90756359D01*
X99766359Y-90523641D01*
X99833154Y-90485077D01*
X99871718Y-90480000D01*
X101921000Y-90480000D01*
X101995500Y-90499962D01*
G37*
%TD.AperFunction*%
%TD*%
%TA.AperFunction,Conductor*%
%TO.N,GND*%
G36*
X85215500Y-75939962D02*
G01*
X85270038Y-75994500D01*
X85290000Y-76069000D01*
X85290000Y-77558282D01*
X85270038Y-77632782D01*
X85246359Y-77663641D01*
X85039141Y-77870859D01*
X85022263Y-77880603D01*
X85008508Y-77894407D01*
X84989503Y-77899517D01*
X84972346Y-77909423D01*
X84934043Y-77914500D01*
X84670161Y-77914500D01*
X84650265Y-77914988D01*
X84650087Y-77914996D01*
X84648218Y-77915000D01*
X84648206Y-77914996D01*
X84647957Y-77915000D01*
X84532043Y-77915000D01*
X84528391Y-77914955D01*
X84524534Y-77914860D01*
X84509845Y-77914500D01*
X84509839Y-77914500D01*
X82461507Y-77914500D01*
X82461498Y-77914500D01*
X82457855Y-77914679D01*
X82457849Y-77914570D01*
X82449111Y-77915000D01*
X82330889Y-77915000D01*
X82322150Y-77914570D01*
X82322145Y-77914679D01*
X82318502Y-77914500D01*
X82318493Y-77914500D01*
X81346218Y-77914500D01*
X81327270Y-77909423D01*
X81307654Y-77909423D01*
X81290666Y-77899615D01*
X81271718Y-77894538D01*
X81240859Y-77870859D01*
X81233641Y-77863641D01*
X81195077Y-77796846D01*
X81190000Y-77758282D01*
X81190000Y-76069000D01*
X81209962Y-75994500D01*
X81264500Y-75939962D01*
X81339000Y-75920000D01*
X85141000Y-75920000D01*
X85215500Y-75939962D01*
G37*
%TD.AperFunction*%
%TD*%
%TA.AperFunction,Conductor*%
%TO.N,GND*%
G36*
X85415500Y-68739962D02*
G01*
X85470038Y-68794500D01*
X85490000Y-68869000D01*
X85490000Y-73071000D01*
X85470038Y-73145500D01*
X85415500Y-73200038D01*
X85341000Y-73220000D01*
X83051718Y-73220000D01*
X83032770Y-73214923D01*
X83013154Y-73214923D01*
X82996166Y-73205115D01*
X82977218Y-73200038D01*
X82946359Y-73176359D01*
X82833641Y-73063641D01*
X82795077Y-72996846D01*
X82790000Y-72958282D01*
X82790000Y-69181718D01*
X82809962Y-69107218D01*
X82833641Y-69076359D01*
X83146359Y-68763641D01*
X83213154Y-68725077D01*
X83251718Y-68720000D01*
X85341000Y-68720000D01*
X85415500Y-68739962D01*
G37*
%TD.AperFunction*%
%TD*%
%TA.AperFunction,Conductor*%
%TO.N,GND*%
G36*
X100383039Y-76389685D02*
G01*
X100428794Y-76442489D01*
X100440000Y-76494000D01*
X100440000Y-80203503D01*
X100432971Y-80227439D01*
X100430031Y-80252216D01*
X100421651Y-80265990D01*
X100420315Y-80270542D01*
X100416290Y-80274803D01*
X100411688Y-80282369D01*
X100397025Y-80300158D01*
X100386653Y-80305444D01*
X100296944Y-80395153D01*
X100261665Y-80464390D01*
X100253032Y-80474866D01*
X100195204Y-80514079D01*
X100157344Y-80520000D01*
X98640000Y-80520000D01*
X98640000Y-81946000D01*
X98620315Y-82013039D01*
X98567511Y-82058794D01*
X98516000Y-82070000D01*
X96341362Y-82070000D01*
X96274323Y-82050315D01*
X96253681Y-82033681D01*
X96076319Y-81856319D01*
X96042834Y-81794996D01*
X96040000Y-81768638D01*
X96040000Y-79571362D01*
X96059685Y-79504323D01*
X96076319Y-79483681D01*
X96353681Y-79206319D01*
X96415004Y-79172834D01*
X96441362Y-79170000D01*
X98490000Y-79170000D01*
X98590000Y-79070000D01*
X98590000Y-76494000D01*
X98609685Y-76426961D01*
X98662489Y-76381206D01*
X98714000Y-76370000D01*
X100316000Y-76370000D01*
X100383039Y-76389685D01*
G37*
%TD.AperFunction*%
%TD*%
%TA.AperFunction,Conductor*%
%TO.N,+5V*%
G36*
X108433039Y-41589685D02*
G01*
X108478794Y-41642489D01*
X108490000Y-41694000D01*
X108490000Y-42575500D01*
X108470315Y-42642539D01*
X108417511Y-42688294D01*
X108366000Y-42699500D01*
X105487525Y-42699500D01*
X105403519Y-42722009D01*
X105347513Y-42737016D01*
X105347512Y-42737017D01*
X105232556Y-42803387D01*
X105170556Y-42820000D01*
X104014000Y-42820000D01*
X103946961Y-42800315D01*
X103901206Y-42747511D01*
X103890000Y-42696000D01*
X103890000Y-41694000D01*
X103909685Y-41626961D01*
X103962489Y-41581206D01*
X104014000Y-41570000D01*
X108366000Y-41570000D01*
X108433039Y-41589685D01*
G37*
%TD.AperFunction*%
%TD*%
%TA.AperFunction,Conductor*%
%TO.N,GND*%
G36*
X117295500Y-60759962D02*
G01*
X117350038Y-60814500D01*
X117370000Y-60889000D01*
X117370000Y-62658282D01*
X117350038Y-62732782D01*
X117326359Y-62763641D01*
X117113641Y-62976359D01*
X117046846Y-63014923D01*
X117008282Y-63020000D01*
X113191718Y-63020000D01*
X113117218Y-63000038D01*
X113086359Y-62976359D01*
X112583641Y-62473641D01*
X112545077Y-62406846D01*
X112540000Y-62368282D01*
X112540000Y-60889000D01*
X112559962Y-60814500D01*
X112614500Y-60759962D01*
X112689000Y-60740000D01*
X117221000Y-60740000D01*
X117295500Y-60759962D01*
G37*
%TD.AperFunction*%
%TD*%
%TA.AperFunction,Conductor*%
%TO.N,GND*%
G36*
X120300102Y-58302924D02*
G01*
X120344696Y-58325646D01*
X120438481Y-58340500D01*
X121896000Y-58340499D01*
X121957633Y-58358596D01*
X121999698Y-58407142D01*
X122010000Y-58454499D01*
X122010000Y-58692780D01*
X122002051Y-58719850D01*
X121996055Y-58747414D01*
X121992604Y-58752023D01*
X121991903Y-58754413D01*
X121976610Y-58773390D01*
X121953390Y-58796610D01*
X121897012Y-58827395D01*
X121872780Y-58830000D01*
X120779998Y-58830000D01*
X120740000Y-58869998D01*
X120740000Y-59506000D01*
X120721903Y-59567633D01*
X120673357Y-59609698D01*
X120626000Y-59620000D01*
X119544000Y-59620000D01*
X119482367Y-59601903D01*
X119440302Y-59553357D01*
X119430000Y-59506000D01*
X119430000Y-58404500D01*
X119448097Y-58342867D01*
X119496643Y-58300802D01*
X119544000Y-58290500D01*
X120248349Y-58290500D01*
X120300102Y-58302924D01*
G37*
%TD.AperFunction*%
%TD*%
%TA.AperFunction,Conductor*%
%TO.N,GND*%
G36*
X85833039Y-49344685D02*
G01*
X85878794Y-49397489D01*
X85890000Y-49449000D01*
X85890000Y-51321000D01*
X85870315Y-51388039D01*
X85817511Y-51433794D01*
X85766000Y-51445000D01*
X81934000Y-51445000D01*
X81866961Y-51425315D01*
X81821206Y-51372511D01*
X81810000Y-51321000D01*
X81810000Y-49449000D01*
X81829685Y-49381961D01*
X81882489Y-49336206D01*
X81934000Y-49325000D01*
X85766000Y-49325000D01*
X85833039Y-49344685D01*
G37*
%TD.AperFunction*%
%TD*%
%TA.AperFunction,Conductor*%
%TO.N,GND*%
G36*
X82373039Y-56709685D02*
G01*
X82418794Y-56762489D01*
X82430000Y-56814000D01*
X82430000Y-57130000D01*
X82490000Y-57190000D01*
X82495441Y-57186412D01*
X82490968Y-57139419D01*
X82523001Y-57077326D01*
X82583520Y-57042408D01*
X82611984Y-57038923D01*
X84001142Y-57030703D01*
X84068296Y-57049991D01*
X84114363Y-57102523D01*
X84125731Y-57148722D01*
X84180887Y-58291236D01*
X84164458Y-58359146D01*
X84113921Y-58407394D01*
X84045323Y-58420661D01*
X83993911Y-58403948D01*
X83930388Y-58366381D01*
X83930385Y-58366380D01*
X83778633Y-58322292D01*
X83778620Y-58322290D01*
X83743163Y-58319500D01*
X83116849Y-58319500D01*
X83116824Y-58319501D01*
X83081372Y-58322291D01*
X82929614Y-58366380D01*
X82929609Y-58366382D01*
X82793577Y-58446831D01*
X82792523Y-58447649D01*
X82791546Y-58448032D01*
X82786865Y-58450801D01*
X82786418Y-58450045D01*
X82727485Y-58473178D01*
X82716022Y-58473662D01*
X79898919Y-58462101D01*
X79852171Y-58451480D01*
X79851841Y-58452347D01*
X79847298Y-58450615D01*
X79847286Y-58450611D01*
X79847285Y-58450611D01*
X79780246Y-58430926D01*
X79780244Y-58430925D01*
X79780242Y-58430925D01*
X79780239Y-58430924D01*
X79666000Y-58414500D01*
X77814000Y-58414500D01*
X77813991Y-58414500D01*
X77727802Y-58423767D01*
X77683616Y-58433380D01*
X77676290Y-58434974D01*
X77676288Y-58434974D01*
X77676286Y-58434975D01*
X77676277Y-58434977D01*
X77638756Y-58446873D01*
X77600773Y-58452670D01*
X77083491Y-58450547D01*
X77016533Y-58430587D01*
X76970995Y-58377596D01*
X76960000Y-58326548D01*
X76960000Y-56814000D01*
X76979685Y-56746961D01*
X77032489Y-56701206D01*
X77084000Y-56690000D01*
X82306000Y-56690000D01*
X82373039Y-56709685D01*
G37*
%TD.AperFunction*%
%TD*%
%TA.AperFunction,Conductor*%
%TO.N,/Power/BUCK_SW*%
G36*
X108533039Y-34989685D02*
G01*
X108578794Y-35042489D01*
X108590000Y-35094000D01*
X108590000Y-39920000D01*
X109783248Y-39920000D01*
X109850287Y-39939685D01*
X109877094Y-39962951D01*
X110709846Y-40927190D01*
X110738767Y-40990792D01*
X110740000Y-41008238D01*
X110740000Y-42440927D01*
X110720315Y-42507966D01*
X110667511Y-42553721D01*
X110598353Y-42563665D01*
X110585613Y-42561146D01*
X110581567Y-42560123D01*
X110538336Y-42554932D01*
X110493102Y-42549500D01*
X109381898Y-42549500D01*
X109352508Y-42553029D01*
X109341392Y-42554364D01*
X109338347Y-42553853D01*
X109335456Y-42554932D01*
X109304116Y-42548114D01*
X109272484Y-42542811D01*
X109269291Y-42540538D01*
X109267183Y-42540080D01*
X109238929Y-42518929D01*
X109226319Y-42506319D01*
X109192834Y-42444996D01*
X109190000Y-42418638D01*
X109190000Y-41370000D01*
X108940000Y-41120000D01*
X105441362Y-41120000D01*
X105374323Y-41100315D01*
X105353681Y-41083681D01*
X104476319Y-40206319D01*
X104442834Y-40144996D01*
X104440000Y-40118638D01*
X104440000Y-35094000D01*
X104459685Y-35026961D01*
X104512489Y-34981206D01*
X104564000Y-34970000D01*
X108466000Y-34970000D01*
X108533039Y-34989685D01*
G37*
%TD.AperFunction*%
%TD*%
%TA.AperFunction,Conductor*%
%TO.N,GND*%
G36*
X120765500Y-50919962D02*
G01*
X120820038Y-50974500D01*
X120840000Y-51049000D01*
X120840000Y-51590000D01*
X121831000Y-51590000D01*
X121905500Y-51609962D01*
X121960038Y-51664500D01*
X121980000Y-51739000D01*
X121980000Y-51890500D01*
X121960038Y-51965000D01*
X121905500Y-52019538D01*
X121831000Y-52039500D01*
X120438480Y-52039500D01*
X120344697Y-52054353D01*
X120260137Y-52097438D01*
X120238888Y-52106270D01*
X120230359Y-52109064D01*
X120203042Y-52114499D01*
X120162415Y-52131327D01*
X120157026Y-52133093D01*
X120144379Y-52133787D01*
X120110632Y-52140500D01*
X119629000Y-52140500D01*
X119554500Y-52120538D01*
X119499962Y-52066000D01*
X119480000Y-51991500D01*
X119480000Y-51049000D01*
X119499962Y-50974500D01*
X119554500Y-50919962D01*
X119629000Y-50900000D01*
X120691000Y-50900000D01*
X120765500Y-50919962D01*
G37*
%TD.AperFunction*%
%TD*%
%TA.AperFunction,Conductor*%
%TO.N,+3.3VA*%
G36*
X83019625Y-73621274D02*
G01*
X83030681Y-73622730D01*
X83051717Y-73625500D01*
X83051718Y-73625500D01*
X85341001Y-73625500D01*
X85357911Y-73623273D01*
X85373092Y-73621274D01*
X85392541Y-73620000D01*
X85800500Y-73620000D01*
X85875000Y-73639962D01*
X85929538Y-73694500D01*
X85949500Y-73769000D01*
X85949500Y-74922477D01*
X85949501Y-75471000D01*
X85929539Y-75545500D01*
X85875001Y-75600038D01*
X85800501Y-75620000D01*
X85511205Y-75620000D01*
X85445876Y-75602495D01*
X85445272Y-75603852D01*
X85436706Y-75600038D01*
X85436705Y-75600038D01*
X85436703Y-75600037D01*
X85320457Y-75548281D01*
X85320450Y-75548278D01*
X85245951Y-75528317D01*
X85245934Y-75528314D01*
X85141005Y-75514500D01*
X85141000Y-75514500D01*
X85071788Y-75514500D01*
X85009940Y-75497928D01*
X85008998Y-75500106D01*
X85000399Y-75496385D01*
X85000391Y-75496382D01*
X85000390Y-75496382D01*
X84939888Y-75478804D01*
X84848629Y-75452291D01*
X84848630Y-75452291D01*
X84838955Y-75451529D01*
X84813163Y-75449500D01*
X84813155Y-75449500D01*
X84186849Y-75449500D01*
X84186831Y-75449501D01*
X84151379Y-75452290D01*
X84151374Y-75452290D01*
X84151373Y-75452291D01*
X83999610Y-75496382D01*
X83999600Y-75496385D01*
X83991002Y-75500106D01*
X83989955Y-75497687D01*
X83929777Y-75514492D01*
X83928212Y-75514500D01*
X81338992Y-75514500D01*
X81258447Y-75525104D01*
X81181979Y-75515037D01*
X81120790Y-75468084D01*
X81091275Y-75396826D01*
X81090000Y-75377379D01*
X81090000Y-73769000D01*
X81109962Y-73694500D01*
X81164500Y-73639962D01*
X81239000Y-73620000D01*
X83000177Y-73620000D01*
X83019625Y-73621274D01*
G37*
%TD.AperFunction*%
%TD*%
%TA.AperFunction,Conductor*%
%TO.N,GND*%
G36*
X109381898Y-43000500D02*
G01*
X109381905Y-43000500D01*
X110493098Y-43000500D01*
X110493102Y-43000500D01*
X110514130Y-42997974D01*
X110583035Y-43009523D01*
X110634761Y-43056493D01*
X110639824Y-43065635D01*
X110786168Y-43358324D01*
X110791103Y-43385747D01*
X110810772Y-43375166D01*
X110852412Y-43373535D01*
X112741977Y-43620000D01*
X112981721Y-43651271D01*
X113045651Y-43679461D01*
X113084192Y-43737739D01*
X113089683Y-43774229D01*
X113089683Y-44796000D01*
X113069998Y-44863039D01*
X113017194Y-44908794D01*
X112965683Y-44920000D01*
X111747511Y-44920000D01*
X111680472Y-44900315D01*
X111652851Y-44876097D01*
X111029840Y-44139810D01*
X111001563Y-44075918D01*
X111000500Y-44059713D01*
X111000500Y-44006903D01*
X111000500Y-44006898D01*
X110989877Y-43918436D01*
X110934361Y-43777658D01*
X110934360Y-43777657D01*
X110934360Y-43777656D01*
X110842922Y-43657077D01*
X110761452Y-43595297D01*
X110719928Y-43539105D01*
X110719209Y-43528089D01*
X110714365Y-43531450D01*
X110644539Y-43533912D01*
X110629773Y-43529134D01*
X110581564Y-43510123D01*
X110581563Y-43510122D01*
X110581561Y-43510122D01*
X110535926Y-43504642D01*
X110493102Y-43499500D01*
X109381898Y-43499500D01*
X109356406Y-43502561D01*
X109328465Y-43505916D01*
X109259557Y-43494363D01*
X109207834Y-43447390D01*
X109189683Y-43382800D01*
X109189683Y-43117199D01*
X109194307Y-43101451D01*
X109193925Y-43085044D01*
X109203947Y-43068619D01*
X109209368Y-43050160D01*
X109221769Y-43039413D01*
X109230320Y-43025402D01*
X109247633Y-43017002D01*
X109262172Y-43004405D01*
X109279002Y-43001784D01*
X109293183Y-42994905D01*
X109328462Y-42994083D01*
X109381898Y-43000500D01*
G37*
%TD.AperFunction*%
%TD*%
%TA.AperFunction,Conductor*%
%TO.N,+5V*%
G36*
X114545500Y-56939962D02*
G01*
X114600038Y-56994500D01*
X114620000Y-57069000D01*
X114620000Y-59721000D01*
X114600038Y-59795500D01*
X114545500Y-59850038D01*
X114471000Y-59870000D01*
X112519000Y-59870000D01*
X112444500Y-59850038D01*
X112389962Y-59795500D01*
X112370000Y-59721000D01*
X112370000Y-57069000D01*
X112389962Y-56994500D01*
X112444500Y-56939962D01*
X112519000Y-56920000D01*
X114471000Y-56920000D01*
X114545500Y-56939962D01*
G37*
%TD.AperFunction*%
%TD*%
%TA.AperFunction,Conductor*%
%TO.N,/ADC/ADC_VREF*%
G36*
X82321007Y-78320500D02*
G01*
X82458993Y-78320500D01*
X82461507Y-78320000D01*
X84509839Y-78320000D01*
X84520017Y-78320500D01*
X84521007Y-78320500D01*
X84659983Y-78320500D01*
X84670161Y-78320000D01*
X85831791Y-78320000D01*
X85898830Y-78339685D01*
X85944585Y-78392489D01*
X85954529Y-78461647D01*
X85954264Y-78463398D01*
X85949500Y-78493475D01*
X85949500Y-79897518D01*
X85929815Y-79964557D01*
X85877011Y-80010312D01*
X85826017Y-80021517D01*
X85030452Y-80024837D01*
X84995341Y-80019915D01*
X84948218Y-80006224D01*
X84848627Y-79977291D01*
X84848625Y-79977290D01*
X84848620Y-79977290D01*
X84813163Y-79974500D01*
X84186849Y-79974500D01*
X84186824Y-79974501D01*
X84151372Y-79977291D01*
X83992120Y-80023558D01*
X83991634Y-80021888D01*
X83956102Y-80029320D01*
X79325017Y-80048643D01*
X79257896Y-80029238D01*
X79211922Y-79976626D01*
X79200500Y-79924644D01*
X79200500Y-79856903D01*
X79200500Y-79856898D01*
X79189877Y-79768436D01*
X79134361Y-79627658D01*
X79134360Y-79627657D01*
X79134360Y-79627656D01*
X79042920Y-79507075D01*
X79036925Y-79501080D01*
X79039374Y-79498630D01*
X79007531Y-79455495D01*
X79000000Y-79412939D01*
X79000000Y-78444000D01*
X79019685Y-78376961D01*
X79072489Y-78331206D01*
X79124000Y-78320000D01*
X82318493Y-78320000D01*
X82321007Y-78320500D01*
G37*
%TD.AperFunction*%
%TD*%
%TA.AperFunction,Conductor*%
%TO.N,+3V3*%
G36*
X113533039Y-35169685D02*
G01*
X113578794Y-35222489D01*
X113590000Y-35274000D01*
X113590000Y-42694926D01*
X113570315Y-42761965D01*
X113517511Y-42807720D01*
X113464931Y-42818921D01*
X111392931Y-42801059D01*
X111326064Y-42780798D01*
X111280766Y-42727601D01*
X111270000Y-42677064D01*
X111270000Y-39410000D01*
X110684000Y-39410000D01*
X110616961Y-39390315D01*
X110571206Y-39337511D01*
X110560000Y-39286000D01*
X110560000Y-35274000D01*
X110579685Y-35206961D01*
X110632489Y-35161206D01*
X110684000Y-35150000D01*
X113466000Y-35150000D01*
X113533039Y-35169685D01*
G37*
%TD.AperFunction*%
%TD*%
%TA.AperFunction,Conductor*%
%TO.N,/Power/+5V_FILT*%
G36*
X102423039Y-74869685D02*
G01*
X102468794Y-74922489D01*
X102480000Y-74974000D01*
X102480000Y-78460000D01*
X102550000Y-78530000D01*
X104118638Y-78530000D01*
X104148078Y-78538644D01*
X104178065Y-78545168D01*
X104183080Y-78548922D01*
X104185677Y-78549685D01*
X104206319Y-78566319D01*
X104313681Y-78673681D01*
X104347166Y-78735004D01*
X104350000Y-78761362D01*
X104350000Y-82346000D01*
X104330315Y-82413039D01*
X104277511Y-82458794D01*
X104226000Y-82470000D01*
X100989363Y-82470000D01*
X100922324Y-82450315D01*
X100876569Y-82397511D01*
X100866625Y-82328353D01*
X100895650Y-82264797D01*
X100899907Y-82260225D01*
X100900000Y-82260001D01*
X100900000Y-75611362D01*
X100919685Y-75544323D01*
X100936319Y-75523681D01*
X101573681Y-74886319D01*
X101635004Y-74852834D01*
X101661362Y-74850000D01*
X102356000Y-74850000D01*
X102423039Y-74869685D01*
G37*
%TD.AperFunction*%
%TD*%
%TA.AperFunction,Conductor*%
%TO.N,+3.3VA*%
G36*
X100314879Y-82629962D02*
G01*
X100345738Y-82653641D01*
X100386653Y-82694556D01*
X100499694Y-82752153D01*
X100574311Y-82763971D01*
X100644768Y-82795341D01*
X100690103Y-82857739D01*
X100700000Y-82911136D01*
X100700000Y-84781000D01*
X100680038Y-84855500D01*
X100625500Y-84910038D01*
X100551000Y-84930000D01*
X96529000Y-84930000D01*
X96454500Y-84910038D01*
X96399962Y-84855500D01*
X96380000Y-84781000D01*
X96380000Y-82759000D01*
X96399962Y-82684500D01*
X96454500Y-82629962D01*
X96529000Y-82610000D01*
X100240379Y-82610000D01*
X100314879Y-82629962D01*
G37*
%TD.AperFunction*%
%TD*%
%TA.AperFunction,Conductor*%
%TO.N,+3V3*%
G36*
X81931431Y-51850316D02*
G01*
X81933997Y-51850499D01*
X81934000Y-51850500D01*
X84288143Y-51850500D01*
X84351263Y-51867767D01*
X84369610Y-51878618D01*
X84521373Y-51922709D01*
X84556837Y-51925500D01*
X85183162Y-51925499D01*
X85218627Y-51922709D01*
X85370390Y-51878618D01*
X85388736Y-51867767D01*
X85404637Y-51863417D01*
X85416922Y-51855523D01*
X85451857Y-51850500D01*
X85546000Y-51850500D01*
X85613039Y-51870185D01*
X85658794Y-51922989D01*
X85670000Y-51974500D01*
X85670000Y-53451000D01*
X85650315Y-53518039D01*
X85597511Y-53563794D01*
X85546000Y-53575000D01*
X84398002Y-53575000D01*
X84330963Y-53555315D01*
X84329111Y-53554102D01*
X84321817Y-53549228D01*
X84321804Y-53549221D01*
X84194332Y-53496421D01*
X84194322Y-53496418D01*
X84058995Y-53469500D01*
X84058993Y-53469500D01*
X83921007Y-53469500D01*
X83921005Y-53469500D01*
X83785677Y-53496418D01*
X83785667Y-53496421D01*
X83658195Y-53549221D01*
X83658182Y-53549228D01*
X83650889Y-53554102D01*
X83584211Y-53574980D01*
X83581998Y-53575000D01*
X81844000Y-53575000D01*
X81776961Y-53555315D01*
X81731206Y-53502511D01*
X81720000Y-53451000D01*
X81720000Y-51974000D01*
X81722550Y-51965314D01*
X81721262Y-51956353D01*
X81732240Y-51932312D01*
X81739685Y-51906961D01*
X81746525Y-51901033D01*
X81750287Y-51892797D01*
X81772521Y-51878507D01*
X81792489Y-51861206D01*
X81803003Y-51858918D01*
X81809065Y-51855023D01*
X81844000Y-51850000D01*
X81922583Y-51850000D01*
X81931431Y-51850316D01*
G37*
%TD.AperFunction*%
%TD*%
%TA.AperFunction,Conductor*%
%TO.N,+3V3*%
G36*
X79733039Y-58839685D02*
G01*
X79778794Y-58892489D01*
X79790000Y-58944000D01*
X79790000Y-62396000D01*
X79770315Y-62463039D01*
X79717511Y-62508794D01*
X79666000Y-62520000D01*
X77814000Y-62520000D01*
X77746961Y-62500315D01*
X77701206Y-62447511D01*
X77690000Y-62396000D01*
X77690000Y-58944000D01*
X77709685Y-58876961D01*
X77762489Y-58831206D01*
X77814000Y-58820000D01*
X79666000Y-58820000D01*
X79733039Y-58839685D01*
G37*
%TD.AperFunction*%
%TD*%
M02*
